<?xml version="1.0" encoding="UTF-8"?>
<svg xmlns="http://www.w3.org/2000/svg" xmlns:xlink="http://www.w3.org/1999/xlink" xmlns:svgjs="http://svgjs.com/svgjs" version="1.1" width="512" height="512" x="0" y="0" viewBox="0 0 299.063 299.063" style="enable-background:new 0 0 512 512" xml:space="preserve" class="">
  <g>
    <g xmlns="http://www.w3.org/2000/svg">
      <path d="m258.343 26.972h-217.623c-19.202 0-34.769 15.567-34.769 34.769v202.553c0 19.202 15.567 34.769 34.769 34.769h217.623c19.202 0 34.769-15.567 34.769-34.769v-202.553c0-19.203-15.567-34.769-34.769-34.769z" fill="#ededed" data-original="#ebf0f3" style="" class=""/>
      <path d="m293.112 92.299v-42.128c0-19.202-15.567-34.769-34.769-34.769h-217.623c-19.202 0-34.769 15.567-34.769 34.769v42.128z" fill="#6c6c6c" data-original="#ce412d" style="" class=""/>
      <path d="m293.112 100.159v-38.418c0-19.202-15.567-34.769-34.769-34.769h-217.623c-19.202 0-34.769 15.567-34.769 34.769v38.418z" fill="#b7b7b7" data-original="#e56353" style="" class=""/>
      <path d="m62.902 45.645c-6.702 0-12.135 5.433-12.135 12.135s5.433 12.134 12.135 12.134 12.134-5.433 12.134-12.134c.001-6.702-5.432-12.135-12.134-12.135z" fill="#6c6c6c" data-original="#d15241" style="" class=""/>
      <path d="m62.902 0c-3.585 0-6.492 2.907-6.492 6.492v50.581c0 3.586 2.907 6.492 6.492 6.492s6.492-2.906 6.492-6.492v-50.581c0-3.585-2.906-6.492-6.492-6.492z" fill="#000000" data-original="#4d5c7d" style="" class=""/>
      <path d="m120.655 45.645c-6.702 0-12.135 5.433-12.135 12.135s5.433 12.134 12.135 12.134 12.134-5.433 12.134-12.134c.001-6.702-5.432-12.135-12.134-12.135z" fill="#6c6c6c" data-original="#d15241" style="" class=""/>
      <path d="m120.655 0c-3.585 0-6.492 2.907-6.492 6.492v50.581c0 3.586 2.907 6.492 6.492 6.492s6.492-2.906 6.492-6.492v-50.581c0-3.585-2.907-6.492-6.492-6.492z" fill="#000000" data-original="#4d5c7d" style="" class=""/>
      <path d="m178.408 45.645c-6.702 0-12.135 5.433-12.135 12.135s5.433 12.134 12.135 12.134 12.134-5.433 12.134-12.134c0-6.702-5.432-12.135-12.134-12.135z" fill="#6c6c6c" data-original="#d15241" style="" class=""/>
      <path d="m178.408 0c-3.585 0-6.492 2.907-6.492 6.492v50.581c0 3.586 2.907 6.492 6.492 6.492s6.492-2.906 6.492-6.492v-50.581c0-3.585-2.907-6.492-6.492-6.492z" fill="#000000" data-original="#4d5c7d" style="" class=""/>
      <path d="m236.161 45.645c-6.702 0-12.135 5.433-12.135 12.135s5.433 12.134 12.135 12.134 12.134-5.433 12.134-12.134c0-6.702-5.433-12.135-12.134-12.135z" fill="#6c6c6c" data-original="#d15241" style="" class=""/>
      <path d="m236.16 0c-3.585 0-6.492 2.907-6.492 6.492v50.581c0 3.586 2.907 6.492 6.492 6.492s6.492-2.906 6.492-6.492v-50.581c0-3.585-2.906-6.492-6.492-6.492z" fill="#000000" data-original="#4d5c7d" style="" class=""/>
      <g fill="#e56353">
        <path d="m111.907 148.197h26.245v26.245h-26.245z" fill="#b7b7b7" data-original="#e56353" style="" class=""/>
        <path d="m160.911 148.197h26.245v26.245h-26.245z" fill="#b7b7b7" data-original="#e56353" style="" class=""/>
        <path d="m209.916 148.197h26.245v26.245h-26.245z" fill="#b7b7b7" data-original="#e56353" style="" class=""/>
        <path d="m62.902 189.34h26.245v26.245h-26.245z" fill="#b7b7b7" data-original="#e56353" style="" class=""/>
        <path d="m111.907 189.34h26.245v26.245h-26.245z" fill="#b7b7b7" data-original="#e56353" style="" class=""/>
        <path d="m160.911 189.34h26.245v26.245h-26.245z" fill="#b7b7b7" data-original="#e56353" style="" class=""/>
        <path d="m209.916 189.34h26.245v26.245h-26.245z" fill="#b7b7b7" data-original="#e56353" style="" class=""/>
        <path d="m62.902 230.483h26.245v26.245h-26.245z" fill="#b7b7b7" data-original="#e56353" style="" class=""/>
        <path d="m111.907 230.483h26.245v26.245h-26.245z" fill="#b7b7b7" data-original="#e56353" style="" class=""/>
        <path d="m160.911 230.483h26.245v26.245h-26.245z" fill="#b7b7b7" data-original="#e56353" style="" class=""/>
      </g>
    </g>
  </g>
</svg>
