<?xml version="1.0" encoding="UTF-8"?>
<svg xmlns="http://www.w3.org/2000/svg" xmlns:xlink="http://www.w3.org/1999/xlink" xmlns:svgjs="http://svgjs.com/svgjs" version="1.1" width="512" height="512" x="0" y="0" viewBox="0 0 512 512" style="enable-background:new 0 0 512 512" xml:space="preserve" class="">
  <g>
    <path xmlns="http://www.w3.org/2000/svg" d="m197.332031 0h-160c-20.585937 0-37.332031 16.746094-37.332031 37.332031v96c0 20.589844 16.746094 37.335938 37.332031 37.335938h160c20.589844 0 37.335938-16.746094 37.335938-37.335938v-96c0-20.585937-16.746094-37.332031-37.335938-37.332031zm0 0" fill="#b7b7b7" data-original="#2196f3" style="" class=""/>
    <path xmlns="http://www.w3.org/2000/svg" d="m197.332031 213.332031h-160c-20.585937 0-37.332031 16.746094-37.332031 37.335938v224c0 20.585937 16.746094 37.332031 37.332031 37.332031h160c20.589844 0 37.335938-16.746094 37.335938-37.332031v-224c0-20.589844-16.746094-37.335938-37.335938-37.335938zm0 0" fill="#6c6c6c" data-original="#1976d2" style="" class=""/>
    <path xmlns="http://www.w3.org/2000/svg" d="m474.667969 341.332031h-160c-20.589844 0-37.335938 16.746094-37.335938 37.335938v96c0 20.585937 16.746094 37.332031 37.335938 37.332031h160c20.585937 0 37.332031-16.746094 37.332031-37.332031v-96c0-20.589844-16.746094-37.335938-37.332031-37.335938zm0 0" fill="#b7b7b7" data-original="#2196f3" style="" class=""/>
    <path xmlns="http://www.w3.org/2000/svg" d="m474.667969 0h-160c-20.589844 0-37.335938 16.746094-37.335938 37.332031v224c0 20.589844 16.746094 37.335938 37.335938 37.335938h160c20.585937 0 37.332031-16.746094 37.332031-37.335938v-224c0-20.585937-16.746094-37.332031-37.332031-37.332031zm0 0" fill="#6c6c6c" data-original="#1976d2" style="" class=""/>
  </g>
</svg>
