<?xml version="1.0" encoding="UTF-8"?>
<svg xmlns="http://www.w3.org/2000/svg" xmlns:xlink="http://www.w3.org/1999/xlink" xmlns:svgjs="http://svgjs.com/svgjs" version="1.1" width="512" height="512" x="0" y="0" viewBox="0 0 440 440.5" style="enable-background:new 0 0 512 512" xml:space="preserve" class="">
  <g transform="matrix(1,0,0,1,35,1.4210854715202004e-13)">
    <path xmlns="http://www.w3.org/2000/svg" d="m326.648438 31.300781h-17.5v-21.300781c0-5.523438-4.476563-10-10-10-5.519532 0-10 4.476562-10 10v21.398438h-201.898438v-21.398438c0-5.523438-4.476562-10-10-10s-10 4.476562-10 10v21.398438h-17c-27.609375.011718-49.988281 22.390624-50 50v309.101562c.011719 27.609375 22.390625 49.988281 50 50h276.300781c27.609375-.011719 49.988281-22.390625 50-50v-309.199219c0-27.574219-22.324219-49.945312-49.902343-50zm30 359.097657c-.046876 16.550781-13.449219 29.953124-30 30h-276.398438c-16.546875-.046876-29.953125-13.449219-30-30v-309.097657c.046875-16.550781 13.453125-29.953125 30-30h17v15.5c0 5.523438 4.476562 10 10 10s10-4.476562 10-10v-15.5h201.898438v15.5c0 5.523438 4.480468 10 10 10 5.523437 0 10-4.476562 10-10v-15.5h17.5c16.550781.046875 29.953124 13.449219 30 30zm0 0" fill="#f15082" data-original="#000000" style="" class=""/>
    <path xmlns="http://www.w3.org/2000/svg" d="m127.449219 212-36.898438 35.199219-17-17c-3.894531-3.894531-10.207031-3.894531-14.101562 0s-3.894531 10.207031 0 14.101562l23.902343 23.898438c1.875 1.890625 4.4375 2.9375 7.097657 2.902343 2.582031.023438 5.066406-.984374 6.902343-2.800781l43.898438-42c2.597656-2.457031 3.679688-6.117187 2.828125-9.589843-.851563-3.472657-3.503906-6.222657-6.941406-7.195313-3.441407-.976563-7.140625-.027344-9.6875 2.484375zm0 0" fill="#f15082" data-original="#000000" style="" class=""/>
    <path xmlns="http://www.w3.org/2000/svg" d="m310.449219 230.199219h-115c-5.523438 0-10 4.476562-10 10 0 5.523437 4.476562 10 10 10h115c5.523437 0 10-4.476563 10-10 0-5.523438-4.476563-10-10-10zm0 0" fill="#f15082" data-original="#000000" style="" class=""/>
    <path xmlns="http://www.w3.org/2000/svg" d="m127.449219 112-36.898438 35.199219-17-17c-3.894531-3.894531-10.207031-3.894531-14.101562 0s-3.894531 10.207031 0 14.101562l23.902343 23.898438c1.875 1.890625 4.4375 2.9375 7.097657 2.902343 2.582031.023438 5.066406-.984374 6.902343-2.800781l43.898438-42c2.597656-2.457031 3.679688-6.117187 2.828125-9.589843-.851563-3.472657-3.503906-6.222657-6.941406-7.195313-3.441407-.976563-7.140625-.027344-9.6875 2.484375zm0 0" fill="#f15082" data-original="#000000" style="" class=""/>
    <path xmlns="http://www.w3.org/2000/svg" d="m310.449219 130.199219h-115c-5.523438 0-10 4.476562-10 10 0 5.523437 4.476562 10 10 10h115c5.523437 0 10-4.476563 10-10 0-5.523438-4.476563-10-10-10zm0 0" fill="#f15082" data-original="#000000" style="" class=""/>
    <path xmlns="http://www.w3.org/2000/svg" d="m127.449219 312-36.898438 35.199219-17-17c-3.894531-3.894531-10.207031-3.894531-14.101562 0s-3.894531 10.207031 0 14.101562l23.902343 23.898438c1.875 1.890625 4.4375 2.9375 7.097657 2.902343 2.582031.023438 5.066406-.984374 6.902343-2.800781l43.898438-42c2.597656-2.457031 3.679688-6.117187 2.828125-9.589843-.851563-3.472657-3.503906-6.222657-6.941406-7.195313-3.441407-.976563-7.140625-.027344-9.6875 2.484375zm0 0" fill="#f15082" data-original="#000000" style="" class=""/>
    <path xmlns="http://www.w3.org/2000/svg" d="m310.449219 330.199219h-115c-5.523438 0-10 4.476562-10 10 0 5.523437 4.476562 10 10 10h115c5.523437 0 10-4.476563 10-10 0-5.523438-4.476563-10-10-10zm0 0" fill="#f15082" data-original="#000000" style="" class=""/>
  </g>
</svg>
