<svg id="e73ab350-2475-46f8-862e-9add2a134afd" data-name="Layer 1"
    xmlns="http://www.w3.org/2000/svg" viewBox="0 0 500 372.5">
    <g id="be402939-e861-4963-bc2f-c298663f3356" data-name="Background Complete">
        <rect y="327.4" width="500" height="0.3" fill="#ebebeb" />
        <path
            d="M237,337.8H43.9a5.76,5.76,0,0,1-5.7-5.7V60.7A5.76,5.76,0,0,1,43.9,55H237a5.76,5.76,0,0,1,5.7,5.7V332.1A5.7,5.7,0,0,1,237,337.8ZM43.9,55.2a5.48,5.48,0,0,0-5.5,5.5V332.1a5.48,5.48,0,0,0,5.5,5.5H237a5.48,5.48,0,0,0,5.5-5.5V60.7a5.48,5.48,0,0,0-5.5-5.5Z"
            transform="translate(0 -55)" fill="#ebebeb" />
        <path
            d="M453.3,337.8H260.2a5.76,5.76,0,0,1-5.7-5.7V60.7a5.76,5.76,0,0,1,5.7-5.7H453.3a5.76,5.76,0,0,1,5.7,5.7V332.1A5.7,5.7,0,0,1,453.3,337.8ZM260.2,55.2a5.48,5.48,0,0,0-5.5,5.5V332.1a5.48,5.48,0,0,0,5.5,5.5H453.3a5.48,5.48,0,0,0,5.5-5.5V60.7a5.48,5.48,0,0,0-5.5-5.5Z"
            transform="translate(0 -55)" fill="#ebebeb" />
        <rect x="51.3" y="336.9" width="26" height="0.3" fill="#ebebeb" />
        <rect x="145.2" y="334.2" width="45" height="0.3" fill="#ebebeb" />
        <rect x="78.3" y="346.2" width="60.8" height="0.3" fill="#ebebeb" />
        <rect x="429.5" y="344.5" width="19.2" height="0.3" fill="#ebebeb" />
        <rect x="365.3" y="344.5" width="55.3" height="0.3" fill="#ebebeb" />
        <rect x="257" y="340.3" width="74.5" height="0.3" fill="#ebebeb" />
        <rect x="222.8" y="219.5" width="42" height="107.9" fill="#f0f0f0" />
        <rect x="72.27" y="219.51" width="150.5" height="107.9" fill="#f5f5f5" />
        <rect x="81.56" y="294.91" width="25.1" height="22" fill="#fff" />
        <rect x="81.56" y="264.85" width="25.1" height="22" fill="#ebebeb" />
        <rect x="71.9" y="233.4" width="193" height="4.3" fill="#e6e6e6" opacity="0.7"
            style="isolation:isolate" />
        <rect x="222.8" y="217.4" width="44.4" height="17.5" fill="#f0f0f0" />
        <rect x="70.04" y="217.41" width="152.8" height="17.5" fill="#f5f5f5" />
        <rect x="216.2" y="184.4" width="32.7" height="33.3" fill="#f0f0f0" />
        <rect x="102.4" y="184.42" width="113.8" height="33.3" fill="#f5f5f5" />
        <rect x="102.1" y="189.4" width="146.8" height="2.7" fill="#e6e6e6" opacity="0.7"
            style="isolation:isolate" />
        <rect x="216.2" y="182.8" width="34.5" height="7.8" fill="#f0f0f0" />
        <rect x="100.6" y="182.79" width="115.6" height="7.8" fill="#f5f5f5" />
        <rect x="287.41" y="165.52" width="32" height="161.9" fill="#e6e6e6" />
        <polygon points="294.3 327.4 287.4 327.4 287.4 315.9 301.4 315.9 294.3 327.4"
            fill="#f0f0f0" />
        <rect x="394.14" y="165.52" width="32" height="161.9" fill="#e6e6e6" />
        <rect x="287.41" y="165.5" width="112.7" height="159.6" fill="#f0f0f0" />
        <rect x="292.71" y="172.55" width="102.1" height="43.8" fill="#e6e6e6" />
        <path d="M350.5,248.5a6.7,6.7,0,1,1-6.7-6.7A6.7,6.7,0,0,1,350.5,248.5Z"
            transform="translate(0 -55)" fill="#fafafa" />
        <polygon points="393.3 327.4 400.1 327.4 400.1 315.9 386.1 315.9 393.3 327.4"
            fill="#f0f0f0" />
        <rect x="292.7" y="223.4" width="102.1" height="94.6" fill="#e6e6e6" />
        <circle cx="380.7" cy="237.5" r="6.7" fill="#fafafa" />
        <rect x="86.24" y="16.49" width="329" height="131" fill="#e6e6e6" />
        <rect x="84.79" y="16.54" width="329" height="131" fill="#f0f0f0" />
        <rect x="93.1" y="24.9" width="312.3" height="114.2" fill="#fff" />
        <polygon points="129.5 72.5 118.6 91.5 140.5 91.5 129.5 72.5" fill="#e6e6e6" />
        <rect x="168.6" y="73" width="17.9" height="17.9" fill="#e6e6e6" />
        <polygon points="225.6 70.5 213.5 79.3 218.2 93.5 233.1 93.5 237.7 79.3 225.6 70.5"
            fill="#e6e6e6" />
        <polygon points="280 71 267.3 71 261 82 267.3 93 280 93 286.3 82 280 71" fill="#e6e6e6" />
        <polygon
            points="321.7 70 311.8 74.7 309.3 85.5 316.2 94.1 327.2 94.1 334.1 85.5 331.6 74.7 321.7 70"
            fill="#e6e6e6" />
        <polygon
            points="374.6 70.3 364.9 70.3 358 77.2 358 86.9 364.9 93.7 374.6 93.7 381.4 86.9 381.4 77.2 374.6 70.3"
            fill="#e6e6e6" />
    </g>
    <g id="a6dd1ead-4c70-4fa6-ac08-f8b019630555" data-name="Shadow">
        <ellipse id="ffba14da-9ff9-46bb-8249-7fea0a68c182" data-name="&lt;Path&gt;" cx="250"
            cy="361.2" rx="193.9" ry="11.3" fill="#f5f5f5" />
    </g>
    <g id="baad2eba-2bbf-42b7-abf5-0342a02d0dfd" data-name="To Do List">
        <path
            d="M239.4,129.5H404.1a6,6,0,0,1,6,6.4L396.7,352.2a6.94,6.94,0,0,1-6.8,6.4H225.2a6,6,0,0,1-6-6.4l13.4-216.3A6.94,6.94,0,0,1,239.4,129.5Z"
            transform="translate(0 -55)" fill="#407bff" />
        <path
            d="M239.4,129.5H404.1a6,6,0,0,1,6,6.4L396.7,352.2a6.94,6.94,0,0,1-6.8,6.4H225.2a6,6,0,0,1-6-6.4l13.4-216.3A6.94,6.94,0,0,1,239.4,129.5Z"
            transform="translate(0 -55)" opacity="0.4" style="isolation:isolate" />
        <path
            d="M235.6,129.5H400.3a6,6,0,0,1,6,6.4L392.9,352.2a6.94,6.94,0,0,1-6.8,6.4H221.4a6,6,0,0,1-6-6.4l13.4-216.3A7,7,0,0,1,235.6,129.5Z"
            transform="translate(0 -55)" fill="#407bff" />
        <polygon points="224.3 291.9 384.6 293.9 397.6 84.3 237.2 84.3 224.3 291.9" opacity="0.4"
            style="isolation:isolate" />
        <path
            d="M219.7,344.8H382c8.9-81.9,11.7-126.1,12.9-208H232.6C231.3,218.7,228.6,262.9,219.7,344.8Z"
            transform="translate(0 -55)" fill="#fff" />
        <path
            d="M375.5,193.8H347.6a1.8,1.8,0,0,1-1.5-.7,2.2,2.2,0,0,1-.6-1.5l1.7-27.9a2.08,2.08,0,0,1,2.1-1.9h27.9a1.8,1.8,0,0,1,1.5.7,2.2,2.2,0,0,1,.6,1.5l-1.7,27.9A2.16,2.16,0,0,1,375.5,193.8Zm-25.8-4.2h23.8l1.5-23.8H351.2Z"
            transform="translate(0 -55)" fill="#407bff" opacity="0.3" style="isolation:isolate" />
        <path
            d="M372.8,236.3H344.9a1.8,1.8,0,0,1-1.5-.7,2.2,2.2,0,0,1-.6-1.5l1.7-27.9a2.08,2.08,0,0,1,2.1-1.9h27.9a1.8,1.8,0,0,1,1.5.7,2.2,2.2,0,0,1,.6,1.5l-1.7,27.9A2.08,2.08,0,0,1,372.8,236.3Zm-25.7-4.1h23.8l1.5-23.8H348.6Z"
            transform="translate(0 -55)" fill="#407bff" opacity="0.3" style="isolation:isolate" />
        <path
            d="M370.2,278.9H342.3a1.8,1.8,0,0,1-1.5-.7,2.2,2.2,0,0,1-.6-1.5l1.7-27.9a2.08,2.08,0,0,1,2.1-1.9h27.9a1.8,1.8,0,0,1,1.5.7,2.2,2.2,0,0,1,.6,1.5L372.3,277A2.16,2.16,0,0,1,370.2,278.9Zm-25.7-4.1h23.8l1.5-23.8H346Z"
            transform="translate(0 -55)" fill="#407bff" opacity="0.3" style="isolation:isolate" />
        <path
            d="M367.6,321.5H339.7a1.8,1.8,0,0,1-1.5-.7,2.2,2.2,0,0,1-.6-1.5l1.7-27.9a2.08,2.08,0,0,1,2.1-1.9h27.9a1.8,1.8,0,0,1,1.5.7,2.2,2.2,0,0,1,.6,1.5l-1.7,27.9A2.16,2.16,0,0,1,367.6,321.5Zm-25.8-4.2h23.8l1.5-23.8H343.3Z"
            transform="translate(0 -55)" fill="#407bff" opacity="0.3" style="isolation:isolate" />
        <path
            d="M259.9,174.1h63.3a3.79,3.79,0,0,0,3.7-3.5h0a3.31,3.31,0,0,0-3.3-3.5H260.3a3.79,3.79,0,0,0-3.7,3.5h0A3.31,3.31,0,0,0,259.9,174.1Z"
            transform="translate(0 -55)" fill="#407bff" opacity="0.3" style="isolation:isolate" />
        <path
            d="M271,188.4h51.3a3.79,3.79,0,0,0,3.7-3.5h0a3.31,3.31,0,0,0-3.3-3.5H271.4a3.79,3.79,0,0,0-3.7,3.5h0A3.31,3.31,0,0,0,271,188.4Z"
            transform="translate(0 -55)" fill="#407bff" opacity="0.3" style="isolation:isolate" />
        <path
            d="M256.8,223.9h63.3a3.31,3.31,0,0,1,3.3,3.5h0a3.79,3.79,0,0,1-3.7,3.5H256.4a3.31,3.31,0,0,1-3.3-3.5h0A3.79,3.79,0,0,1,256.8,223.9Z"
            transform="translate(0 -55)" fill="#407bff" opacity="0.3" style="isolation:isolate" />
        <path
            d="M269.7,209.6H321a3.31,3.31,0,0,1,3.3,3.5h0a3.79,3.79,0,0,1-3.7,3.5H269.3a3.31,3.31,0,0,1-3.3-3.5h0A3.79,3.79,0,0,1,269.7,209.6Z"
            transform="translate(0 -55)" fill="#407bff" opacity="0.3" style="isolation:isolate" />
        <path
            d="M254.6,259.2h63.3a3.79,3.79,0,0,0,3.7-3.5h0a3.31,3.31,0,0,0-3.3-3.5H255a3.79,3.79,0,0,0-3.7,3.5h0A3.31,3.31,0,0,0,254.6,259.2Z"
            transform="translate(0 -55)" fill="#407bff" opacity="0.3" style="isolation:isolate" />
        <path
            d="M291.5,273.5H317a3.79,3.79,0,0,0,3.7-3.5h0a3.31,3.31,0,0,0-3.3-3.5H292a3.79,3.79,0,0,0-3.7,3.5h0A3.18,3.18,0,0,0,291.5,273.5Z"
            transform="translate(0 -55)" fill="#407bff" opacity="0.3" style="isolation:isolate" />
        <path
            d="M265.7,273.5h13.4a3.79,3.79,0,0,0,3.7-3.5h0a3.31,3.31,0,0,0-3.3-3.5H266.1a3.79,3.79,0,0,0-3.7,3.5h0A3.38,3.38,0,0,0,265.7,273.5Z"
            transform="translate(0 -55)" fill="#407bff" opacity="0.3" style="isolation:isolate" />
        <path
            d="M252,301.8h63.3a3.79,3.79,0,0,0,3.7-3.5h0a3.31,3.31,0,0,0-3.3-3.5H252.4a3.79,3.79,0,0,0-3.7,3.5h0A3.25,3.25,0,0,0,252,301.8Z"
            transform="translate(0 -55)" fill="#407bff" opacity="0.3" style="isolation:isolate" />
        <path
            d="M263.1,316.1h51.3a3.79,3.79,0,0,0,3.7-3.5h0a3.31,3.31,0,0,0-3.3-3.5H263.5a3.79,3.79,0,0,0-3.7,3.5h0A3.31,3.31,0,0,0,263.1,316.1Z"
            transform="translate(0 -55)" fill="#407bff" opacity="0.3" style="isolation:isolate" />
        <path
            d="M360.1,186.1a1.92,1.92,0,0,1-1.2-.4l-10.8-7.4a2.08,2.08,0,1,1,2.4-3.4l9.2,6.3c3.4-4.1,12.9-15,20.9-18.6a2,2,0,0,1,1.7,3.7c-8.7,3.9-20.4,18.7-20.6,18.9A1.92,1.92,0,0,1,360.1,186.1Z"
            transform="translate(0 -55)" fill="#407bff" />
        <path
            d="M355.1,227.8a2,2,0,0,1-1.4-.6l-9.4-9a2.05,2.05,0,1,1,2.8-3l8,7.7c3.9-3.5,15-12.9,23.4-15.2a2,2,0,0,1,1.1,3.9c-9.1,2.5-22.9,15.4-23.1,15.6A1.64,1.64,0,0,1,355.1,227.8Z"
            transform="translate(0 -55)" fill="#407bff" />
        <path
            d="M337.6,141.7h3a6.21,6.21,0,0,0,6.2-6.1V130a.65.65,0,0,0-.6-.6h-8.5a.68.68,0,0,0-.7.7l-.1,10.9C337,141.5,337.2,141.7,337.6,141.7Z"
            transform="translate(0 -55)" opacity="0.4" style="isolation:isolate" />
        <path
            d="M291.6,119.4h51.1a5,5,0,0,1,5,5.8l-1.5,11.4a6.83,6.83,0,0,1-6.5,5.8H288.6a5,5,0,0,1-5-5.8l1.5-11.4A6.67,6.67,0,0,1,291.6,119.4Z"
            transform="translate(0 -55)" fill="#407bff" />
        <path
            d="M291.6,119.4h51.1a5,5,0,0,1,5,5.8l-1.5,11.4a6.83,6.83,0,0,1-6.5,5.8H288.6a5,5,0,0,1-5-5.8l1.5-11.4A6.67,6.67,0,0,1,291.6,119.4Z"
            transform="translate(0 -55)" fill="#fff" opacity="0.6" style="isolation:isolate" />
        <path
            d="M341.3,124.9h-23a1.5,1.5,0,0,1,0-3h23a1.47,1.47,0,0,1,1.5,1.5A1.54,1.54,0,0,1,341.3,124.9Z"
            transform="translate(0 -55)" fill="#fff" opacity="0.5" style="isolation:isolate" />
        <path
            d="M310.6,124.9h-2.4a1.5,1.5,0,0,1,0-3h2.4a1.47,1.47,0,0,1,1.5,1.5A1.42,1.42,0,0,1,310.6,124.9Z"
            transform="translate(0 -55)" fill="#fff" opacity="0.5" style="isolation:isolate" />
    </g>
    <g id="f69018dc-c6fd-4c75-ba9e-788535e9a31f" data-name="Character">
        <polygon points="169.5 291.7 179.3 293.5 202.7 183.8 188.2 181.1 169.5 291.7"
            fill="#407bff" />
        <polygon points="204.2 107.6 216 103.8 216.8 99.5 205.8 99.1 204.2 107.6" fill="#263238" />
        <polygon points="203.9 105.1 217.3 100.8 203.5 179.5 189 176.8 203.9 105.1"
            fill="#407bff" />
        <rect x="193.64" y="228.48" width="4.4" height="13.6"
            transform="translate(-71.97 328.56) rotate(-79.2)" fill="#263238" />
        <path d="M171.2,359.6c-.1.7.1,1.2.6,1.3s.9-.4,1.1-1-.1-1.2-.6-1.3S171.4,359,171.2,359.6Z"
            transform="translate(0 -55)" fill="#407bff" />
        <polygon points="170.6 304.7 173.5 305.3 179.3 293.5 169.5 291.7 170.6 304.7"
            fill="#263238" />
        <path
            d="M188.3,211.8a.75.75,0,0,1-.5-.1,1.29,1.29,0,0,1-.6-1.7c6.2-13.3,11.2-41,11.9-47.6a5.45,5.45,0,0,1,3.2-4.4l3.3-1.4a1.17,1.17,0,0,1,1.6.6,1.15,1.15,0,0,1-.7,1.6l-3.3,1.4a3,3,0,0,0-1.8,2.4c-.7,6.9-5.7,34.7-12.1,48.4C189.3,211.6,188.8,211.8,188.3,211.8Z"
            transform="translate(0 -55)" fill="#263238" />
        <path
            d="M142.3,158.8c-2.5,4.3-5,8.8-7.4,13.2-1.2,2.2-2.3,4.5-3.4,6.7s-2.1,4.5-3,6.8l-.2.4h0a.31.31,0,0,1-.1.2,2.79,2.79,0,0,0-.1,1,16.7,16.7,0,0,0,.4,2.9,53.38,53.38,0,0,0,2.2,6.8q1.35,3.45,3,6.9c1,2.3,2.2,4.6,3.3,6.9l-4.7,3.2a88.64,88.64,0,0,1-9.4-13.3,51.09,51.09,0,0,1-3.6-7.8,26.78,26.78,0,0,1-1.2-4.7,13.58,13.58,0,0,1-.1-2.9,11.14,11.14,0,0,1,.2-1.7,2.92,2.92,0,0,0,.2-.9l.2-.5a100.47,100.47,0,0,1,6.1-15.2,140.74,140.74,0,0,1,7.8-14.2Z"
            transform="translate(0 -55)" fill="#ffc3bd" />
        <path d="M136.4,209.3l4.5,3.5-6.8,5.6s-3.1-3-2.6-6.7Z" transform="translate(0 -55)"
            fill="#ffc3bd" />
        <polygon points="142.6 162.8 138.1 168.7 134 163.4 140.8 157.7 142.6 162.8"
            fill="#ffc3bd" />
        <path
            d="M168,117.1a1.07,1.07,0,0,0,.9,1c.4-.1.6-.6.5-1.2a1.07,1.07,0,0,0-.9-1C168.1,115.9,167.9,116.5,168,117.1Z"
            transform="translate(0 -55)" fill="#263238" />
        <path d="M168.5,118.2a24,24,0,0,0,3.9,4.6,3.62,3.62,0,0,1-2.8,1.1Z"
            transform="translate(0 -55)" fill="#ed847e" />
        <path
            d="M165.1,114.2c-.1,0-.2,0-.2-.1s-.2-.4,0-.5a3.58,3.58,0,0,1,3.1-1.2c.2,0,.3.2.3.4s-.2.3-.4.3h0a2.8,2.8,0,0,0-2.4,1A.76.76,0,0,1,165.1,114.2Z"
            transform="translate(0 -55)" fill="#263238" />
        <path
            d="M150.8,125.6c1.1,5.6,2.2,15.9-1.7,19.6,0,0,1.5,5.7,11.9,5.7,11.4,0,5.5-5.7,5.5-5.7-6.2-1.5-6.1-6.1-5-10.5Z"
            transform="translate(0 -55)" fill="#ffc3bd" />
        <path d="M146.9,145.7c-.8-2,1-8,2.8-8.6,2.1-.6,10-.3,14,1.4,2.8,2.8,3.6,8.7,3.6,8.7Z"
            transform="translate(0 -55)" fill="#263238" />
        <path
            d="M114.1,407.5a2.37,2.37,0,0,0,1.9-.1c.2-.1.3-.4.2-.8a.82.82,0,0,0-.5-.5c-1-.5-3.4.5-3.5.5s-.1.1-.1.2,0,.1.1.2A16.66,16.66,0,0,0,114.1,407.5Zm1.3-1.2c.1,0,.1,0,.2.1l.3.3a.4.4,0,0,1-.1.5c-.4.4-1.9,0-3-.4A6,6,0,0,1,115.4,406.3Z"
            transform="translate(0 -55)" fill="#407bff" />
        <path
            d="M112.3,406.9h0c1-.3,2.8-1.6,2.8-2.4,0-.2-.1-.4-.5-.6a.78.78,0,0,0-.8.1c-1,.5-1.7,2.6-1.7,2.7s0,.1.2.2Zm2.1-2.7h0c.3.1.3.2.3.3,0,.5-1.2,1.5-2.1,2a4.38,4.38,0,0,1,1.4-2.2A.76.76,0,0,1,114.4,404.2Z"
            transform="translate(0 -55)" fill="#407bff" />
        <path
            d="M169.4,408.8a3,3,0,0,0,2.3-.6.75.75,0,0,0,0-.8.68.68,0,0,0-.6-.4c-1.3-.3-4,1.2-4.1,1.2s-.1.1-.1.2a.1.1,0,0,0,.1.1A8.26,8.26,0,0,0,169.4,408.8Zm1.3-1.5h.4c.2,0,.3.1.4.3s.1.3,0,.4c-.4.5-2.3.5-3.7.3A8.28,8.28,0,0,1,170.7,407.3Z"
            transform="translate(0 -55)" fill="#407bff" />
        <path
            d="M167.1,408.6h0c1-.4,2.8-2.1,2.7-3,0-.2-.2-.5-.7-.5a1.69,1.69,0,0,0-1,.3c-1,.8-1.2,2.9-1.2,3s0,.1.1.2Zm1.9-3.1h.1c.3,0,.3.2.4.2.1.5-1.2,1.8-2.1,2.4a5,5,0,0,1,1-2.4A1.42,1.42,0,0,1,169,405.5Z"
            transform="translate(0 -55)" fill="#407bff" />
        <polygon points="158.7 353.4 166.4 353.4 167.1 335.7 159.5 335.7 158.7 353.4"
            fill="#ffc3bd" />
        <polygon points="103.4 349.9 111.1 351.5 116.5 335 108.9 333.3 103.4 349.9"
            fill="#ffc3bd" />
        <path
            d="M111.9,405.7l-8.4-1.8a.57.57,0,0,0-.7.4l-2.9,6.3a1.16,1.16,0,0,0,.8,1.6c2.9.6,4.4.7,8.1,1.5,2.3.5,7.4,1.7,10.6,2.4s4.2-2.3,3-2.9c-5.5-2.5-7.8-4.7-9.3-6.8A2.4,2.4,0,0,0,111.9,405.7Z"
            transform="translate(0 -55)" fill="#263238" />
        <path
            d="M166.3,407.5H158a.75.75,0,0,0-.7.5l-1.5,6.8a1.14,1.14,0,0,0,1.1,1.4c3-.1,7.4-.2,11.2-.2,4.4,0,2.7.2,7.9.2,3.1,0,4-3.2,2.7-3.5-6-1.3-5.3-1.5-10.5-4.6A4.24,4.24,0,0,0,166.3,407.5Z"
            transform="translate(0 -55)" fill="#263238" />
        <path
            d="M135.4,147c-7.2,1.6-13.1,20-13.1,20l14.4,11a31.15,31.15,0,0,0,7.6-14.2C146.8,154.2,142.7,145.3,135.4,147Z"
            transform="translate(0 -55)" fill="#263238" />
        <path
            d="M141.5,160.4c-3.9,3.9-5.2,10.9-5.5,17l.6.5a31.81,31.81,0,0,0,7.7-14.2c.1-.6.3-1.1.4-1.7Z"
            transform="translate(0 -55)" opacity="0.2" style="isolation:isolate" />
        <path
            d="M178.3,147.4s8.2,9.2.5,66.2h-41c-.3-6.3,3.7-37-2.4-66.6a104.7,104.7,0,0,1,13.7-1.7,144.21,144.21,0,0,1,17.4,0A71.12,71.12,0,0,1,178.3,147.4Z"
            transform="translate(0 -55)" fill="#263238" />
        <polygon points="167.1 335.7 166.7 344.8 159.1 344.8 159.5 335.7 167.1 335.7" opacity="0.2"
            style="isolation:isolate" />
        <polygon points="108.9 333.4 116.5 335 113.7 343.5 106 341.9 108.9 333.4" opacity="0.2"
            style="isolation:isolate" />
        <path
            d="M147.6,119.9c2,7.3,2.7,11.7,7.3,14.8,6.8,4.6,15.3-.7,15.6-8.5.2-7-3-17.8-10.9-19.3A10.42,10.42,0,0,0,147.6,119.9Z"
            transform="translate(0 -55)" fill="#ffc3bd" />
        <path
            d="M154.9,133.9h0a7.45,7.45,0,0,1-6.2-3.1c-2.3-3.2-5.5-8.8-5.9-15.2,2.9-3.1,13.9-5.1,18.8-4,4.1.9,3.5,12.5-.4,18.8A7.26,7.26,0,0,1,154.9,133.9Z"
            transform="translate(0 -55)" fill="#ffc3bd" />
        <path
            d="M154.9,133.9h0a7.45,7.45,0,0,1-6.2-3.1c-2.3-3.2-5.5-8.8-5.9-15.2,2.9-3.1,13.9-5.1,18.8-4,4.1.9,3.5,12.5-.4,18.8A7.26,7.26,0,0,1,154.9,133.9Z"
            transform="translate(0 -55)" fill="#263238" opacity="0.8" style="isolation:isolate" />
        <path
            d="M147.3,118.2a6.4,6.4,0,0,1-6-4.3c-.9-2.6.1-8.1,5.3-8.3s5.8-3.1,4.2-3.8c3.4.3,2.3,2.6,2.3,2.6.9.1,1.8-2.4,7-2.3s7.8-.9,7.1-2.1c2.5.5,1.8,3.5-.3,4.3,0,0,4.9,3.8,6.1,1.7.8,1.5-.8,3.3-7.1,2.5,2.5,3.5-3.4,2.7-5.9,4.3C157.4,114.6,150.7,118.4,147.3,118.2Z"
            transform="translate(0 -55)" fill="#263238" />
        <path
            d="M160.1,119.6a9,9,0,0,0,3.1,4.6c2,1.5,3.5,0,3.3-2.2-.1-2-1.3-5.2-3.5-5.9S159.5,117.4,160.1,119.6Z"
            transform="translate(0 -55)" fill="#ffc3bd" />
        <path
            d="M164.2,213.6s-8.7,58.5-13.5,80.5c-5.2,24-33.2,103.5-33.2,103.5l-13.7-3s19.6-64.8,24-98.3c3.4-25.8,10-82.6,10-82.6h26.4Z"
            transform="translate(0 -55)" fill="#263238" />
        <path d="M120.8,392.9c.1,0-2.6,5-2.6,5l-15.4-3.3,1.3-4.6Z" transform="translate(0 -55)"
            fill="#407bff" />
        <path
            d="M158.7,234.4c-10.1,2-9,39.5-7.8,58.7,2.9-13.6,7.1-39.9,10-58.5A5.18,5.18,0,0,0,158.7,234.4Z"
            transform="translate(0 -55)" opacity="0.3" style="isolation:isolate" />
        <path
            d="M178.7,213.6s1.1,57.3.2,80.6c-.9,24.3-9.4,103.9-9.4,103.9h-13s-.5-78.1-1.1-102c-.6-26-3.8-82.5-3.8-82.5Z"
            transform="translate(0 -55)" fill="#263238" />
        <path d="M172.1,392.9c.1,0-.7,5.4-.7,5.4H155.6l-.4-4.8Z" transform="translate(0 -55)"
            fill="#407bff" />
        <path
            d="M178.5,146.3c2,.8,3.9,2.3,4.5,7.3.6,4.8-.5,46.4-1.8,59.7a1.93,1.93,0,0,1-1.7,1.8c-8.2.4-33.6-3.1-42.1-1.6-1,.2-1.9-.9-1.8-1.9.7-13-.3-33.8-1.9-47.1-1-8.7-1-17.7,6.2-19.3C145.3,144.1,170.6,143.1,178.5,146.3Z"
            transform="translate(0 -55)" fill="#407bff" />
        <path
            d="M181.6,157.9c.5,2.2,1,4.6,1.5,6.9s1.1,4.6,1.8,6.8,1.3,4.5,2.1,6.6a30.85,30.85,0,0,0,2.6,5.8c.5.8,1,1.5,1.3,2l.4.4s0,.1.2.2a4.92,4.92,0,0,0,2,.3,16.9,16.9,0,0,0,3-.3,90.1,90.1,0,0,0,13.3-3.9l2.9,5a51.29,51.29,0,0,1-13.7,7.8,24.32,24.32,0,0,1-4.3,1.2,15.41,15.41,0,0,1-5.3.1,11.63,11.63,0,0,1-3.3-1.1,18,18,0,0,1-2.5-1.8,25.83,25.83,0,0,1-3.2-3.8,60.29,60.29,0,0,1-6.5-14.9c-.8-2.5-1.4-4.9-2-7.4s-1.1-4.9-1.6-7.6Z"
            transform="translate(0 -55)" fill="#ffc3bd" />
        <path
            d="M164.8,154.9c-6.2,12.5,8.6,26.7,8.6,26.7l16.5-8.6s-1.7-10.7-5.6-19.3C179.4,142.9,168.4,147.7,164.8,154.9Z"
            transform="translate(0 -55)" fill="#263238" />
        <path d="M208.1,183.2l5.6-3.7,2.3,8.4s-2.5,2.9-7.1-.3Z" transform="translate(0 -55)"
            fill="#ffc3bd" />
        <path
            d="M218.6,182.9l-.2,1.8a3.86,3.86,0,0,1-1.1,2.2l-1.2,1-2.3-8.4.7-.2A3.38,3.38,0,0,1,218.6,182.9Z"
            transform="translate(0 -55)" fill="#ffc3bd" />
    </g>
</svg>