<svg id="f8ffe7e3-c0c5-4b7b-b4a6-02c7dfbf235e" data-name="f359db4a-03c6-48a1-8787-6dcf4aa2894d" xmlns="http://www.w3.org/2000/svg" viewBox="0 0 485.49 298.19"><g id="b09f5926-b6c7-4c19-aa79-d8dffe33de93" data-name="f2d6caa9-b704-4ad6-b93c-cf6135ea5a97"><path d="M459.7,351.5c-3.7-9.4-6.4-19.4-9.4-30-2-7.1-5.3-15.1-12.3-17.3s-14.2,2.3-18.5,8.2-6.3,12.9-9.9,19.1c-6.5,11.3-18.1,16-27.7,6.1-13.7-14.2-19.8-33.5-28.5-50.8-6.3-12.5-11.6-27.2-19.5-38.8-12.1-17.6-28.7-32.7-50.7-32.7-14,2.1-26.3,14.5-34.6,30s-13.2,33.9-17.3,52.2c-7.5,33.4-13.1,67.5-18.6,101.6l278.1-3.2c-1.1,0-7.9-9.1-9.2-10.4C470.9,375.2,464.5,363.8,459.7,351.5Z" transform="translate(-7.4 -100.91)" fill="#dce6ef"/><path d="M406.9,367.4c-.5,10.8-12.3,29.7-23.1,29.2s-16.6-20.3-16-31.1,12.1-64.9,22.9-64.4S407.4,356.6,406.9,367.4Z" transform="translate(-7.4 -100.91)" fill="#6aa5fe"/><line x1="382.7" y1="207.19" x2="377.2" y2="294.79" fill="none" stroke="#1a55b5" stroke-linecap="round" stroke-linejoin="round" stroke-width="0.87"/><path d="M382.1,365.1a76.91,76.91,0,0,0-5.5,17c-.6,3-.9,6.2.4,9,1.5,3,4.8,4.7,8.1,5.3,8,1.3,16.1-3.6,20.8-10.2s6.8-14.8,8.6-22.7c1.5-6.2,2.9-12.6,5.7-18.4,1.2-2.5,8.2-12.1,4.9-14.6-4.5-3.5-17.6.3-25.9,9.4A97.77,97.77,0,0,0,382.1,365.1Z" transform="translate(-7.4 -100.91)" fill="#ffc957"/><path d="M385.1,396.4s9.7-37.8,33.1-59.4" transform="translate(-7.4 -100.91)" fill="none" stroke="#6aa5fe" stroke-linecap="round" stroke-linejoin="round" stroke-width="0.87"/><path d="M439,356.2a9.27,9.27,0,0,1-3.8,3.3c-1.7,1-3.6,1.8-5.4,2.7a64.56,64.56,0,0,0-6.9,3.6,19.94,19.94,0,0,0-4.2,3.4,55.54,55.54,0,0,1,6.7-11.4c3.4-4.4,6.9-6.6,10.4-6.6h.2a3.77,3.77,0,0,1,2.5.8C439.7,352.9,439.7,354.9,439,356.2Z" transform="translate(-7.4 -100.91)" fill="#1a55b5"/><path d="M442.9,380.7a10.28,10.28,0,0,1-4.8,1.4c-2,.1-4,.1-6,.1a66,66,0,0,0-7.7.3,21.9,21.9,0,0,0-5.3,1.2,50.12,50.12,0,0,1,10.9-7.4q7.5-3.75,12.3-1.5c.1,0,.1.1.2.1a3.71,3.71,0,0,1,1.9,1.8C445,378,444.1,379.8,442.9,380.7Z" transform="translate(-7.4 -100.91)" fill="#1a55b5"/><path d="M433.6,392.7a6.27,6.27,0,0,1-3-1.6,27.4,27.4,0,0,1-3-2.8c-1.3-1.2-2.6-2.4-4-3.5a11.22,11.22,0,0,0-3.2-1.8,35.84,35.84,0,0,1,8.9,1.4c3.7,1.1,5.9,2.8,6.8,5,0,.1,0,.1.1.2a2.3,2.3,0,0,1,.1,1.8A2.78,2.78,0,0,1,433.6,392.7Z" transform="translate(-7.4 -100.91)" fill="#1a55b5"/><path d="M407.3,396.6s.1-23.1,28.3-42.7" transform="translate(-7.4 -100.91)" fill="none" stroke="#2a294f" stroke-linecap="round" stroke-linejoin="round" stroke-width="0.78"/><path d="M407.3,396.6S416,378,439.5,378" transform="translate(-7.4 -100.91)" fill="none" stroke="#2a294f" stroke-linecap="round" stroke-linejoin="round" stroke-width="0.78"/><path d="M420.1,383.2s4.5-.3,14,6.8" transform="translate(-7.4 -100.91)" fill="none" stroke="#2a294f" stroke-linecap="round" stroke-linejoin="round" stroke-width="0.78"/><path d="M164.8,396.8c-6.5-24.7-13.1-49.3-20.8-73.2-4.3-13.5-9.1-26.9-15.7-37.7s-15.4-18.7-24.2-18.7c-13.6,2.6-22.3,16-28.1,30.9-3.8,9.7-5.6,21.5-8.3,31.8-3.7,14.2-5.6,29.6-12.7,42-4.9,8.7-12.5,6.5-17.6-1.3-2.8-4.3-4.8-9.4-8-13.4s-8.1-6.5-12.2-4-5.4,9-5.9,14.6c-.8,8.4-1.5,16.3-2.9,23.9-.3,1.7-.6,3.3-1,4.9H164.8Z" transform="translate(-7.4 -100.91)" fill="#dce6ef"/><path d="M106.5,362.8c-4.1-4.7-9.2-8.8-10.9-14.7-1.2-4.3-.3-8.9.2-13.4s.3-9.4-2.6-12.9c-2.4-2.8-6.1-4.1-9.8-4.8s-7.4-1.3-10.6-3.1c-5.2-3-4.2-8.1-7-12.5-3.1-5-10.5-11.4-16.7-8.1-6.6,3.5-5.6,14.2-1.2,18.9,2.9,3.1,6.7,6.1,7.1,10.4.6,6.4-6.7,12.2-4.7,18.3,1.5,4.5,7.2,6.1,10,9.9s2.2,9.1.6,13.6-4.2,8.5-5.2,13.1c-2.1,9.4,5.3,15.9,13.7,18,7.7,1.9,24.4,1,24.4,1,6-2.1,12.6-7.3,15.8-13a16.53,16.53,0,0,0,.9-14.4A19.3,19.3,0,0,0,106.5,362.8Z" transform="translate(-7.4 -100.91)" fill="#ffc957"/><path d="M56.6,303.4s28.5,44,31.6,92.9" transform="translate(-7.4 -100.91)" fill="none" stroke="#6aa5fe" stroke-linecap="round" stroke-linejoin="round"/><path d="M31.2,362.8a2.71,2.71,0,0,1,1.9-.6h.2c2.7,0,5.3,1.7,7.9,5a42.85,42.85,0,0,1,5.1,8.6,16.51,16.51,0,0,0-3.2-2.5c-1.7-1-3.5-1.9-5.2-2.7-1.4-.6-2.8-1.3-4.1-2a7.78,7.78,0,0,1-2.9-2.5A2.7,2.7,0,0,1,31.2,362.8Z" transform="translate(-7.4 -100.91)" fill="#6aa5fe"/><path d="M26.8,381.5a3,3,0,0,1,1.5-1.4c.1,0,.1-.1.2-.1q3.6-1.65,9.3,1.2a39.15,39.15,0,0,1,8.3,5.6,16.57,16.57,0,0,0-4-.9,58.06,58.06,0,0,0-5.9-.2c-1.5,0-3,0-4.6-.1a8.25,8.25,0,0,1-3.7-1C27,383.9,26.3,382.5,26.8,381.5Z" transform="translate(-7.4 -100.91)" fill="#6aa5fe"/><path d="M32.9,392.6a2.31,2.31,0,0,1,.1-1.4v-.1c.7-1.7,2.4-3,5.2-3.8a28.69,28.69,0,0,1,6.7-1.1,9.79,9.79,0,0,0-2.4,1.4,25.66,25.66,0,0,0-3,2.6c-.7.7-1.5,1.4-2.3,2.1a4.61,4.61,0,0,1-2.3,1.2A1.63,1.63,0,0,1,32.9,392.6Z" transform="translate(-7.4 -100.91)" fill="#6aa5fe"/><path d="M54.8,396.6s-.1-17.5-21.4-32.3" transform="translate(-7.4 -100.91)" fill="none" stroke="#2a294f" stroke-linecap="round" stroke-linejoin="round" stroke-width="0.78"/><path d="M54.8,396.6s-6.6-14-24.3-14" transform="translate(-7.4 -100.91)" fill="none" stroke="#2a294f" stroke-linecap="round" stroke-linejoin="round" stroke-width="0.78"/><path d="M45.1,386.5s-3.4-.3-10.6,5.2" transform="translate(-7.4 -100.91)" fill="none" stroke="#2a294f" stroke-linecap="round" stroke-linejoin="round" stroke-width="0.78"/><path d="M283.7,396.6H95.6a9.38,9.38,0,0,1-9.4-9.38V132a9.38,9.38,0,0,1,9.38-9.4H283.8a9.38,9.38,0,0,1,9.4,9.38V387.1a9.43,9.43,0,0,1-9.36,9.5Z" transform="translate(-7.4 -100.91)" fill="#6aa5fe"/><path d="M86.1,189.3V387.1a9.38,9.38,0,0,0,9.38,9.4H283.7a9.38,9.38,0,0,0,9.4-9.38v-39Z" transform="translate(-7.4 -100.91)" fill="#527ee9"/><path d="M277.3,384H102a3.91,3.91,0,0,1-3.9-3.9v-241a3.91,3.91,0,0,1,3.9-3.9H277.3a3.91,3.91,0,0,1,3.9,3.9v241A4,4,0,0,1,277.3,384Z" transform="translate(-7.4 -100.91)" fill="#f3f4f6"/><path d="M205.4,117.4v-.8a15.7,15.7,0,0,0-31.4,0v.8H150.9v24h77.7v-24Z" transform="translate(-7.4 -100.91)" fill="#1a55b5"/><polygon points="143.4 16.49 143.4 40.49 221.1 40.49 143.4 16.49" fill="#2c6bc6"/><circle cx="182.3" cy="15.66" r="8.8" fill="#527ee9"/><path d="M183.4,110.3a8.84,8.84,0,0,0,12.5,12.5Z" transform="translate(-7.4 -100.91)" fill="#6aa5fe"/><rect x="143.4" y="40.49" width="77.7" height="1.7" fill="#cde1f9"/><rect x="111.9" y="73.69" width="29.5" height="29.5" fill="none" stroke="#1a55b5" stroke-miterlimit="10"/><polyline points="120.5 89.89 129.5 96.99 147.8 79.29" fill="none" stroke="#f3f4f6" stroke-miterlimit="10" stroke-width="4"/><polyline points="118.5 87.89 127.5 94.99 145.8 77.29" fill="none" stroke="#ff746f" stroke-miterlimit="10" stroke-width="4"/><path d="M258.9,182.9h-96a1.11,1.11,0,0,1-1.1-1.1h0a1.11,1.11,0,0,1,1.1-1.1h96a1.11,1.11,0,0,1,1.1,1.1h0A1.11,1.11,0,0,1,258.9,182.9Z" transform="translate(-7.4 -100.91)" fill="#6aa5fe"/><path d="M258.9,187.9h-96a1.11,1.11,0,0,1-1.1-1.1h0a1.11,1.11,0,0,1,1.1-1.1h96a1.11,1.11,0,0,1,1.1,1.1h0A1.11,1.11,0,0,1,258.9,187.9Z" transform="translate(-7.4 -100.91)" fill="#6aa5fe"/><path d="M258.9,192.9h-96a1.11,1.11,0,0,1-1.1-1.1h0a1.11,1.11,0,0,1,1.1-1.1h96a1.11,1.11,0,0,1,1.1,1.1h0A1.11,1.11,0,0,1,258.9,192.9Z" transform="translate(-7.4 -100.91)" fill="#6aa5fe"/><path d="M258.9,197.9h-96a1.11,1.11,0,0,1-1.1-1.1h0a1.11,1.11,0,0,1,1.1-1.1h96a1.11,1.11,0,0,1,1.1,1.1h0A1.11,1.11,0,0,1,258.9,197.9Z" transform="translate(-7.4 -100.91)" fill="#6aa5fe"/><rect x="111.9" y="121.09" width="29.5" height="29.5" fill="none" stroke="#1a55b5" stroke-miterlimit="10"/><polyline points="120.5 137.29 129.5 144.39 147.8 126.79" fill="none" stroke="#f3f4f6" stroke-miterlimit="10" stroke-width="4"/><polyline points="118.5 135.29 127.5 142.39 145.8 124.79" fill="none" stroke="#ff746f" stroke-miterlimit="10" stroke-width="4"/><path d="M258.9,230.4h-96a1.11,1.11,0,0,1-1.1-1.1h0a1.11,1.11,0,0,1,1.1-1.1h96a1.11,1.11,0,0,1,1.1,1.1h0A1.11,1.11,0,0,1,258.9,230.4Z" transform="translate(-7.4 -100.91)" fill="#6aa5fe"/><path d="M258.9,235.4h-96a1.11,1.11,0,0,1-1.1-1.1h0a1.11,1.11,0,0,1,1.1-1.1h96a1.11,1.11,0,0,1,1.1,1.1h0A1.11,1.11,0,0,1,258.9,235.4Z" transform="translate(-7.4 -100.91)" fill="#6aa5fe"/><path d="M258.9,240.4h-96a1.11,1.11,0,0,1-1.1-1.1h0a1.11,1.11,0,0,1,1.1-1.1h96a1.11,1.11,0,0,1,1.1,1.1h0A1.11,1.11,0,0,1,258.9,240.4Z" transform="translate(-7.4 -100.91)" fill="#6aa5fe"/><path d="M258.9,245.4h-96a1.11,1.11,0,0,1-1.1-1.1h0a1.11,1.11,0,0,1,1.1-1.1h96a1.11,1.11,0,0,1,1.1,1.1h0A1.11,1.11,0,0,1,258.9,245.4Z" transform="translate(-7.4 -100.91)" fill="#6aa5fe"/><rect x="111.9" y="168.49" width="29.5" height="29.5" fill="none" stroke="#1a55b5" stroke-miterlimit="10"/><polyline points="120.5 184.79 129.5 191.79 147.8 174.19" fill="none" stroke="#f3f4f6" stroke-miterlimit="10" stroke-width="4"/><polyline points="118.5 182.79 127.5 189.79 145.8 172.19" fill="none" stroke="#ff746f" stroke-miterlimit="10" stroke-width="4"/><path d="M258.9,277.8h-96a1.11,1.11,0,0,1-1.1-1.1h0a1.11,1.11,0,0,1,1.1-1.1h96a1.11,1.11,0,0,1,1.1,1.1h0A1.11,1.11,0,0,1,258.9,277.8Z" transform="translate(-7.4 -100.91)" fill="#6aa5fe"/><path d="M258.9,282.8h-96a1.11,1.11,0,0,1-1.1-1.1h0a1.11,1.11,0,0,1,1.1-1.1h96a1.11,1.11,0,0,1,1.1,1.1h0A1.11,1.11,0,0,1,258.9,282.8Z" transform="translate(-7.4 -100.91)" fill="#6aa5fe"/><path d="M258.9,287.8h-96a1.11,1.11,0,0,1-1.1-1.1h0a1.11,1.11,0,0,1,1.1-1.1h96a1.11,1.11,0,0,1,1.1,1.1h0A1.11,1.11,0,0,1,258.9,287.8Z" transform="translate(-7.4 -100.91)" fill="#6aa5fe"/><path d="M258.9,292.8h-96a1.11,1.11,0,0,1-1.1-1.1h0a1.11,1.11,0,0,1,1.1-1.1h96a1.11,1.11,0,0,1,1.1,1.1h0A1.11,1.11,0,0,1,258.9,292.8Z" transform="translate(-7.4 -100.91)" fill="#6aa5fe"/><rect x="111.9" y="215.89" width="29.5" height="29.5" fill="none" stroke="#1a55b5" stroke-miterlimit="10"/><polyline points="120.5 232.19 129.5 239.19 147.8 221.59" fill="none" stroke="#f3f4f6" stroke-miterlimit="10" stroke-width="4"/><polyline points="118.5 230.19 127.5 237.19 145.8 219.59" fill="none" stroke="#ff746f" stroke-miterlimit="10" stroke-width="4"/><path d="M258.9,325.2h-96a1.11,1.11,0,0,1-1.1-1.1h0a1.11,1.11,0,0,1,1.1-1.1h96a1.11,1.11,0,0,1,1.1,1.1h0A1.11,1.11,0,0,1,258.9,325.2Z" transform="translate(-7.4 -100.91)" fill="#6aa5fe"/><path d="M258.9,330.2h-96a1.11,1.11,0,0,1-1.1-1.1h0a1.11,1.11,0,0,1,1.1-1.1h96a1.11,1.11,0,0,1,1.1,1.1h0A1.11,1.11,0,0,1,258.9,330.2Z" transform="translate(-7.4 -100.91)" fill="#6aa5fe"/><path d="M258.9,335.2h-96a1.11,1.11,0,0,1-1.1-1.1h0a1.11,1.11,0,0,1,1.1-1.1h96a1.11,1.11,0,0,1,1.1,1.1h0A1.11,1.11,0,0,1,258.9,335.2Z" transform="translate(-7.4 -100.91)" fill="#6aa5fe"/><path d="M258.9,340.2h-96a1.11,1.11,0,0,1-1.1-1.1h0a1.11,1.11,0,0,1,1.1-1.1h96a1.11,1.11,0,0,1,1.1,1.1h0A1.11,1.11,0,0,1,258.9,340.2Z" transform="translate(-7.4 -100.91)" fill="#6aa5fe"/><line x1="1" y1="295.69" x2="485.1" y2="295.69" fill="none" stroke="#2a294f" stroke-linecap="round" stroke-linejoin="round" stroke-width="0.78"/><rect x="306.1" y="286.79" width="4.6" height="5.6" fill="#ff746f"/><polygon points="306.1 291.09 308.5 291.79 310.7 291.09 312.7 295.69 294.2 295.69 301.2 293.39 306.1 291.09" fill="#2a294f"/><polygon points="353.9 292.39 358.5 292.39 356.8 286.79 352.2 286.79 353.9 292.39" fill="#ff746f"/><polygon points="358.1 291.09 355.7 291.79 353.5 291.09 351.5 295.69 369.9 295.69 363 293.39 358.1 291.09" fill="#2a294f"/><path d="M303.2,197.6c-.6.5-6.2,3.8-6.2,3.8l-4-5.1,1.2-5.8,8.6.5,1.5,4.3C304.6,196.4,304,197,303.2,197.6Z" transform="translate(-7.4 -100.91)" fill="#fe9280"/><path d="M302.8,191l1.3,3.8-4,1.6a4,4,0,0,1-2.4.2,3.76,3.76,0,0,1-2.7-3.9l.3-2.1Z" transform="translate(-7.4 -100.91)" fill="#e86767"/><path d="M300.8,196.1l3.4.5,1.9-3.2a1.19,1.19,0,0,0-.32-1.65l-.08-.05h0a1.19,1.19,0,0,0-1.65.32l-.05.08Z" transform="translate(-7.4 -100.91)" fill="#ff746f"/><polygon points="287.3 109.09 280.2 110.79 277.7 131.29 285.9 131.69 287.3 109.09" fill="#fff"/><path d="M391.2,226.5l-12.4-1.6,2.8-22.5L394,204a11.27,11.27,0,0,1,9.81,12.55v0h0A11.41,11.41,0,0,1,391.2,226.5Z" transform="translate(-7.4 -100.91)" fill="#fe9280"/><path d="M391.8,221.3l-12.4-1.6-.6,5.1,12.4,1.6A11.19,11.19,0,0,0,403.8,214,11.13,11.13,0,0,1,391.8,221.3Z" transform="translate(-7.4 -100.91)" fill="#777470" opacity="0.2" style="isolation:isolate"/><polygon points="369.9 123.79 238.8 106.89 241.6 84.39 372.7 101.29 369.9 123.79" fill="#ffc957"/><polygon points="215.5 92.59 238.8 106.89 241.6 84.39 215.5 92.59" fill="#fff4dd"/><polygon points="215.5 92.59 238.8 106.89 239.5 101.39 215.5 92.59" fill="#777470" opacity="0.2" style="isolation:isolate"/><polygon points="223.3 90.09 215.5 92.59 222.4 96.79 223.3 90.09" fill="#2a294f"/><rect x="372.85" y="208.64" width="22.6" height="10.9" transform="translate(116.39 467.6) rotate(-82.83)" fill="#d3eaf5"/><rect x="375.34" y="212.73" width="24.6" height="3.7" transform="translate(118.96 471.49) rotate(-82.83)" fill="#d3eaf5"/><polygon points="377 124.69 238.8 106.89 239.5 101.39 377.7 119.19 377 124.69" fill="#777470" opacity="0.2" style="isolation:isolate"/><polygon points="379.2 107.69 240.9 89.89 241.6 84.39 379.9 102.19 379.2 107.69" fill="#777470" opacity="0.05" style="isolation:isolate"/><rect x="382.89" y="221.19" width="7.5" height="3.7" transform="translate(109.68 477.91) rotate(-82.83)" fill="#777470" opacity="0.15" style="isolation:isolate"/><path d="M342.3,280.4l1.8-4.8,6.2-.5a2.07,2.07,0,0,1,2.3,1.5h0a1.91,1.91,0,0,1-1.82,2h-.08Z" transform="translate(-7.4 -100.91)" fill="#e86767"/><path d="M339.1,275.7l3.2,4.8,6.1-1.3L341.5,269l-1.3.9A4.19,4.19,0,0,0,339.1,275.7Z" transform="translate(-7.4 -100.91)" fill="#ff746f"/><polygon points="336.7 173.19 357.5 151.39 346.6 148.79 334.2 168.09 336.7 173.19" fill="#fff"/><path d="M356.9,251.4a4.74,4.74,0,1,0,2.3-6.3,4.75,4.75,0,0,0-2.3,6.3Z" transform="translate(-7.4 -100.91)" fill="#fff"/><path d="M358.5,253.3l6.4-6.8-22.4-26.6a5.3,5.3,0,0,0-7.4-1.12,5.88,5.88,0,0,0-.6.52h0c-2.3,2.3-2.1,10.3.5,12.3Z" transform="translate(-7.4 -100.91)" fill="#fff"/><rect x="319.02" y="208.13" width="14.65" height="9.23" transform="translate(80.84 420.17) rotate(-85.43)" fill="#ff746f"/><path d="M288.8,229.1a4.16,4.16,0,1,0,4.4,3.9h0A4.28,4.28,0,0,0,288.8,229.1Z" transform="translate(-7.4 -100.91)" fill="#fff"/><path d="M286.1,229.7l4.2,7.5,25.6-5.8c3.1-.8,4.8-8.4,3.6-11.4h0a5.33,5.33,0,0,0-6.95-2.92,5.59,5.59,0,0,0-.65.32Z" transform="translate(-7.4 -100.91)" fill="#fff"/><path d="M339.1,271.9l2.8-48.8a4.53,4.53,0,0,0-3.28-5.5,4.76,4.76,0,0,0-.52-.1l-22.9-.8a4.5,4.5,0,0,0-5.06,3.86,4.9,4.9,0,0,0,0,.54l-4.7,59.3Z" transform="translate(-7.4 -100.91)" fill="#fff"/><polygon points="309.9 170.99 315.1 187.49 312.8 289.29 303.4 289.29 298.1 179.49 298.8 170.99 309.9 170.99" fill="#1a55b5"/><polygon points="309.9 170.99 315 191.19 318.7 191.19 351.9 289.29 359.6 289.29 336.2 184.39 331.7 170.99 309.9 170.99" fill="#527ee9"/><path d="M294.1,189.6l-.2.9a3.53,3.53,0,0,0,2.9,4.08l.1,0,1.5.2a3.53,3.53,0,0,0,4.08-2.9.36.36,0,0,0,0-.1l.2-.9Z" transform="translate(-7.4 -100.91)" fill="#ff746f"/><polygon points="313.6 115.99 320.3 116.29 317.6 120.39 317.6 152.79 313.6 161.09 310 151.09 315 120.09 313.6 115.99" fill="#1a55b5"/><path d="M339.2,196a10.66,10.66,0,0,0-2.4-6,10,10,0,0,0-5-3.3,6.67,6.67,0,0,0-2.8-.4,6.33,6.33,0,0,1-3.6-.3c-1.6-.7-2.8-2.1-4.2-3a3.77,3.77,0,0,0-1.1-.5h0a5.61,5.61,0,0,0-5,.6,6.08,6.08,0,0,0-2.4,4.5,8.84,8.84,0,0,0,1.2,5,10.61,10.61,0,0,0,3.4,3.3,4.07,4.07,0,0,0-.1,1.1,11,11,0,1,0,22-1Zm-23-2.1a13.68,13.68,0,0,1-1.4-1.9,8,8,0,0,1-1.4-4.5,6,6,0,0,1,2-4.2,4.81,4.81,0,0,1,1.6-.8,2.3,2.3,0,0,0-.8.5,5.75,5.75,0,0,0-1.8,4.1,9.72,9.72,0,0,0,3.1,7.9v.1A7,7,0,0,1,316.2,193.9Z" transform="translate(-7.4 -100.91)" fill="#1a55b5"/><path d="M334.1,202.7a2.08,2.08,0,1,0,2.4-1.7h0A2.12,2.12,0,0,0,334.1,202.7Z" transform="translate(-7.4 -100.91)" fill="#ff746f"/><path d="M325.1,191a7.47,7.47,0,0,0-6.8,4l-.3,1.4-.2,1.3v.2h0l-.6,3.6a9.27,9.27,0,0,0,7.2,10.7A9.11,9.11,0,0,0,335,204.88v-.08l.7-4.4h0C335.8,200.4,337.2,191.8,325.1,191Z" transform="translate(-7.4 -100.91)" fill="#ff746f"/><path d="M326.1,202.6a14.7,14.7,0,0,0-4.5-.8,1.14,1.14,0,0,0-.5,1.4,2.17,2.17,0,0,0,.9,1.2,3.47,3.47,0,0,0,3.4.3,2.18,2.18,0,0,0,1-.9A.93.93,0,0,0,326.1,202.6Z" transform="translate(-7.4 -100.91)" fill="#fff"/><path d="M327.1,191.2a16.18,16.18,0,0,1,3.6,1,7.25,7.25,0,0,1,2.4,1.4c2.3,2,.2,6.2-.5,8.4-.2.5-.4,1.2-.1,1.6a1.24,1.24,0,0,0,1.7,0,4.92,4.92,0,0,0,1-1.5c.3-.5.8-1.1,1.4-1.1l-.4-10c0-.1-6.3-.2-6.8-.2A6.19,6.19,0,0,0,327.1,191.2Z" transform="translate(-7.4 -100.91)" fill="#1a55b5"/></g></svg>