<svg xmlns="http://www.w3.org/2000/svg" xmlns:xlink="http://www.w3.org/1999/xlink" viewBox="0 0 393.48 397.6"><defs><linearGradient id="a50d4614-c8f5-463a-adc3-703927d02816" x1="387.54" y1="397.33" x2="-160.66" y2="375.23" gradientUnits="userSpaceOnUse"><stop offset="0" stop-color="#a6a6e7"/><stop offset="1" stop-color="#eeefff"/></linearGradient><linearGradient id="a4f7a7b7-7d25-4a0b-bb03-4386cb53cd35" x1="307.62" y1="432.87" x2="181.21" y2="297.9" gradientUnits="userSpaceOnUse"><stop offset="0" stop-color="#e8edfe"/><stop offset="1" stop-color="#eef4ff"/></linearGradient><radialGradient id="ee989d2b-69ec-4fd2-bb94-9d8ae7caba30" cx="171.82" cy="272.65" r="349.32" gradientUnits="userSpaceOnUse"><stop offset="0" stop-color="#a6a6e7"/><stop offset="1" stop-color="#eeefff" stop-opacity="0"/></radialGradient><radialGradient id="fc2f5332-61b4-4bed-8ceb-84862d464202" cx="171.82" cy="272.65" r="349.32" xlink:href="#ee989d2b-69ec-4fd2-bb94-9d8ae7caba30"/><radialGradient id="b3082803-89e9-4e93-b42e-bf3ead82a445" cx="171.82" cy="272.65" r="349.32" xlink:href="#ee989d2b-69ec-4fd2-bb94-9d8ae7caba30"/><radialGradient id="ebb8724f-d01c-4cea-9c70-d7c7c97194ff" cx="171.82" cy="272.65" r="349.32" xlink:href="#ee989d2b-69ec-4fd2-bb94-9d8ae7caba30"/><radialGradient id="a37ad34e-22fb-4bb6-8fab-c14181427fc7" cx="171.82" cy="272.65" r="349.32" xlink:href="#ee989d2b-69ec-4fd2-bb94-9d8ae7caba30"/><radialGradient id="b1a4d396-ecf7-4769-847c-df278e47e407" cx="171.82" cy="272.65" r="349.32" xlink:href="#ee989d2b-69ec-4fd2-bb94-9d8ae7caba30"/><radialGradient id="eeb7309d-a097-45c1-81fc-5c374ab934c3" cx="171.82" cy="272.65" r="349.32" xlink:href="#ee989d2b-69ec-4fd2-bb94-9d8ae7caba30"/><radialGradient id="a8b2ff7b-ba60-42fd-b08b-f40bcf18e567" cx="171.82" cy="272.65" r="349.32" xlink:href="#ee989d2b-69ec-4fd2-bb94-9d8ae7caba30"/><radialGradient id="ba02cfa5-580f-458d-9844-50ad7d6fc781" cx="171.82" cy="272.65" r="349.32" xlink:href="#ee989d2b-69ec-4fd2-bb94-9d8ae7caba30"/><radialGradient id="b55c84cf-5e84-47e3-8ec4-0d5565782d09" cx="171.82" cy="272.65" r="349.32" xlink:href="#ee989d2b-69ec-4fd2-bb94-9d8ae7caba30"/><radialGradient id="ac377832-4e3d-49a5-b48a-6e69e8b2c240" cx="171.82" cy="272.65" r="349.32" xlink:href="#ee989d2b-69ec-4fd2-bb94-9d8ae7caba30"/><radialGradient id="eb82bb76-271e-4c74-9bcb-82b6e8a054f2" cx="171.82" cy="272.65" r="349.32" xlink:href="#ee989d2b-69ec-4fd2-bb94-9d8ae7caba30"/><radialGradient id="a3821bf5-4050-4ea3-aac6-956c6d2dbeca" cx="171.82" cy="272.65" r="349.32" xlink:href="#ee989d2b-69ec-4fd2-bb94-9d8ae7caba30"/><radialGradient id="b1ce8e35-a5a9-473b-b1d8-1dc017ddcc3e" cx="171.82" cy="272.65" r="349.32" xlink:href="#ee989d2b-69ec-4fd2-bb94-9d8ae7caba30"/><radialGradient id="e5a9b106-aeff-45ca-9c68-cfd0e5875aa9" cx="171.82" cy="272.65" r="349.32" xlink:href="#ee989d2b-69ec-4fd2-bb94-9d8ae7caba30"/><radialGradient id="a565a57e-3601-4475-a3eb-889516dcf292" cx="171.82" cy="272.65" r="349.32" xlink:href="#ee989d2b-69ec-4fd2-bb94-9d8ae7caba30"/><radialGradient id="a8139fe3-feff-4018-a1e9-d64463f90f4a" cx="171.82" cy="272.65" r="349.32" xlink:href="#ee989d2b-69ec-4fd2-bb94-9d8ae7caba30"/><radialGradient id="ead50d86-cf00-48a0-9b5e-c5433ce4de9e" cx="171.82" cy="272.65" r="349.32" xlink:href="#ee989d2b-69ec-4fd2-bb94-9d8ae7caba30"/><radialGradient id="bb419507-f354-4d87-9aa6-2f099d1b337e" cx="171.82" cy="272.65" r="349.32" xlink:href="#ee989d2b-69ec-4fd2-bb94-9d8ae7caba30"/><radialGradient id="af0e96fa-22a0-4654-b623-4ab13f6ef373" cx="171.82" cy="272.65" r="349.32" xlink:href="#ee989d2b-69ec-4fd2-bb94-9d8ae7caba30"/><radialGradient id="e5d2dd78-d42d-4abd-a21a-778fd0033073" cx="171.82" cy="272.65" r="349.32" xlink:href="#ee989d2b-69ec-4fd2-bb94-9d8ae7caba30"/><radialGradient id="fae3f519-0bf1-4ce5-907a-f4ceff478dbf" cx="171.82" cy="272.65" r="349.32" xlink:href="#ee989d2b-69ec-4fd2-bb94-9d8ae7caba30"/><radialGradient id="ef39eeb0-30d7-4add-a23d-9d4fed7fae69" cx="171.82" cy="272.65" r="349.32" xlink:href="#ee989d2b-69ec-4fd2-bb94-9d8ae7caba30"/><radialGradient id="a2f3fca8-e162-4a51-b037-2d8b08f98b28" cx="171.82" cy="272.65" r="349.32" xlink:href="#ee989d2b-69ec-4fd2-bb94-9d8ae7caba30"/><radialGradient id="b8a95866-a0ed-4524-bb92-85f67d339aa2" cx="171.82" cy="272.65" r="349.32" xlink:href="#ee989d2b-69ec-4fd2-bb94-9d8ae7caba30"/><radialGradient id="a52af34f-9ee1-4787-ba4a-b1fdcfd7462a" cx="171.82" cy="272.65" r="349.32" xlink:href="#ee989d2b-69ec-4fd2-bb94-9d8ae7caba30"/><radialGradient id="ebb347c1-3c39-4376-919b-fdea67423b3f" cx="171.82" cy="272.65" r="349.32" xlink:href="#ee989d2b-69ec-4fd2-bb94-9d8ae7caba30"/><radialGradient id="a5c76785-9988-4099-8241-791e709ec914" cx="171.82" cy="272.65" r="349.32" xlink:href="#ee989d2b-69ec-4fd2-bb94-9d8ae7caba30"/><radialGradient id="e3fc23ac-504a-47fc-ae89-dab190a21a9a" cx="171.82" cy="272.65" r="349.32" xlink:href="#ee989d2b-69ec-4fd2-bb94-9d8ae7caba30"/><radialGradient id="a6780cb8-6503-4dd3-adb5-1cddaec104f6" cx="171.82" cy="272.65" r="349.32" xlink:href="#ee989d2b-69ec-4fd2-bb94-9d8ae7caba30"/><radialGradient id="b850351a-9d79-4704-b29f-039461c3a0f0" cx="171.82" cy="272.65" r="349.32" xlink:href="#ee989d2b-69ec-4fd2-bb94-9d8ae7caba30"/><radialGradient id="b66235d1-2953-4dd6-81b3-30aa8fe17c6c" cx="171.82" cy="272.65" r="349.32" xlink:href="#ee989d2b-69ec-4fd2-bb94-9d8ae7caba30"/><radialGradient id="bd4a7826-a921-4ec6-89ab-4e5e10062529" cx="171.82" cy="272.65" r="349.32" xlink:href="#ee989d2b-69ec-4fd2-bb94-9d8ae7caba30"/><radialGradient id="aeedd5c3-a174-41bd-bcc1-fb9746a2f061" cx="171.82" cy="272.65" r="349.32" xlink:href="#ee989d2b-69ec-4fd2-bb94-9d8ae7caba30"/><radialGradient id="e5734baf-2424-46de-b373-11e822c86339" cx="171.82" cy="272.65" r="349.32" xlink:href="#ee989d2b-69ec-4fd2-bb94-9d8ae7caba30"/><radialGradient id="bac94f07-43db-4b87-9deb-34a72e3a4655" cx="171.82" cy="272.65" r="349.32" xlink:href="#ee989d2b-69ec-4fd2-bb94-9d8ae7caba30"/><radialGradient id="b1d4ea92-74fe-42d4-bc9d-b1d808cdd014" cx="171.82" cy="272.65" r="349.32" xlink:href="#ee989d2b-69ec-4fd2-bb94-9d8ae7caba30"/><radialGradient id="e64f4edf-bf6b-4d7b-9279-9b215b8faffc" cx="171.82" cy="272.65" r="349.32" xlink:href="#ee989d2b-69ec-4fd2-bb94-9d8ae7caba30"/><radialGradient id="b5c6ecaf-9037-40eb-b5e4-b466c57d88f0" cx="171.82" cy="272.65" r="349.32" xlink:href="#ee989d2b-69ec-4fd2-bb94-9d8ae7caba30"/><radialGradient id="ac24bcae-3d21-4337-861e-2b3a5684f47b" cx="171.82" cy="272.65" r="349.32" xlink:href="#ee989d2b-69ec-4fd2-bb94-9d8ae7caba30"/><radialGradient id="bb9f40b2-f44d-436d-9088-0feda36790fc" cx="171.82" cy="272.65" r="349.32" xlink:href="#ee989d2b-69ec-4fd2-bb94-9d8ae7caba30"/><radialGradient id="b297cf6f-1215-4d7b-aa8f-8cbc136435b0" cx="171.82" cy="272.65" r="349.32" xlink:href="#ee989d2b-69ec-4fd2-bb94-9d8ae7caba30"/><radialGradient id="a954856e-5997-40fa-97ee-4be4273e6949" cx="171.82" cy="272.65" r="349.32" xlink:href="#ee989d2b-69ec-4fd2-bb94-9d8ae7caba30"/><radialGradient id="ae54b3c4-7f2b-4e8e-9a07-05791a1ae144" cx="171.82" cy="272.65" r="349.32" xlink:href="#ee989d2b-69ec-4fd2-bb94-9d8ae7caba30"/><radialGradient id="a39fa6ef-b134-46f4-95cd-18b9c545782c" cx="225.4" cy="342.86" r="349.32" xlink:href="#ee989d2b-69ec-4fd2-bb94-9d8ae7caba30"/><radialGradient id="b7cf113d-793c-46a5-add0-17ed20a7b8e5" cx="225.4" cy="342.86" r="349.32" xlink:href="#ee989d2b-69ec-4fd2-bb94-9d8ae7caba30"/><radialGradient id="b700dc3c-fdc7-429d-961a-01129aa5cc64" cx="225.4" cy="342.86" r="349.32" xlink:href="#ee989d2b-69ec-4fd2-bb94-9d8ae7caba30"/><radialGradient id="ebda49d4-eff6-4a5c-8b53-01c74999a9db" cx="225.4" cy="342.86" r="349.32" xlink:href="#ee989d2b-69ec-4fd2-bb94-9d8ae7caba30"/><radialGradient id="b8d70234-6599-413b-b916-400a0cd711ea" cx="225.4" cy="342.86" r="349.32" xlink:href="#ee989d2b-69ec-4fd2-bb94-9d8ae7caba30"/><radialGradient id="b374deb1-3cc3-4c12-9968-f7cdfc2323c4" cx="225.4" cy="342.86" r="349.32" xlink:href="#ee989d2b-69ec-4fd2-bb94-9d8ae7caba30"/><radialGradient id="e903b790-8a81-4a37-b55a-9edfbdc73849" cx="225.4" cy="342.86" r="349.32" xlink:href="#ee989d2b-69ec-4fd2-bb94-9d8ae7caba30"/><radialGradient id="b906b9b4-bc6c-437a-b76c-2b873c42b3c0" cx="225.4" cy="342.86" r="349.32" xlink:href="#ee989d2b-69ec-4fd2-bb94-9d8ae7caba30"/><radialGradient id="fafcba83-e744-4df7-98ad-90c7df0f6a02" cx="225.4" cy="342.86" r="349.32" xlink:href="#ee989d2b-69ec-4fd2-bb94-9d8ae7caba30"/><radialGradient id="fe6d443a-a12b-4946-a04a-a84920e86568" cx="225.4" cy="342.86" r="349.32" xlink:href="#ee989d2b-69ec-4fd2-bb94-9d8ae7caba30"/><radialGradient id="f2acd339-d39e-4ea0-b72d-f81f33178536" cx="225.4" cy="342.86" r="349.32" xlink:href="#ee989d2b-69ec-4fd2-bb94-9d8ae7caba30"/><radialGradient id="ad0e7fdf-9a01-4aa4-be31-80e018034cf9" cx="225.4" cy="342.86" r="349.32" xlink:href="#ee989d2b-69ec-4fd2-bb94-9d8ae7caba30"/><radialGradient id="ef2cc9bc-b255-49ba-8b8d-d8aa706927dc" cx="225.4" cy="342.86" r="349.32" xlink:href="#ee989d2b-69ec-4fd2-bb94-9d8ae7caba30"/><radialGradient id="a6896453-4215-473e-9bed-2dc32b8ae2c1" cx="225.4" cy="342.86" r="349.32" xlink:href="#ee989d2b-69ec-4fd2-bb94-9d8ae7caba30"/><radialGradient id="a2f24c0d-caba-43e6-a1c7-7f5b05a8767c" cx="225.4" cy="342.86" r="349.32" xlink:href="#ee989d2b-69ec-4fd2-bb94-9d8ae7caba30"/><radialGradient id="ac34903e-f438-44d0-8504-1766c0cb77df" cx="225.4" cy="342.86" r="349.32" xlink:href="#ee989d2b-69ec-4fd2-bb94-9d8ae7caba30"/><radialGradient id="a11f293a-e751-4161-8fd6-b26e6ee5d1a3" cx="225.4" cy="342.86" r="349.32" xlink:href="#ee989d2b-69ec-4fd2-bb94-9d8ae7caba30"/><radialGradient id="ba0e160b-a370-4cf2-9aeb-95f828b86b29" cx="225.4" cy="342.86" r="349.32" xlink:href="#ee989d2b-69ec-4fd2-bb94-9d8ae7caba30"/><radialGradient id="f0b22ba8-5455-4eca-b5f5-133f486c8b79" cx="225.4" cy="342.86" r="349.32" xlink:href="#ee989d2b-69ec-4fd2-bb94-9d8ae7caba30"/><radialGradient id="bb8889c4-e802-402c-8706-e80d1a3c46e4" cx="225.4" cy="342.86" r="349.32" xlink:href="#ee989d2b-69ec-4fd2-bb94-9d8ae7caba30"/><radialGradient id="b17389c8-e5bf-4773-b154-574623c90658" cx="225.4" cy="342.86" r="349.32" gradientTransform="translate(471.88 160.19) rotate(89.84)" xlink:href="#ee989d2b-69ec-4fd2-bb94-9d8ae7caba30"/><radialGradient id="a5b00e25-4508-4f3d-bd78-069a577f71c4" cx="225.4" cy="342.86" r="349.32" xlink:href="#ee989d2b-69ec-4fd2-bb94-9d8ae7caba30"/><radialGradient id="a723bcd5-e7d0-45c0-8609-7abb0af3ac26" cx="225.4" cy="342.86" r="349.32" xlink:href="#ee989d2b-69ec-4fd2-bb94-9d8ae7caba30"/><radialGradient id="a3ba9e77-0879-4bf6-964f-37e1ab3b5c5b" cx="225.4" cy="342.86" r="349.32" xlink:href="#ee989d2b-69ec-4fd2-bb94-9d8ae7caba30"/><radialGradient id="b53f5969-66a3-4553-badb-1601cafd2417" cx="225.4" cy="342.86" r="349.32" xlink:href="#ee989d2b-69ec-4fd2-bb94-9d8ae7caba30"/><radialGradient id="e05d8a1d-0b90-4e74-8083-df21fd0537fa" cx="225.4" cy="342.86" r="349.32" xlink:href="#ee989d2b-69ec-4fd2-bb94-9d8ae7caba30"/><radialGradient id="a3e3325b-021e-4939-b1e7-fb9877c7e669" cx="225.4" cy="342.86" r="349.32" xlink:href="#ee989d2b-69ec-4fd2-bb94-9d8ae7caba30"/><radialGradient id="a1587728-ea77-4860-abf0-dbb6f32a97f1" cx="225.4" cy="342.86" r="349.32" xlink:href="#ee989d2b-69ec-4fd2-bb94-9d8ae7caba30"/><linearGradient id="a66eacc0-8e00-4161-aee2-b7ad72a0d65f" x1="287.14" y1="200.23" x2="280.1" y2="192.03" gradientUnits="userSpaceOnUse"><stop offset="0" stop-color="#ff8587"/><stop offset="1" stop-color="#ffaeae"/></linearGradient><linearGradient id="b05a7021-0f3e-45bd-8809-25a0180aaadf" x1="156.91" y1="163.89" x2="165.71" y2="163.89" gradientUnits="userSpaceOnUse"><stop offset="0" stop-color="#d5e6f9"/><stop offset="1" stop-color="#eeefff"/></linearGradient><linearGradient id="a2d13c06-b1ab-4a00-a0be-484751dceb60" x1="221.71" y1="218.86" x2="189.16" y2="195.33" gradientUnits="userSpaceOnUse"><stop offset="0" stop-color="#2e3bbb"/><stop offset="1" stop-color="#7258d8"/></linearGradient><linearGradient id="b5d005d6-52a7-4b14-b2ad-3a40771fb808" x1="231.37" y1="348.67" x2="260.41" y2="348.67" xlink:href="#a2d13c06-b1ab-4a00-a0be-484751dceb60"/><linearGradient id="b480d5a5-a2cd-456a-8188-1c1ea6f2984e" x1="220.87" y1="345.61" x2="218.11" y2="287.06" xlink:href="#a2d13c06-b1ab-4a00-a0be-484751dceb60"/><linearGradient id="b4574d81-eee6-4887-bee6-8bea5d9a5275" x1="240.64" y1="286.18" x2="193.83" y2="296.04" gradientUnits="userSpaceOnUse"><stop offset="0" stop-color="#2790f9"/><stop offset="1" stop-color="#31b0f9"/></linearGradient><linearGradient id="bd177c59-26cf-4fe2-b565-60947a1ae76d" x1="222.66" y1="301.05" x2="251.94" y2="301.05" gradientUnits="userSpaceOnUse"><stop offset="0" stop-color="#27a7f9"/><stop offset="1" stop-color="#4fccf9"/></linearGradient><linearGradient id="af6cd2e2-70b7-47a8-889e-c57ee5d11792" x1="218.82" y1="250.06" x2="234.47" y2="250.06" xlink:href="#b05a7021-0f3e-45bd-8809-25a0180aaadf"/><linearGradient id="e5fb06e1-29bc-491b-9b1a-778b364e8bd5" x1="237.19" y1="261.48" x2="225.6" y2="196.61" xlink:href="#a2d13c06-b1ab-4a00-a0be-484751dceb60"/><linearGradient id="e6e80681-05ff-437c-9091-0fb71ab409e1" x1="222.53" y1="178.3" x2="245.84" y2="178.3" xlink:href="#a66eacc0-8e00-4161-aee2-b7ad72a0d65f"/><linearGradient id="ab3d7726-0efa-47d2-8c95-8a411968830e" x1="241.38" y1="177.83" x2="225.7" y2="163.45" gradientUnits="userSpaceOnUse"><stop offset="0" stop-color="#ab58d8"/><stop offset="1" stop-color="#ff86d8"/></linearGradient><linearGradient id="af19f07b-585b-4b6e-b6a0-d6e4670b9e06" x1="237.92" y1="195.78" x2="225.44" y2="186.57" xlink:href="#b05a7021-0f3e-45bd-8809-25a0180aaadf"/><linearGradient id="bd6643b6-99cb-445b-a068-44259516ae81" x1="276.9" y1="203.34" x2="284.42" y2="203.34" xlink:href="#b05a7021-0f3e-45bd-8809-25a0180aaadf"/><linearGradient id="a20f8228-aa01-414f-bb7b-7e1777de7b94" x1="270.33" y1="255.56" x2="258.75" y2="190.69" xlink:href="#a2d13c06-b1ab-4a00-a0be-484751dceb60"/><linearGradient id="ecd8b072-1b64-418d-b255-96a2bbf2f903" x1="281.95" y1="206.36" x2="283" y2="206.36" xlink:href="#b05a7021-0f3e-45bd-8809-25a0180aaadf"/><linearGradient id="acbb6183-2638-4384-9f0f-5cf1f9b75205" x1="281.42" y1="208.2" x2="282.48" y2="208.2" xlink:href="#b05a7021-0f3e-45bd-8809-25a0180aaadf"/><linearGradient id="bdd32615-7ba2-4630-9d0f-a11fc3be32df" x1="390.06" y1="155.96" x2="362.5" y2="63.04" xlink:href="#a2d13c06-b1ab-4a00-a0be-484751dceb60"/><linearGradient id="b6d8c4c0-393a-4844-afc7-a0bec6f05e2a" x1="404.51" y1="151.67" x2="376.95" y2="58.76" xlink:href="#a2d13c06-b1ab-4a00-a0be-484751dceb60"/><linearGradient id="fdeed0a7-2af2-4acb-9533-d183e1671552" x1="348.38" y1="110.52" x2="398.93" y2="110.52" xlink:href="#a4f7a7b7-7d25-4a0b-bb03-4386cb53cd35"/><linearGradient id="b4f5ca02-498a-4246-9f34-9115c356b81a" x1="364.01" y1="107.91" x2="383.67" y2="107.91" xlink:href="#bd177c59-26cf-4fe2-b565-60947a1ae76d"/><linearGradient id="b87c3cf7-1292-44f4-b6b1-40d06ed15909" x1="284.48" y1="154.84" x2="284.66" y2="101.55" xlink:href="#a4f7a7b7-7d25-4a0b-bb03-4386cb53cd35"/><linearGradient id="a00316e4-93e3-46fd-89e8-544c1064d395" x1="260.87" y1="101.71" x2="275.37" y2="101.71" xlink:href="#bd177c59-26cf-4fe2-b565-60947a1ae76d"/><linearGradient id="ed5ecd38-b67d-4f12-b9ad-b9c781e20a31" x1="290.49" y1="114.71" x2="299.84" y2="114.71" xlink:href="#ab3d7726-0efa-47d2-8c95-8a411968830e"/><linearGradient id="bfbd0093-0e67-463b-8119-eae137fc4f24" x1="330.51" y1="156.54" x2="349.86" y2="156.54" xlink:href="#a4f7a7b7-7d25-4a0b-bb03-4386cb53cd35"/><linearGradient id="ff819399-f4f1-402b-ab25-dea7be80c54f" x1="334.18" y1="175.09" x2="346.09" y2="175.09" xlink:href="#ab3d7726-0efa-47d2-8c95-8a411968830e"/><linearGradient id="f80080c9-2261-4565-b478-039251577242" x1="334.23" y1="156.3" x2="346.14" y2="156.3" xlink:href="#bd177c59-26cf-4fe2-b565-60947a1ae76d"/><linearGradient id="bbd41ca6-695d-4d81-b012-2405d689358a" x1="334.28" y1="137.51" x2="346.2" y2="137.51" gradientUnits="userSpaceOnUse"><stop offset="0" stop-color="#17d6a6"/><stop offset="1" stop-color="#17ecc7"/></linearGradient><linearGradient id="fb80a472-618e-41f9-b0b3-d71ba4ede9f5" x1="278.05" y1="197.49" x2="277.58" y2="164.7" xlink:href="#a4f7a7b7-7d25-4a0b-bb03-4386cb53cd35"/><linearGradient id="f7c776aa-15b2-44a2-a900-be235ce808b1" x1="312.7" y1="204.61" x2="350.79" y2="204.61" xlink:href="#bbd41ca6-695d-4d81-b012-2405d689358a"/><linearGradient id="e0549889-c71b-4be9-a1bc-cde562d4353f" x1="131.32" y1="137.51" x2="206.04" y2="137.51" xlink:href="#a4f7a7b7-7d25-4a0b-bb03-4386cb53cd35"/><linearGradient id="a3069420-c8b6-49e9-990f-3416a42c34ec" x1="89.3" y1="102.07" x2="88.73" y2="79.59" xlink:href="#ab3d7726-0efa-47d2-8c95-8a411968830e"/><linearGradient id="ec1700e4-bc63-4da2-9a84-71557e5d90a8" x1="101.06" y1="93.85" x2="100.01" y2="65.37" xlink:href="#bd177c59-26cf-4fe2-b565-60947a1ae76d"/><linearGradient id="f4049899-9e5c-4640-a0ec-97a83b6bac9c" x1="115.11" y1="84.97" x2="112.06" y2="51.07" xlink:href="#ab3d7726-0efa-47d2-8c95-8a411968830e"/><linearGradient id="a803bce8-f897-409a-8477-fcf0761add15" x1="126.66" y1="77.44" x2="126.85" y2="49.63" xlink:href="#bd177c59-26cf-4fe2-b565-60947a1ae76d"/><linearGradient id="ee248de2-e131-42a9-a13d-09230ea52512" x1="140.87" y1="69.73" x2="141.06" y2="34.97" xlink:href="#ab3d7726-0efa-47d2-8c95-8a411968830e"/><linearGradient id="a9078ce7-c123-4bc2-aa2e-9781e4fada99" x1="131.32" y1="216.83" x2="171.94" y2="216.83" xlink:href="#a4f7a7b7-7d25-4a0b-bb03-4386cb53cd35"/><linearGradient id="a8f4df69-0abb-4944-adfe-251d8f94803f" x1="169.71" y1="211.7" x2="166.9" y2="181.93" xlink:href="#bbd41ca6-695d-4d81-b012-2405d689358a"/><linearGradient id="a8df3814-6db5-4090-8db2-d037130bbb61" x1="168.64" y1="211.81" x2="165.84" y2="182.03" xlink:href="#bbd41ca6-695d-4d81-b012-2405d689358a"/><linearGradient id="b934cfc5-2332-440b-a77b-9664260a9d9c" x1="153.48" y1="255.93" x2="153.08" y2="236.99" xlink:href="#a2d13c06-b1ab-4a00-a0be-484751dceb60"/><linearGradient id="be086ee5-8297-4367-9080-56a458991f70" x1="167.62" y1="211.9" x2="164.82" y2="182.13" xlink:href="#bbd41ca6-695d-4d81-b012-2405d689358a"/><linearGradient id="a430ce49-689e-4345-b9e4-1fa4100efdff" x1="343.64" y1="152.43" x2="343.46" y2="190.21" xlink:href="#ee989d2b-69ec-4fd2-bb94-9d8ae7caba30"/><linearGradient id="b985b784-813c-4203-b57e-b04d59586bad" x1="345.98" y1="141.9" x2="380.44" y2="175.65" gradientUnits="userSpaceOnUse"><stop offset="0" stop-color="#17bfa6"/><stop offset="1" stop-color="#17ecc7"/></linearGradient><linearGradient id="bf85845b-9e94-4025-88e3-c9721d8d70b3" x1="367.46" y1="160.4" x2="335.14" y2="121.42" xlink:href="#bbd41ca6-695d-4d81-b012-2405d689358a"/><linearGradient id="a875f0f9-5568-430d-ba14-cc647e2f3112" x1="347.18" y1="183.86" x2="329.36" y2="141.57" gradientUnits="userSpaceOnUse"><stop offset="0" stop-color="#cfd0f5"/><stop offset="1" stop-color="#eef4ff"/></linearGradient><linearGradient id="a813e220-06fa-49cc-95ef-bd368c86e2f8" x1="372.31" y1="294.25" x2="372.14" y2="332.03" xlink:href="#ee989d2b-69ec-4fd2-bb94-9d8ae7caba30"/><linearGradient id="e4fa52fb-3554-416f-b63a-3d7eed31e23d" x1="374.81" y1="284.99" x2="409.27" y2="318.73" xlink:href="#ab3d7726-0efa-47d2-8c95-8a411968830e"/><linearGradient id="e6a396ca-714f-42b9-b970-7b2c4c832cdb" x1="396.29" y1="303.48" x2="363.97" y2="264.51" xlink:href="#ab3d7726-0efa-47d2-8c95-8a411968830e"/><linearGradient id="bb6eff62-6927-431c-8bb5-3c775ddebd77" x1="376.01" y1="326.95" x2="358.19" y2="284.66" xlink:href="#a875f0f9-5568-430d-ba14-cc647e2f3112"/><linearGradient id="aee1057b-c6c7-4edb-8d06-5d0f7405210e" x1="21.34" y1="180.82" x2="21.16" y2="218.6" xlink:href="#ee989d2b-69ec-4fd2-bb94-9d8ae7caba30"/><linearGradient id="a89fa5f0-d299-4da4-aec5-bd9dc16ad5f0" x1="23.83" y1="168.55" x2="58.29" y2="202.29" xlink:href="#b4574d81-eee6-4887-bee6-8bea5d9a5275"/><linearGradient id="b09c7c44-efc2-4fd5-afc6-826d76bc8f59" x1="45.31" y1="187.04" x2="12.99" y2="148.07" xlink:href="#bd177c59-26cf-4fe2-b565-60947a1ae76d"/><linearGradient id="b0f1993f-cb8e-408c-94b8-ff5bcd8e23ed" x1="25.03" y1="210.51" x2="7.21" y2="168.22" xlink:href="#a875f0f9-5568-430d-ba14-cc647e2f3112"/></defs><g style="isolation:isolate"><g id="f0420d29-f6df-44f7-8b35-031efd73c404" data-name="OBJECTS"><path d="M356.46,371.49c12.91,7.46,13,19.54.15,27L247,462.21c-12.83,7.45-33.68,7.45-46.59,0L90,398.48c-12.91-7.45-13-19.53-.16-27l109.66-63.73c12.83-7.45,33.69-7.45,46.59,0Z" transform="translate(-53.58 -70.2)" fill="#eeefff"/><g style="isolation:isolate"><path d="M370,357.61l-120.63,70.1c-14.11,8.2-37,8.19-51.24,0L76.66,357.61C69.52,353.48,66,348.07,66,342.66l0,11c0,5.41,3.56,10.82,10.7,14.95l121.42,70.1c14.19,8.19,37.13,8.2,51.24,0l120.63-70.1c7-4.07,10.51-9.4,10.53-14.74l0-11C380.47,348.2,377,353.53,370,357.61Z" transform="translate(-53.58 -70.2)" fill="url(#a50d4614-c8f5-463a-adc3-703927d02816)"/><path d="M369.78,327.92c14.2,8.2,14.28,21.49.17,29.69l-120.63,70.1c-14.11,8.2-37,8.19-51.24,0L76.66,357.61c-14.19-8.2-14.28-21.49-.17-29.69l120.63-70.1c14.11-8.2,37-8.2,51.25,0Z" transform="translate(-53.58 -70.2)" fill="url(#a4f7a7b7-7d25-4a0b-bb03-4386cb53cd35)"/></g><g opacity="0.32" style="mix-blend-mode:multiply"><polygon points="214.4 234.19 215.6 233.49 236.94 245.81 235.73 246.51 214.4 234.19" fill="url(#ee989d2b-69ec-4fd2-bb94-9d8ae7caba30)"/><polygon points="102.34 299.31 103.55 298.61 124.88 310.93 123.67 311.63 102.34 299.31" fill="url(#fc2f5332-61b4-4bed-8ceb-84862d464202)"/><polygon points="34.93 260.4 36.14 259.69 57.22 271.86 56.01 272.56 34.93 260.4" fill="url(#b3082803-89e9-4e93-b42e-bf3ead82a445)"/><g style="isolation:isolate"><polygon points="146.99 195.28 148.2 194.57 169.28 206.74 168.07 207.44 146.99 195.28" fill="url(#ebb8724f-d01c-4cea-9c70-d7c7c97194ff)"/><polygon points="124.58 208.3 125.79 207.59 146.87 219.76 145.66 220.46 124.58 208.3" fill="url(#a37ad34e-22fb-4bb6-8fab-c14181427fc7)"/><polygon points="191.84 221.17 193.05 220.46 214.39 232.78 213.18 233.49 191.84 221.17" fill="url(#b1a4d396-ecf7-4769-847c-df278e47e407)"/><polygon points="102.17 221.32 103.39 220.62 124.46 232.78 123.25 233.49 102.17 221.32" fill="url(#eeb7309d-a097-45c1-81fc-5c374ab934c3)"/><polygon points="169.43 234.19 170.64 233.49 191.98 245.81 190.77 246.51 169.43 234.19" fill="url(#a8b2ff7b-ba60-42fd-b08b-f40bcf18e567)"/><polygon points="124.47 234.19 125.68 233.49 147.01 245.81 145.8 246.51 124.47 234.19" fill="url(#ba02cfa5-580f-458d-9844-50ad7d6fc781)"/><polygon points="79.75 234.35 80.98 233.64 102.05 245.81 100.83 246.52 79.75 234.35" fill="url(#b55c84cf-5e84-47e3-8ec4-0d5565782d09)"/><polygon points="236.95 247.21 238.16 246.51 259.5 258.83 258.29 259.53 236.95 247.21" fill="url(#ac377832-4e3d-49a5-b48a-6e69e8b2c240)"/><polygon points="191.99 247.21 193.2 246.51 214.53 258.83 213.32 259.53 191.99 247.21" fill="url(#eb82bb76-271e-4c74-9bcb-82b6e8a054f2)"/><polygon points="147.02 247.21 148.23 246.51 169.57 258.83 168.36 259.53 147.02 247.21" fill="url(#a3821bf5-4050-4ea3-aac6-956c6d2dbeca)"/><polygon points="102.04 247.22 103.27 246.51 124.61 258.83 123.38 259.54 102.04 247.22" fill="url(#b1ce8e35-a5a9-473b-b1d8-1dc017ddcc3e)"/><polygon points="57.34 247.37 58.57 246.66 79.64 258.83 78.42 259.54 57.34 247.37" fill="url(#e5a9b106-aeff-45ca-9c68-cfd0e5875aa9)"/><polygon points="214.54 260.24 215.75 259.53 237.09 271.85 235.88 272.55 214.54 260.24" fill="url(#ac377832-4e3d-49a5-b48a-6e69e8b2c240)"/><polygon points="169.58 260.24 170.79 259.53 192.13 271.85 190.91 272.55 169.58 260.24" fill="url(#a565a57e-3601-4475-a3eb-889516dcf292)"/><polygon points="124.6 260.24 125.82 259.53 147.16 271.85 145.94 272.56 124.6 260.24" fill="url(#a8139fe3-feff-4018-a1e9-d64463f90f4a)"/><polygon points="79.63 260.24 80.86 259.53 102.2 271.85 100.97 272.56 79.63 260.24" fill="url(#ead50d86-cf00-48a0-9b5e-c5433ce4de9e)"/><polygon points="192.13 273.26 193.34 272.55 214.68 284.87 213.47 285.58 192.13 273.26" fill="url(#bb419507-f354-4d87-9aa6-2f099d1b337e)"/><polygon points="147.15 273.27 148.38 272.55 169.72 284.87 168.49 285.58 147.15 273.27" fill="url(#af0e96fa-22a0-4654-b623-4ab13f6ef373)"/><polygon points="102.19 273.27 103.41 272.55 124.75 284.87 123.53 285.58 102.19 273.27" fill="url(#bb419507-f354-4d87-9aa6-2f099d1b337e)"/><polygon points="191.43 195.28 170.49 207.44 169.28 208.15 148.09 220.46 146.88 221.17 125.68 233.49 124.47 234.19 103.27 246.51 102.04 247.22 80.86 259.53 79.63 260.24 58.44 272.56 57.23 273.27 36.29 285.43 35.07 284.73 56.01 272.56 57.22 271.86 78.42 259.54 79.64 258.83 100.83 246.52 102.05 245.81 123.25 233.49 124.46 232.78 145.66 220.46 146.87 219.76 168.07 207.44 169.28 206.74 190.21 194.57 191.43 195.28" fill="url(#e5d2dd78-d42d-4abd-a21a-778fd0033073)"/><polygon points="214.7 286.29 215.91 285.58 237.24 297.9 236.03 298.6 214.7 286.29" fill="url(#fae3f519-0bf1-4ce5-907a-f4ceff478dbf)"/><polygon points="169.71 286.29 170.93 285.58 192.27 297.9 191.05 298.61 169.71 286.29" fill="url(#eeb7309d-a097-45c1-81fc-5c374ab934c3)"/><polygon points="124.75 286.29 125.97 285.58 147.31 297.9 146.08 298.61 124.75 286.29" fill="url(#ef39eeb0-30d7-4add-a23d-9d4fed7fae69)"/><polygon points="213.99 208.3 193.05 220.46 191.84 221.17 170.64 233.49 169.43 234.19 148.23 246.51 147.02 247.21 125.82 259.53 124.6 260.24 103.41 272.56 102.19 273.27 80.99 285.59 79.78 286.29 58.84 298.46 57.63 297.75 78.56 285.59 79.77 284.88 100.97 272.56 102.2 271.85 123.38 259.54 124.61 258.83 145.8 246.51 147.01 245.81 168.21 233.49 169.42 232.78 190.62 220.46 191.83 219.76 212.77 207.59 213.99 208.3" fill="url(#a2f3fca8-e162-4a51-b037-2d8b08f98b28)"/><polygon points="79.78 286.29 80.99 285.59 102.33 297.9 101.12 298.61 79.78 286.29" fill="url(#ebb8724f-d01c-4cea-9c70-d7c7c97194ff)"/><polygon points="192.28 299.32 193.5 298.61 214.83 310.92 213.6 311.63 192.28 299.32" fill="url(#b8a95866-a0ed-4524-bb92-85f67d339aa2)"/><polygon points="147.3 299.31 148.53 298.6 169.86 310.92 168.64 311.63 147.3 299.31" fill="url(#a52af34f-9ee1-4787-ba4a-b1fdcfd7462a)"/><polygon points="236.54 221.32 215.6 233.49 214.4 234.19 193.2 246.51 191.99 247.21 170.79 259.53 169.58 260.24 148.38 272.55 147.15 273.27 125.97 285.58 124.75 286.29 103.55 298.61 102.34 299.31 81.4 311.48 80.18 310.77 101.12 298.61 102.33 297.9 123.53 285.58 124.75 284.87 145.94 272.56 147.16 271.85 168.36 259.53 169.57 258.83 190.77 246.51 191.98 245.81 213.18 233.49 214.39 232.78 235.32 220.62 236.54 221.32" fill="url(#ebb347c1-3c39-4376-919b-fdea67423b3f)"/><polygon points="259.1 234.34 238.16 246.51 236.95 247.21 215.75 259.53 214.54 260.24 193.34 272.55 192.13 273.26 170.93 285.58 169.71 286.29 148.53 298.6 147.3 299.31 126.1 311.63 124.89 312.33 103.95 324.5 102.74 323.8 123.67 311.63 124.88 310.93 146.08 298.61 147.31 297.9 168.49 285.58 169.72 284.87 190.91 272.55 192.13 271.85 213.32 259.53 214.53 258.83 235.73 246.51 236.94 245.81 257.88 233.64 259.1 234.34" fill="url(#a5c76785-9988-4099-8241-791e709ec914)"/><polygon points="124.89 312.33 126.1 311.63 147.44 323.95 146.23 324.65 124.89 312.33" fill="url(#e3fc23ac-504a-47fc-ae89-dab190a21a9a)"/><polygon points="281.67 247.37 260.73 259.54 259.52 260.24 238.32 272.56 237.11 273.27 215.91 285.58 214.7 286.29 193.5 298.61 192.28 299.32 171.09 311.63 169.87 312.34 148.67 324.66 147.46 325.36 126.53 337.53 125.29 336.82 146.23 324.65 147.44 323.95 168.64 311.63 169.86 310.92 191.05 298.61 192.27 297.9 213.47 285.58 214.68 284.87 235.88 272.55 237.09 271.85 258.29 259.53 259.5 258.83 280.43 246.66 281.67 247.37" fill="url(#a6780cb8-6503-4dd3-adb5-1cddaec104f6)"/></g><polygon points="259.52 260.24 260.73 259.54 282.05 271.85 280.84 272.55 259.52 260.24" fill="url(#b850351a-9d79-4704-b29f-039461c3a0f0)"/><polygon points="237.11 273.27 238.32 272.56 259.64 284.87 258.43 285.58 237.11 273.27" fill="url(#b66235d1-2953-4dd6-81b3-30aa8fe17c6c)"/><polygon points="169.87 312.34 171.09 311.63 192.42 323.94 191.19 324.65 169.87 312.34" fill="url(#bd4a7826-a921-4ec6-89ab-4e5e10062529)"/><polygon points="147.46 325.36 148.67 324.66 169.99 336.97 168.78 337.68 147.46 325.36" fill="url(#aeedd5c3-a174-41bd-bcc1-fb9746a2f061)"/><polygon points="304.22 260.39 283.29 272.56 282.08 273.26 260.88 285.58 259.67 286.29 238.47 298.61 237.26 299.31 216.06 311.63 214.84 312.34 193.65 324.65 192.43 325.36 171.23 337.68 170.02 338.39 149.08 350.55 147.85 349.84 168.78 337.68 169.99 336.97 191.19 324.65 192.42 323.94 213.6 311.63 214.83 310.92 236.03 298.6 237.24 297.9 258.43 285.58 259.64 284.87 280.84 272.55 282.05 271.85 302.99 259.68 304.22 260.39" fill="url(#e5734baf-2424-46de-b373-11e822c86339)"/><polygon points="283.29 272.56 304.34 284.72 303.13 285.42 282.08 273.26 283.29 272.56" fill="url(#bac94f07-43db-4b87-9deb-34a72e3a4655)"/><polygon points="169.28 208.15 170.49 207.44 191.83 219.76 190.62 220.46 169.28 208.15" fill="url(#b1d4ea92-74fe-42d4-bc9d-b1d808cdd014)"/><polygon points="260.88 285.58 281.94 297.74 280.73 298.45 259.67 286.29 260.88 285.58" fill="url(#e64f4edf-bf6b-4d7b-9279-9b215b8faffc)"/><polygon points="146.88 221.17 148.09 220.46 169.42 232.78 168.21 233.49 146.88 221.17" fill="url(#b5c6ecaf-9037-40eb-b5e4-b466c57d88f0)"/><polygon points="238.47 298.61 259.53 310.76 258.32 311.47 237.26 299.31 238.47 298.61" fill="url(#ac24bcae-3d21-4337-861e-2b3a5684f47b)"/><polygon points="216.06 311.63 237.12 323.79 235.89 324.5 214.84 312.34 216.06 311.63" fill="url(#bb9f40b2-f44d-436d-9088-0feda36790fc)"/><polygon points="193.65 324.65 214.71 336.81 213.48 337.52 192.43 325.36 193.65 324.65" fill="url(#b297cf6f-1215-4d7b-aa8f-8cbc136435b0)"/><polygon points="171.23 337.68 192.29 349.84 191.08 350.55 170.02 338.39 171.23 337.68" fill="url(#a954856e-5997-40fa-97ee-4be4273e6949)"/><polygon points="57.23 273.27 58.44 272.56 79.77 284.88 78.56 285.59 57.23 273.27" fill="url(#ae54b3c4-7f2b-4e8e-9a07-05791a1ae144)"/><path d="M226.7,275.39c2.15,1.24,2.14,3.25,0,4.47a8.52,8.52,0,0,1-7.74,0c-2.13-1.22-2.14-3.24,0-4.48A8.54,8.54,0,0,1,226.7,275.39Z" transform="translate(-53.58 -70.2)" fill="url(#a39fa6ef-b134-46f4-95cd-18b9c545782c)"/><path d="M249.26,288.41c2.14,1.24,2.14,3.25,0,4.48a8.56,8.56,0,0,1-7.73,0c-2.13-1.23-2.14-3.25,0-4.49A8.6,8.6,0,0,1,249.26,288.41Z" transform="translate(-53.58 -70.2)" fill="url(#b7cf113d-793c-46a5-add0-17ed20a7b8e5)"/><path d="M271.83,301.44c2.13,1.23,2.14,3.25,0,4.48a8.53,8.53,0,0,1-7.73,0c-2.15-1.24-2.14-3.25,0-4.49A8.57,8.57,0,0,1,271.83,301.44Z" transform="translate(-53.58 -70.2)" fill="url(#b700dc3c-fdc7-429d-961a-01129aa5cc64)"/><path d="M294.39,314.47c2.14,1.23,2.13,3.24,0,4.47a8.52,8.52,0,0,1-7.74,0c-2.14-1.24-2.14-3.25,0-4.48A8.53,8.53,0,0,1,294.39,314.47Z" transform="translate(-53.58 -70.2)" fill="url(#ebda49d4-eff6-4a5c-8b53-01c74999a9db)"/><path d="M316.94,327.49c2.14,1.24,2.14,3.24,0,4.47a8.52,8.52,0,0,1-7.74,0c-2.14-1.24-2.14-3.24,0-4.48A8.51,8.51,0,0,1,316.94,327.49Z" transform="translate(-53.58 -70.2)" fill="url(#b8d70234-6599-413b-b916-400a0cd711ea)"/><path d="M339.5,340.51c2.14,1.24,2.14,3.25,0,4.48a8.55,8.55,0,0,1-7.74,0c-2.14-1.23-2.14-3.24,0-4.48A8.53,8.53,0,0,1,339.5,340.51Z" transform="translate(-53.58 -70.2)" fill="url(#b374deb1-3cc3-4c12-9968-f7cdfc2323c4)"/><path d="M204.28,288.42c2.14,1.24,2.15,3.24,0,4.48a8.56,8.56,0,0,1-7.73,0c-2.13-1.23-2.15-3.24,0-4.48A8.54,8.54,0,0,1,204.28,288.42Z" transform="translate(-53.58 -70.2)" fill="url(#e903b790-8a81-4a37-b55a-9edfbdc73849)"/><path d="M226.84,301.44c2.14,1.24,2.15,3.24,0,4.48a8.48,8.48,0,0,1-7.72,0c-2.13-1.23-2.16-3.24,0-4.48A8.59,8.59,0,0,1,226.84,301.44Z" transform="translate(-53.58 -70.2)" fill="url(#b906b9b4-bc6c-437a-b76c-2b873c42b3c0)"/><path d="M249.41,314.48c2.12,1.22,2.15,3.23,0,4.47a8.51,8.51,0,0,1-7.72,0c-2.14-1.24-2.16-3.24,0-4.47A8.5,8.5,0,0,1,249.41,314.48Z" transform="translate(-53.58 -70.2)" fill="url(#b5c6ecaf-9037-40eb-b5e4-b466c57d88f0)"/><path d="M272,327.5c2.14,1.24,2.16,3.23,0,4.47a8.5,8.5,0,0,1-7.73,0c-2.14-1.24-2.15-3.23,0-4.47A8.48,8.48,0,0,1,272,327.5Z" transform="translate(-53.58 -70.2)" fill="url(#fafcba83-e744-4df7-98ad-90c7df0f6a02)"/><path d="M294.52,340.52c2.14,1.24,2.15,3.24,0,4.47a8.48,8.48,0,0,1-7.72,0c-2.14-1.23-2.15-3.23,0-4.47A8.5,8.5,0,0,1,294.52,340.52Z" transform="translate(-53.58 -70.2)" fill="url(#fe6d443a-a12b-4946-a04a-a84920e86568)"/><path d="M317.07,353.54c2.15,1.24,2.16,3.24,0,4.48a8.56,8.56,0,0,1-7.73,0c-2.14-1.24-2.15-3.24,0-4.48A8.54,8.54,0,0,1,317.07,353.54Z" transform="translate(-53.58 -70.2)" fill="url(#f2acd339-d39e-4ea0-b72d-f81f33178536)"/><path d="M114.65,340.51c2.14,1.24,2.13,3.25,0,4.48a8.54,8.54,0,0,1-7.72,0c-2.13-1.23-2.16-3.24,0-4.48A8.56,8.56,0,0,1,114.65,340.51Z" transform="translate(-53.58 -70.2)" fill="url(#ad0e7fdf-9a01-4aa4-be31-80e018034cf9)"/><path d="M137.2,353.54c2.14,1.23,2.14,3.24,0,4.47a8.5,8.5,0,0,1-7.73,0c-2.13-1.23-2.15-3.24,0-4.47A8.54,8.54,0,0,1,137.2,353.54Z" transform="translate(-53.58 -70.2)" fill="url(#ef2cc9bc-b255-49ba-8b8d-d8aa706927dc)"/><path d="M159.77,366.57c2.13,1.22,2.14,3.24,0,4.47a8.53,8.53,0,0,1-7.73,0c-2.14-1.24-2.15-3.24,0-4.47A8.51,8.51,0,0,1,159.77,366.57Z" transform="translate(-53.58 -70.2)" fill="url(#a6896453-4215-473e-9bed-2dc32b8ae2c1)"/><path d="M182.33,379.59c2.14,1.24,2.14,3.24,0,4.47a8.48,8.48,0,0,1-7.72,0c-2.14-1.23-2.16-3.23,0-4.47A8.53,8.53,0,0,1,182.33,379.59Z" transform="translate(-53.58 -70.2)" fill="url(#a2f24c0d-caba-43e6-a1c7-7f5b05a8767c)"/><path d="M204.88,392.61c2.14,1.24,2.14,3.25,0,4.47a8.5,8.5,0,0,1-7.73,0c-2.14-1.23-2.15-3.23,0-4.47A8.51,8.51,0,0,1,204.88,392.61Z" transform="translate(-53.58 -70.2)" fill="url(#ac34903e-f438-44d0-8504-1766c0cb77df)"/><path d="M227.44,405.63c2.14,1.24,2.14,3.25,0,4.48a8.54,8.54,0,0,1-7.72,0c-2.14-1.24-2.15-3.24,0-4.48A8.56,8.56,0,0,1,227.44,405.63Z" transform="translate(-53.58 -70.2)" fill="url(#a11f293a-e751-4161-8fd6-b26e6ee5d1a3)"/><path d="M137.05,327.49c2.15,1.24,2.16,3.24,0,4.47a8.48,8.48,0,0,1-7.72,0c-2.13-1.22-2.16-3.23,0-4.47A8.51,8.51,0,0,1,137.05,327.49Z" transform="translate(-53.58 -70.2)" fill="url(#ba0e160b-a370-4cf2-9aeb-95f828b86b29)"/><path d="M159.61,340.51c2.14,1.24,2.15,3.24,0,4.48a8.54,8.54,0,0,1-7.72,0c-2.13-1.23-2.15-3.24,0-4.48A8.54,8.54,0,0,1,159.61,340.51Z" transform="translate(-53.58 -70.2)" fill="url(#b850351a-9d79-4704-b29f-039461c3a0f0)"/><path d="M182.18,353.54c2.13,1.23,2.15,3.24,0,4.48a8.54,8.54,0,0,1-7.72,0c-2.14-1.24-2.15-3.24,0-4.48A8.54,8.54,0,0,1,182.18,353.54Z" transform="translate(-53.58 -70.2)" fill="url(#b3082803-89e9-4e93-b42e-bf3ead82a445)"/><path d="M204.74,366.57c2.14,1.23,2.15,3.23,0,4.47a8.48,8.48,0,0,1-7.72,0c-2.15-1.24-2.16-3.24,0-4.47A8.5,8.5,0,0,1,204.74,366.57Z" transform="translate(-53.58 -70.2)" fill="url(#f0b22ba8-5455-4eca-b5f5-133f486c8b79)"/><path d="M227.29,379.59c2.14,1.24,2.15,3.23,0,4.47a8.5,8.5,0,0,1-7.73,0c-2.14-1.23-2.15-3.23,0-4.47A8.48,8.48,0,0,1,227.29,379.59Z" transform="translate(-53.58 -70.2)" fill="url(#bb8889c4-e802-402c-8706-e80d1a3c46e4)"/><path d="M249.85,392.61c2.14,1.24,2.15,3.24,0,4.47a8.48,8.48,0,0,1-7.72,0c-2.14-1.23-2.16-3.23,0-4.47A8.5,8.5,0,0,1,249.85,392.61Z" transform="translate(-53.58 -70.2)" fill="url(#ebb8724f-d01c-4cea-9c70-d7c7c97194ff)"/><ellipse cx="155.61" cy="316.7" rx="3.16" ry="5.46" transform="translate(-215.11 401.22) rotate(-89.84)" fill="url(#b17389c8-e5bf-4773-b154-574623c90658)"/><path d="M182,327.49c2.14,1.24,2.15,3.24,0,4.47a8.48,8.48,0,0,1-7.72,0c-2.13-1.22-2.15-3.23,0-4.47A8.51,8.51,0,0,1,182,327.49Z" transform="translate(-53.58 -70.2)" fill="url(#f0b22ba8-5455-4eca-b5f5-133f486c8b79)"/><path d="M204.59,340.52c2.13,1.23,2.15,3.24,0,4.47a8.51,8.51,0,0,1-7.72,0c-2.14-1.23-2.15-3.23,0-4.47A8.48,8.48,0,0,1,204.59,340.52Z" transform="translate(-53.58 -70.2)" fill="url(#a5b00e25-4508-4f3d-bd78-069a577f71c4)"/><path d="M227.14,353.54c2.15,1.24,2.16,3.24,0,4.48a8.54,8.54,0,0,1-7.72,0c-2.15-1.24-2.16-3.24,0-4.48A8.54,8.54,0,0,1,227.14,353.54Z" transform="translate(-53.58 -70.2)" fill="url(#b5c6ecaf-9037-40eb-b5e4-b466c57d88f0)"/><path d="M249.7,366.57c2.14,1.23,2.15,3.23,0,4.47a8.48,8.48,0,0,1-7.72,0c-2.14-1.24-2.15-3.24,0-4.47A8.48,8.48,0,0,1,249.7,366.57Z" transform="translate(-53.58 -70.2)" fill="url(#e5734baf-2424-46de-b373-11e822c86339)"/><path d="M272.25,379.59c2.15,1.24,2.16,3.23,0,4.47a8.48,8.48,0,0,1-7.72,0c-2.15-1.24-2.16-3.23,0-4.47A8.48,8.48,0,0,1,272.25,379.59Z" transform="translate(-53.58 -70.2)" fill="url(#a723bcd5-e7d0-45c0-8609-7abb0af3ac26)"/><path d="M181.87,301.45c2.14,1.23,2.16,3.23,0,4.47a8.5,8.5,0,0,1-7.73,0c-2.12-1.23-2.15-3.24,0-4.47A8.51,8.51,0,0,1,181.87,301.45Z" transform="translate(-53.58 -70.2)" fill="url(#a3ba9e77-0879-4bf6-964f-37e1ab3b5c5b)"/><path d="M204.43,314.47c2.14,1.23,2.15,3.23,0,4.47a8.48,8.48,0,0,1-7.72,0c-2.13-1.23-2.15-3.24,0-4.47A8.53,8.53,0,0,1,204.43,314.47Z" transform="translate(-53.58 -70.2)" fill="url(#b53f5969-66a3-4553-badb-1601cafd2417)"/><path d="M227,327.5c2.13,1.23,2.15,3.23,0,4.47a8.51,8.51,0,0,1-7.72,0c-2.14-1.23-2.15-3.23,0-4.47A8.5,8.5,0,0,1,227,327.5Z" transform="translate(-53.58 -70.2)" fill="url(#e05d8a1d-0b90-4e74-8083-df21fd0537fa)"/><path d="M249.55,340.52c2.15,1.24,2.16,3.24,0,4.47a8.5,8.5,0,0,1-7.73,0c-2.14-1.23-2.15-3.23,0-4.47A8.48,8.48,0,0,1,249.55,340.52Z" transform="translate(-53.58 -70.2)" fill="url(#a3e3325b-021e-4939-b1e7-fb9877c7e669)"/><path d="M272.11,353.54c2.14,1.24,2.15,3.24,0,4.48a8.54,8.54,0,0,1-7.72,0c-2.14-1.24-2.15-3.24,0-4.48A8.54,8.54,0,0,1,272.11,353.54Z" transform="translate(-53.58 -70.2)" fill="url(#a1587728-ea77-4860-abf0-dbb6f32a97f1)"/><path d="M294.66,366.57c2.15,1.23,2.16,3.23,0,4.47a8.48,8.48,0,0,1-7.72,0c-2.15-1.24-2.16-3.24,0-4.47A8.48,8.48,0,0,1,294.66,366.57Z" transform="translate(-53.58 -70.2)" fill="url(#ba0e160b-a370-4cf2-9aeb-95f828b86b29)"/></g><g opacity="0.56" style="mix-blend-mode:multiply"><path d="M248.6,324.15c5.56,3.21,8.9,7.18,10,11.18a28.28,28.28,0,0,1,5,2.25c9.63,5.56,10.1,14.33,1,19.59s-24.2,5-33.83-.54a20,20,0,0,1-3.91-2.88A47.31,47.31,0,0,1,207.52,348c-12.72-7.35-13.83-18.64-2.48-25.24S235.88,316.81,248.6,324.15Z" transform="translate(-53.58 -70.2)" fill="#acace9"/></g><path d="M277.66,201.47l.61-1.41s.26-4.49.22-5.12,1.78-2.23,2-2.42,1.38-1.5,1.38-1.5a37.37,37.37,0,0,1,3.48-4.41c.77-.54,1.05.45.39,2a36.69,36.69,0,0,0-1.29,4s3.07,1.61,3.43,2.32a11.07,11.07,0,0,1-.45,4.82c-.33.31-.68-.27-.68-.27a2.92,2.92,0,0,1-1.89,2.23l-1.3,2.89Z" transform="translate(-53.58 -70.2)" fill="url(#a66eacc0-8e00-4161-aee2-b7ad72a0d65f)"/><polygon points="156.91 164.71 160.24 168.62 165.72 163.85 160.59 159.15 156.91 164.71" fill="url(#b05a7021-0f3e-45bd-8809-25a0180aaadf)"/><path d="M213.64,187.46s-3.19,1.12-8.12,7.1S191.44,211,191.67,215.93s18.37,20.7,19.79,20.93,5.25-4.69,4.75-7-10.33-13.54-10.69-14,11.39-10.3,11.39-10.3Z" transform="translate(-53.58 -70.2)" fill="url(#a2d13c06-b1ab-4a00-a0be-484751dceb60)"/><path d="M232.25,346.1a39,39,0,0,0-.87,7.46c.09,3,2.89,5,6.15,5.24s5.8-2.71,13.18-6.4c7.71-3.86,10.43-6.35,9.54-11.47-.7-4.05-10-2.11-16.93-.44A31,31,0,0,0,232.25,346.1Z" transform="translate(-53.58 -70.2)" fill="url(#b5d005d6-52a7-4b14-b2ad-3a40771fb808)"/><path d="M212.69,332s-1.68,5.31-1.58,8.28,1.77,6,5,6.25,7.15-.68,9.8-8.49c1.45-4.27,6.77-11.11.92-14.64-3.52-2.12-4,5-10.85,6.7C209.86,331.58,212.69,332,212.69,332Z" transform="translate(-53.58 -70.2)" fill="url(#b480d5a5-a2cd-456a-8188-1c1ea6f2984e)"/><path d="M233.24,283.71c-.69,1.78-5.79,35.39-7.83,49.62-1.1,5.41-13.78,6.29-14.34,1.85,0,0-1.11-32.68,1.77-47l.06-22.27a71,71,0,0,1,0-21l27.43,8.35Z" transform="translate(-53.58 -70.2)" fill="url(#b4574d81-eee6-4887-bee6-8bea5d9a5275)"/><path d="M222.66,254.79c.67,3,1.09,8.71,3.68,12.66.41.61.78,1.24,1.13,1.86.07.29,1.11,4.17,2.39,9.38s.22,15.94,1.33,21.5c-.61,6.61,0,43.35,0,46.41,1.12,4.16,15.17,4.84,16.61-2.2,0,0,.09-35.1,1.91-44.31a40.21,40.21,0,0,0,.64-5.32c.34-5.65,1-15.94,1.14-20.24.37-8.37.61-19,.32-22.16l-17.55,3.85Z" transform="translate(-53.58 -70.2)" fill="url(#bd177c59-26cf-4fe2-b565-60947a1ae76d)"/><path d="M218.82,254.59a18.7,18.7,0,0,0,13.38,4.78c8.33-.36-8.92-18.63-8.92-18.63Z" transform="translate(-53.58 -70.2)" fill="url(#af6cd2e2-70b7-47a8-889e-c57ee5d11792)"/><path d="M252.51,252.36c0,2.35-1,9.71-10.25,11.35s-17.45-3.28-17.45-3.28l-1.18-15L221,257.94s-7.94-5.26-8.81-7.62-.71-6.89,1.1-16.13.39-18.22-2.35-29.57.23-16.59,3.05-17.27,9.12,1.39,9.12,1.39,10.45,1.69,12.5,3.63,11,8.57,11,8.57L251.27,211l-.6,7.59-.42,5.38a74.26,74.26,0,0,0,.1,13c.15,1.56.34,3.11.58,4.66C251.71,246.55,252.51,251.78,252.51,252.36Z" transform="translate(-53.58 -70.2)" fill="url(#e5fb06e1-29bc-491b-9b1a-778b364e8bd5)"/><path d="M245.8,170.36a111.32,111.32,0,0,1-.41,13.34c-.63,4.64-6,4.11-6,4.11l-.47,7.69s-8.65.65-11.82-4.69l.55-5.49s-6.83-7.07-4.72-14.63,8.45-9.66,13.14-9.62S245.62,163.87,245.8,170.36Z" transform="translate(-53.58 -70.2)" fill="url(#e6e80681-05ff-437c-9091-0fb71ab409e1)"/><path d="M245.89,171.12s-.22,2.43-1.83,3-1.59.44-1.59.44v3.17l-1.7.58s-.18-2.75-1.41-3-1.67,3.67-.79,4.73a1.75,1.75,0,0,0,1.79.76s-1.67,6.38-5,7.51-7.18-.72-8.8-2.09c-1-.86-1.45-1.84-2.67-4.37-.72-1.51-2.47-4-2.74-6.15-.71-5.85,1.73-6.42,1.73-6.42s-1.13-3.36,2.66-7.27,10.36-4.43,14.12-2.27,6.85,3,8.22,2.62,1.29,2.82-.31,3.72c0,0,2.77,0,2.54.9S249.1,171.47,245.89,171.12Z" transform="translate(-53.58 -70.2)" fill="url(#ab3d7726-0efa-47d2-8c95-8a411968830e)"/><path d="M241.19,196.81s-.8-4.05-1.09-4.62-1.41-.88-6.53-1.76-6.58-3.16-7.52-3.48-2.93,1.79-2.93,1.79,2.14,5,9,6.37S241.19,196.81,241.19,196.81Z" transform="translate(-53.58 -70.2)" fill="url(#af19f07b-585b-4b6e-b6a0-d6e4670b9e06)"/><path d="M224.14,242.48h0a.25.25,0,0,1-.23-.27,201.27,201.27,0,0,0,.28-28.72c-1-13.63,1.13-19.36,1.22-19.59a.25.25,0,1,1,.46.18c0,.05-2.22,5.87-1.18,19.37a204.23,204.23,0,0,1-.28,28.81A.25.25,0,0,1,224.14,242.48Z" transform="translate(-53.58 -70.2)" fill="#3d41c1" opacity="0.29" style="mix-blend-mode:multiply"/><path d="M250.35,237l-.17-.13c-11.36-8.64-10.29-25-10.29-25l10.78,6.74-.42,5.38A74.26,74.26,0,0,0,250.35,237Z" transform="translate(-53.58 -70.2)" fill="#3d41c1" opacity="0.29" style="mix-blend-mode:multiply"/><path d="M276.9,202.27a12.63,12.63,0,0,1,1-1.6,7,7,0,0,1,4.17,1.11c1.93,1.14,2.3,1.84,2.36,2a18.63,18.63,0,0,1-.53,2.27Z" transform="translate(-53.58 -70.2)" fill="url(#bd6643b6-99cb-445b-a068-44259516ae81)"/><path d="M265.78,218s-16.31-16.82-20.39-17.59-7,4.92-5.5,11.43,10,12.07,15.28,16.38,9.86,6.34,13.77,5.87,15.64-26.26,15.19-28.2c-.62-2.67-7.27-5.51-8.12-3.45Z" transform="translate(-53.58 -70.2)" fill="url(#a20f8228-aa01-414f-bb7b-7e1777de7b94)"/><path d="M283,206.36a.53.53,0,1,1-.52-.53A.52.52,0,0,1,283,206.36Z" transform="translate(-53.58 -70.2)" fill="url(#ecd8b072-1b64-418d-b255-96a2bbf2f903)"/><path d="M282.48,208.2a.53.53,0,1,1-.53-.53A.53.53,0,0,1,282.48,208.2Z" transform="translate(-53.58 -70.2)" fill="url(#acbb6183-2638-4384-9f0f-5cf1f9b75205)"/><g opacity="0.35" style="mix-blend-mode:multiply"><path d="M363.75,75.72l5.05-2.94c4.59-2.67,11-2.29,18,1.77l-5.05,2.93C374.71,73.43,368.34,73.05,363.75,75.72Z" transform="translate(-53.58 -70.2)" fill="#c0c0ed"/><path d="M404.6,134.39l-5.05,2.94c4.54-2.64,7.36-8.25,7.38-16.22,0-16-11.23-35.57-25.19-43.63l5.05-2.93c14,8.06,25.23,27.59,25.19,43.63C412,126.15,409.14,131.76,404.6,134.39Z" transform="translate(-53.58 -70.2)" fill="#c0c0ed"/><path d="M381.74,77.48c14,8.06,25.23,27.59,25.19,43.63s-11.4,22.52-25.36,14.46S356.33,108,356.38,91.93,367.77,69.42,381.74,77.48Z" transform="translate(-53.58 -70.2)" fill="#c0c0ed"/><path d="M402,118.25c0,6.76-2.52,11.41-6.52,13.38-3.64,1.78-8.52,1.35-13.86-1.75-11.24-6.48-20.31-22.19-20.28-35.1,0-7.69,3.27-12.66,8.3-14h0c3.38-.92,7.56-.2,12.09,2.41C393,89.65,402,105.36,402,118.25Z" transform="translate(-53.58 -70.2)" fill="#c0c0ed"/><path d="M402,118.25c0,6.76-2.52,11.41-6.52,13.38-3.39,1-7.61.26-12.17-2.38C372.06,122.77,363,107,363,94.15c0-6.8,2.55-11.45,6.59-13.39h0c3.38-.92,7.56-.2,12.09,2.41C393,89.65,402,105.36,402,118.25Z" transform="translate(-53.58 -70.2)" fill="#c0c0ed"/><path d="M382.56,84.66a.88.88,0,0,1,.38.69v3.46c0,.25-.17.35-.38.23a.9.9,0,0,1-.38-.69V84.89C382.18,84.63,382.35,84.53,382.56,84.66Z" transform="translate(-53.58 -70.2)" fill="#c0c0ed"/><path d="M373.71,82.15a.88.88,0,0,1,.32.42l1.42,3.87c.11.29,0,.52-.14.55a.32.32,0,0,1-.18-.06.89.89,0,0,1-.33-.42l-1.42-3.87c-.11-.28,0-.52.14-.54A.29.29,0,0,1,373.71,82.15Z" transform="translate(-53.58 -70.2)" fill="#c0c0ed"/><path d="M367.21,86.05a.62.62,0,0,1,.18.18l2.48,3.23a.7.7,0,0,1,.13.71c-.07.11-.19.11-.32,0a.75.75,0,0,1-.19-.17L367,86.79a.68.68,0,0,1-.13-.71C367,86,367.08,86,367.21,86.05Z" transform="translate(-53.58 -70.2)" fill="#c0c0ed"/><path d="M367.67,97.05a.89.89,0,0,1,.37.69c0,.24-.17.35-.37.22l-2.87-1.74a.84.84,0,0,1-.37-.68c0-.26.17-.36.38-.23Z" transform="translate(-53.58 -70.2)" fill="#c0c0ed"/><path d="M369.63,107.23a.81.81,0,0,1,.32.43c.11.28.05.52-.13.54l-2.49.22a.25.25,0,0,1-.18,0,.87.87,0,0,1-.33-.43c-.11-.29,0-.53.14-.54l2.48-.22A.27.27,0,0,1,369.63,107.23Z" transform="translate(-53.58 -70.2)" fill="#c0c0ed"/><path d="M375,117.1a.6.6,0,0,1,.19.17.69.69,0,0,1,.14.71l-1.44,2.13a.23.23,0,0,1-.33,0,.79.79,0,0,1-.19-.18.68.68,0,0,1-.13-.71l1.44-2.12C374.79,117,374.91,117,375,117.1Z" transform="translate(-53.58 -70.2)" fill="#c0c0ed"/><path d="M382.45,124a.88.88,0,0,1,.38.68v3.46c0,.26-.17.36-.38.23a.89.89,0,0,1-.37-.69v-3.46C382.08,124,382.25,123.88,382.45,124Z" transform="translate(-53.58 -70.2)" fill="#c0c0ed"/><path d="M389.88,126.11a.87.87,0,0,1,.33.43l1.42,3.86c.1.28,0,.53-.14.55a.35.35,0,0,1-.19-.06.87.87,0,0,1-.33-.43l-1.42-3.86c-.1-.29,0-.52.15-.54A.26.26,0,0,1,389.88,126.11Z" transform="translate(-53.58 -70.2)" fill="#c0c0ed"/><path d="M395.33,122.84a.79.79,0,0,1,.19.18l2.47,3.24a.69.69,0,0,1,.14.7c-.07.11-.2.11-.33,0a.73.73,0,0,1-.19-.17l-2.47-3.24a.71.71,0,0,1-.14-.71A.23.23,0,0,1,395.33,122.84Z" transform="translate(-53.58 -70.2)" fill="#c0c0ed"/><path d="M400.2,116.82a.88.88,0,0,1,.38.69c0,.25-.17.35-.38.22L397.34,116a.86.86,0,0,1-.37-.68c0-.25.17-.36.37-.23Z" transform="translate(-53.58 -70.2)" fill="#c0c0ed"/><path d="M397.86,104.68a.83.83,0,0,1,.33.43c.1.28,0,.52-.14.54l-2.49.22a.25.25,0,0,1-.18-.05.87.87,0,0,1-.33-.43c-.11-.28,0-.53.14-.55l2.48-.22A.35.35,0,0,1,397.86,104.68Z" transform="translate(-53.58 -70.2)" fill="#c0c0ed"/><path d="M391.4,92.9a.64.64,0,0,1,.19.18.71.71,0,0,1,.14.71l-1.44,2.13a.23.23,0,0,1-.33,0,.72.72,0,0,1-.18-.17.71.71,0,0,1-.14-.72l1.43-2.13A.24.24,0,0,1,391.4,92.9Z" transform="translate(-53.58 -70.2)" fill="#c0c0ed"/><path d="M372.11,98.14l2.2-1.28a.22.22,0,0,1,.23,0,.47.47,0,0,1,.14.12l-2.2,1.28a.4.4,0,0,0-.15-.12A.2.2,0,0,0,372.11,98.14Z" transform="translate(-53.58 -70.2)" fill="#c0c0ed"/><path d="M381.42,106.19a1.47,1.47,0,0,0,.66,1.14l-2.2,1.28a1.47,1.47,0,0,1-.66-1.14.47.47,0,0,1,.2-.42l2.2-1.28A.47.47,0,0,0,381.42,106.19Z" transform="translate(-53.58 -70.2)" fill="#c0c0ed"/><path d="M382.08,107.33a.48.48,0,0,0,.47,0l-2.2,1.27a.45.45,0,0,1-.47,0Z" transform="translate(-53.58 -70.2)" fill="#c0c0ed"/><path d="M379.42,107.05l2.2-1.28a.44.44,0,0,1,.46,0l-2.2,1.28A.44.44,0,0,0,379.42,107.05Z" transform="translate(-53.58 -70.2)" fill="#c0c0ed"/><path d="M382.55,107.38l-2.2,1.27a.44.44,0,0,0,.19-.42,1.42,1.42,0,0,0-.66-1.13l2.2-1.28a1.42,1.42,0,0,1,.66,1.13A.47.47,0,0,1,382.55,107.38Z" transform="translate(-53.58 -70.2)" fill="#c0c0ed"/><path d="M383.09,108.32l-2.2,1.28a.9.9,0,0,0,.41-.76l2.2-1.28A.9.9,0,0,1,383.09,108.32Z" transform="translate(-53.58 -70.2)" fill="#c0c0ed"/><path d="M393.8,105.92l-2.2,1.28c.15-.09,0-.46-.17-.57l2.2-1.28C393.83,105.46,394,105.83,393.8,105.92Z" transform="translate(-53.58 -70.2)" fill="#c0c0ed"/><path d="M391.43,106.63c.21.12.34.55.12.59l-10.25,1.62c-.07.79-.68,1.09-1.42.66a3.22,3.22,0,0,1-1.36-1.93l-6.37-8.82c-.28-.4-.1-.76.18-.59a.4.4,0,0,1,.15.12l7.08,7.78a1.3,1.3,0,0,1,.33.14,2.77,2.77,0,0,1,.62.53l10.8-.14A.28.28,0,0,1,391.43,106.63Zm-11.55,2c.36.21.66,0,.66-.38a1.42,1.42,0,0,0-.66-1.13c-.36-.21-.66,0-.66.37a1.47,1.47,0,0,0,.66,1.14" transform="translate(-53.58 -70.2)" fill="#c0c0ed"/><path d="M379.88,107.1a1.42,1.42,0,0,1,.66,1.13c0,.42-.3.59-.66.38a1.47,1.47,0,0,1-.66-1.14C379.22,107.05,379.52,106.89,379.88,107.1Z" transform="translate(-53.58 -70.2)" fill="#c0c0ed"/><polygon points="318.9 28.08 321.1 26.8 328.18 34.58 325.98 35.86 318.9 28.08" fill="#c0c0ed"/><path d="M379.56,106.06l2.2-1.28a1.3,1.3,0,0,1,.33.14,2.57,2.57,0,0,1,.62.53l-2.2,1.28a2.77,2.77,0,0,0-.62-.53A1.3,1.3,0,0,0,379.56,106.06Z" transform="translate(-53.58 -70.2)" fill="#c0c0ed"/><polygon points="326.93 36.53 329.13 35.25 339.93 35.11 337.73 36.39 326.93 36.53" fill="#c0c0ed"/><path d="M391.31,106.59l2.2-1.27a.27.27,0,0,1,.12,0l-2.2,1.28A.28.28,0,0,0,391.31,106.59Z" transform="translate(-53.58 -70.2)" fill="#c0c0ed"/></g><g style="isolation:isolate"><path d="M355.75,79.72l5.05-2.94c4.59-2.67,11-2.29,18,1.77l-5.05,2.93C366.71,77.43,360.34,77.05,355.75,79.72Z" transform="translate(-53.58 -70.2)" fill="url(#bdd32615-7ba2-4630-9d0f-a11fc3be32df)"/><path d="M396.6,138.39l-5.05,2.94c4.54-2.64,7.36-8.25,7.38-16.22,0-16-11.23-35.57-25.19-43.63l5.05-2.93c14,8.06,25.23,27.59,25.19,43.63C404,130.15,401.14,135.76,396.6,138.39Z" transform="translate(-53.58 -70.2)" fill="url(#b6d8c4c0-393a-4844-afc7-a0bec6f05e2a)"/><path d="M373.74,81.48c14,8.06,25.23,27.59,25.19,43.63s-11.4,22.52-25.36,14.46S348.33,112,348.38,95.93,359.77,73.42,373.74,81.48Z" transform="translate(-53.58 -70.2)" fill="url(#fdeed0a7-2af2-4acb-9533-d183e1671552)"/></g><path d="M394,122.25c0,6.76-2.52,11.41-6.52,13.38-3.64,1.78-8.52,1.35-13.86-1.75-11.24-6.48-20.31-22.19-20.28-35.1,0-7.69,3.27-12.66,8.3-14h0c3.38-.92,7.56-.2,12.09,2.41C385,93.65,394,109.36,394,122.25Z" transform="translate(-53.58 -70.2)" fill="#9ca1e2"/><path d="M394,122.25c0,6.76-2.52,11.41-6.52,13.38-3.39,1-7.61.26-12.17-2.38C364.06,126.77,355,111,355,98.15c0-6.8,2.55-11.45,6.59-13.39h0c3.38-.92,7.56-.2,12.09,2.41C385,93.65,394,109.36,394,122.25Z" transform="translate(-53.58 -70.2)" fill="#c1c5f4"/><path d="M374.56,88.66a.88.88,0,0,1,.38.69v3.46c0,.25-.17.35-.38.23a.9.9,0,0,1-.38-.69V88.89C374.18,88.63,374.35,88.53,374.56,88.66Z" transform="translate(-53.58 -70.2)" fill="#9ca1e2"/><path d="M365.71,86.15a.88.88,0,0,1,.32.42l1.42,3.87c.11.29,0,.52-.14.55a.32.32,0,0,1-.18-.06.89.89,0,0,1-.33-.42l-1.42-3.87c-.11-.28,0-.52.14-.54A.29.29,0,0,1,365.71,86.15Z" transform="translate(-53.58 -70.2)" fill="#9ca1e2"/><path d="M359.21,90.05a.62.62,0,0,1,.18.18l2.48,3.23a.7.7,0,0,1,.13.71c-.07.11-.19.11-.32,0a.75.75,0,0,1-.19-.17L359,90.79a.68.68,0,0,1-.13-.71C359,90,359.08,90,359.21,90.05Z" transform="translate(-53.58 -70.2)" fill="#9ca1e2"/><path d="M359.67,101.05a.89.89,0,0,1,.37.69c0,.24-.17.35-.37.22l-2.87-1.74a.84.84,0,0,1-.37-.68c0-.26.17-.36.38-.23Z" transform="translate(-53.58 -70.2)" fill="#9ca1e2"/><path d="M361.63,111.23a.81.81,0,0,1,.32.43c.11.28.05.52-.13.54l-2.49.22a.25.25,0,0,1-.18,0,.87.87,0,0,1-.33-.43c-.11-.29,0-.53.14-.54l2.48-.22A.27.27,0,0,1,361.63,111.23Z" transform="translate(-53.58 -70.2)" fill="#9ca1e2"/><path d="M367,121.1a.6.6,0,0,1,.19.17.69.69,0,0,1,.14.71l-1.44,2.13a.23.23,0,0,1-.33,0,.79.79,0,0,1-.19-.18.68.68,0,0,1-.13-.71l1.44-2.12C366.79,121,366.91,121,367,121.1Z" transform="translate(-53.58 -70.2)" fill="#9ca1e2"/><path d="M374.45,128a.88.88,0,0,1,.38.68v3.46c0,.26-.17.36-.38.23a.89.89,0,0,1-.37-.69v-3.46C374.08,128,374.25,127.88,374.45,128Z" transform="translate(-53.58 -70.2)" fill="#9ca1e2"/><path d="M381.88,130.11a.87.87,0,0,1,.33.43l1.42,3.86c.1.28,0,.53-.14.55a.35.35,0,0,1-.19-.06.87.87,0,0,1-.33-.43l-1.42-3.86c-.1-.29,0-.52.15-.54A.26.26,0,0,1,381.88,130.11Z" transform="translate(-53.58 -70.2)" fill="#9ca1e2"/><path d="M387.33,126.84a.79.79,0,0,1,.19.18l2.47,3.24a.69.69,0,0,1,.14.7c-.07.11-.2.11-.33,0a.73.73,0,0,1-.19-.17l-2.47-3.24a.71.71,0,0,1-.14-.71A.23.23,0,0,1,387.33,126.84Z" transform="translate(-53.58 -70.2)" fill="#9ca1e2"/><path d="M392.2,120.82a.88.88,0,0,1,.38.69c0,.25-.17.35-.38.22L389.34,120a.86.86,0,0,1-.37-.68c0-.25.17-.36.37-.23Z" transform="translate(-53.58 -70.2)" fill="#9ca1e2"/><path d="M389.86,108.68a.83.83,0,0,1,.33.43c.1.28,0,.52-.14.54l-2.49.22a.25.25,0,0,1-.18-.05.87.87,0,0,1-.33-.43c-.11-.28,0-.53.14-.55l2.48-.22A.35.35,0,0,1,389.86,108.68Z" transform="translate(-53.58 -70.2)" fill="#9ca1e2"/><path d="M383.4,96.9a.64.64,0,0,1,.19.18.71.71,0,0,1,.14.71l-1.44,2.13a.23.23,0,0,1-.33,0,.72.72,0,0,1-.18-.17.71.71,0,0,1-.14-.72l1.43-2.13A.24.24,0,0,1,383.4,96.9Z" transform="translate(-53.58 -70.2)" fill="#9ca1e2"/><g style="isolation:isolate"><path d="M364.11,102.14l2.2-1.28a.22.22,0,0,1,.23,0,.47.47,0,0,1,.14.12l-2.2,1.28a.4.4,0,0,0-.15-.12A.2.2,0,0,0,364.11,102.14Z" transform="translate(-53.58 -70.2)" fill="#2f97ed"/><path d="M373.42,110.19a1.47,1.47,0,0,0,.66,1.14l-2.2,1.28a1.47,1.47,0,0,1-.66-1.14.47.47,0,0,1,.2-.42l2.2-1.28A.47.47,0,0,0,373.42,110.19Z" transform="translate(-53.58 -70.2)" fill="#2f97ed"/><path d="M374.08,111.33a.48.48,0,0,0,.47,0l-2.2,1.27a.45.45,0,0,1-.47,0Z" transform="translate(-53.58 -70.2)" fill="#2f97ed"/><path d="M371.42,111.05l2.2-1.28a.44.44,0,0,1,.46,0l-2.2,1.28A.44.44,0,0,0,371.42,111.05Z" transform="translate(-53.58 -70.2)" fill="#fff"/><path d="M374.55,111.38l-2.2,1.27a.44.44,0,0,0,.19-.42,1.42,1.42,0,0,0-.66-1.13l2.2-1.28a1.42,1.42,0,0,1,.66,1.13A.47.47,0,0,1,374.55,111.38Z" transform="translate(-53.58 -70.2)" fill="#fff"/><path d="M375.09,112.32l-2.2,1.28a.9.9,0,0,0,.41-.76l2.2-1.28A.9.9,0,0,1,375.09,112.32Z" transform="translate(-53.58 -70.2)" fill="#2f97ed"/><path d="M385.8,109.92l-2.2,1.28c.15-.09,0-.46-.17-.57l2.2-1.28C385.83,109.46,386,109.83,385.8,109.92Z" transform="translate(-53.58 -70.2)" fill="#2f97ed"/><path d="M383.43,110.63c.21.12.34.55.12.59l-10.25,1.62c-.07.79-.68,1.09-1.42.66a3.22,3.22,0,0,1-1.36-1.93l-6.37-8.82c-.28-.4-.1-.76.18-.59a.4.4,0,0,1,.15.12l7.08,7.78a1.3,1.3,0,0,1,.33.14,2.77,2.77,0,0,1,.62.53l10.8-.14A.28.28,0,0,1,383.43,110.63Zm-11.55,2c.36.21.66,0,.66-.38a1.42,1.42,0,0,0-.66-1.13c-.36-.21-.66,0-.66.37a1.47,1.47,0,0,0,.66,1.14" transform="translate(-53.58 -70.2)" fill="url(#b4f5ca02-498a-4246-9f34-9115c356b81a)"/><path d="M371.88,111.1a1.42,1.42,0,0,1,.66,1.13c0,.42-.3.59-.66.38a1.47,1.47,0,0,1-.66-1.14C371.22,111.05,371.52,110.89,371.88,111.1Z" transform="translate(-53.58 -70.2)" fill="#fff"/><polygon points="310.9 32.08 313.1 30.8 320.18 38.58 317.98 39.86 310.9 32.08" fill="#2f97ed"/><path d="M371.56,110.06l2.2-1.28a1.3,1.3,0,0,1,.33.14,2.57,2.57,0,0,1,.62.53l-2.2,1.28a2.77,2.77,0,0,0-.62-.53A1.3,1.3,0,0,0,371.56,110.06Z" transform="translate(-53.58 -70.2)" fill="#2f97ed"/><polygon points="318.93 40.53 321.13 39.25 331.93 39.11 329.73 40.39 318.93 40.53" fill="#2f97ed"/><path d="M383.31,110.59l2.2-1.27a.27.27,0,0,1,.12,0l-2.2,1.28A.28.28,0,0,0,383.31,110.59Z" transform="translate(-53.58 -70.2)" fill="#2f97ed"/></g><g opacity="0.35" style="mix-blend-mode:multiply"><path d="M320.51,107.51a8.62,8.62,0,0,1,3.92,6.78l-.13,47c0,2.49-1.78,3.49-3.95,2.23l-63.68-36.76a8.63,8.63,0,0,1-3.91-6.78l.13-47c0-2.49,1.77-3.49,3.94-2.24Z" transform="translate(-53.58 -70.2)" fill="#c0c0ed"/><path d="M269.93,86.27v3.92c-3.26-1.84-5.88-.3-5.89,3.46a12.8,12.8,0,0,0,2.67,7.29l-1.83,2.24a20.12,20.12,0,0,1-4.25-11.5C260.64,85.76,264.8,83.37,269.93,86.27Z" transform="translate(-53.58 -70.2)" fill="#c0c0ed"/><path d="M270,86.32c5.18,3,9.36,10.23,9.35,16.19s-4.23,8.34-9.41,5.35a17.53,17.53,0,0,1-5.09-4.68l1.83-2.24a11.18,11.18,0,0,0,3.27,3c3.3,1.91,6,.37,6-3.41A13.09,13.09,0,0,0,270,90.24l-.09,0V86.27Z" transform="translate(-53.58 -70.2)" fill="#c0c0ed"/><path d="M285.66,125.53a3.61,3.61,0,0,1,1.65,2.87c0,1-.74,1.48-1.66.95a3.67,3.67,0,0,1-1.66-2.87C284,125.43,284.74,125,285.66,125.53Z" transform="translate(-53.58 -70.2)" fill="#c0c0ed"/><path d="M294.5,100.46v3.91c-3.3-1.91-6-.38-6,3.41a13.1,13.1,0,0,0,5.95,10.3c2.31,1.34,4.31,1,5.31-.65l3,3.54c-1.57,2.56-4.72,3.11-8.34,1-5.17-3-9.36-10.24-9.34-16.19S289.33,97.47,294.5,100.46Z" transform="translate(-53.58 -70.2)" fill="#c0c0ed"/><path d="M294.5,100.46c5.17,3,9.36,10.22,9.34,16.18a8.25,8.25,0,0,1-1.06,4.33l-3-3.54a5.12,5.12,0,0,0,.68-2.76,13.09,13.09,0,0,0-5.95-10.3Z" transform="translate(-53.58 -70.2)" fill="#c0c0ed"/><polygon points="266.72 64.29 266.71 66.51 257.19 61.01 257.19 58.79 266.72 64.29" fill="#c0c0ed"/><polygon points="266.74 57.99 266.73 60.2 257.2 54.7 257.21 52.49 266.74 57.99" fill="#c0c0ed"/><polygon points="266.75 51.69 266.75 53.91 257.22 48.41 257.23 46.19 266.75 51.69" fill="#c0c0ed"/><polygon points="266.77 45.39 266.76 47.61 257.24 42.11 257.25 39.89 266.77 45.39" fill="#c0c0ed"/><polygon points="266.7 70.59 266.69 72.81 257.17 67.31 257.17 65.09 266.7 70.59" fill="#c0c0ed"/><path d="M258.53,109.86a3.68,3.68,0,0,1,1.65,2.87c0,1-.75,1.48-1.66,1a3.66,3.66,0,0,1-1.66-2.88C256.86,109.76,257.61,109.33,258.53,109.86Z" transform="translate(-53.58 -70.2)" fill="#c0c0ed"/><polygon points="226.33 52.97 226.32 54.7 209.24 44.84 209.25 43.1 226.33 52.97" fill="#c0c0ed"/><path d="M258.5,118.54a3.6,3.6,0,0,1,1.65,2.86c0,1.06-.74,1.49-1.66,1a3.67,3.67,0,0,1-1.66-2.87C256.84,118.44,257.58,118,258.5,118.54Z" transform="translate(-53.58 -70.2)" fill="#c0c0ed"/><polygon points="226.31 61.64 226.3 63.38 209.22 53.51 209.22 51.78 226.31 61.64" fill="#c0c0ed"/><polygon points="253.43 77.3 253.43 79.04 236.35 69.18 236.36 67.44 253.43 77.3" fill="#c0c0ed"/><polygon points="253.46 68.63 253.45 70.36 236.38 60.51 236.38 58.77 253.46 68.63" fill="#c0c0ed"/><path d="M285.64,134.2a3.68,3.68,0,0,1,1.65,2.87c0,1.05-.75,1.48-1.66,1a3.66,3.66,0,0,1-1.66-2.88C284,134.1,284.71,133.67,285.64,134.2Z" transform="translate(-53.58 -70.2)" fill="#c0c0ed"/></g><path d="M316.51,111.51a8.62,8.62,0,0,1,3.92,6.78l-.13,47c0,2.49-1.78,3.49-3.95,2.23l-63.68-36.76a8.63,8.63,0,0,1-3.91-6.78l.13-47c0-2.49,1.77-3.49,3.94-2.24Z" transform="translate(-53.58 -70.2)" fill="url(#b87c3cf7-1292-44f4-b6b1-40d06ed15909)"/><path d="M265.93,90.27v3.92c-3.26-1.84-5.88-.3-5.89,3.46a12.8,12.8,0,0,0,2.67,7.29l-1.83,2.24a20.12,20.12,0,0,1-4.25-11.5C256.64,89.76,260.8,87.37,265.93,90.27Z" transform="translate(-53.58 -70.2)" fill="#c1c5f4"/><path d="M266,90.32c5.18,3,9.36,10.23,9.35,16.19s-4.23,8.34-9.41,5.35a17.53,17.53,0,0,1-5.09-4.68l1.83-2.24a11.18,11.18,0,0,0,3.27,3c3.3,1.91,6,.37,6-3.41A13.09,13.09,0,0,0,266,94.24l-.09,0V90.27Z" transform="translate(-53.58 -70.2)" fill="url(#a00316e4-93e3-46fd-89e8-544c1064d395)"/><path d="M281.66,129.53a3.61,3.61,0,0,1,1.65,2.87c0,1-.74,1.48-1.66.95a3.67,3.67,0,0,1-1.66-2.87C280,129.43,280.74,129,281.66,129.53Z" transform="translate(-53.58 -70.2)" fill="#c1c5f4"/><path d="M290.5,104.46v3.91c-3.3-1.91-6-.38-6,3.41a13.1,13.1,0,0,0,5.95,10.3c2.31,1.34,4.31,1,5.31-.65l3,3.54c-1.57,2.56-4.72,3.11-8.34,1-5.17-3-9.36-10.24-9.34-16.19S285.33,101.47,290.5,104.46Z" transform="translate(-53.58 -70.2)" fill="#c1c5f4"/><path d="M290.5,104.46c5.17,3,9.36,10.22,9.34,16.18a8.25,8.25,0,0,1-1.06,4.33l-3-3.54a5.12,5.12,0,0,0,.68-2.76,13.09,13.09,0,0,0-5.95-10.3Z" transform="translate(-53.58 -70.2)" fill="url(#ed5ecd38-b67d-4f12-b9ad-b9c781e20a31)"/><polygon points="262.72 68.29 262.71 70.51 253.19 65.01 253.19 62.79 262.72 68.29" fill="#c1c5f4"/><polygon points="262.74 61.99 262.73 64.2 253.2 58.7 253.21 56.49 262.74 61.99" fill="#c1c5f4"/><polygon points="262.75 55.69 262.75 57.91 253.22 52.41 253.23 50.19 262.75 55.69" fill="#c1c5f4"/><polygon points="262.77 49.39 262.76 51.61 253.24 46.11 253.25 43.89 262.77 49.39" fill="#c1c5f4"/><polygon points="262.7 74.59 262.69 76.81 253.17 71.31 253.17 69.09 262.7 74.59" fill="#c1c5f4"/><path d="M254.53,113.86a3.68,3.68,0,0,1,1.65,2.87c0,1-.75,1.48-1.66,1a3.66,3.66,0,0,1-1.66-2.88C252.86,113.76,253.61,113.33,254.53,113.86Z" transform="translate(-53.58 -70.2)" fill="#c1c5f4"/><polygon points="222.33 56.97 222.32 58.7 205.24 48.84 205.25 47.1 222.33 56.97" fill="#c1c5f4"/><path d="M254.5,122.54a3.6,3.6,0,0,1,1.65,2.86c0,1.06-.74,1.49-1.66,1a3.67,3.67,0,0,1-1.66-2.87C252.84,122.44,253.58,122,254.5,122.54Z" transform="translate(-53.58 -70.2)" fill="#c1c5f4"/><polygon points="222.31 65.64 222.3 67.38 205.22 57.51 205.22 55.78 222.31 65.64" fill="#c1c5f4"/><polygon points="249.43 81.3 249.43 83.04 232.35 73.18 232.36 71.44 249.43 81.3" fill="#c1c5f4"/><polygon points="249.46 72.63 249.45 74.36 232.38 64.5 232.38 62.77 249.46 72.63" fill="#c1c5f4"/><path d="M281.64,138.2a3.68,3.68,0,0,1,1.65,2.87c0,1.05-.75,1.48-1.66,1a3.66,3.66,0,0,1-1.66-2.88C280,138.1,280.71,137.67,281.64,138.2Z" transform="translate(-53.58 -70.2)" fill="#c1c5f4"/><g opacity="0.35" style="mix-blend-mode:multiply"><path d="M352,126a4.18,4.18,0,0,1,1.91,3.31l-.16,57.58c0,1.22-.86,1.71-1.92,1.1l-15.36-8.87a4.18,4.18,0,0,1-1.91-3.31l.16-57.58c0-1.22.87-1.71,1.93-1.09Z" transform="translate(-53.58 -70.2)" fill="#c0c0ed"/><path d="M344.24,132a2.91,2.91,0,0,1,1.32,2.28c0,.84-.6,1.17-1.33.75a2.85,2.85,0,0,1-1.31-2.28C342.92,131.91,343.51,131.56,344.24,132Z" transform="translate(-53.58 -70.2)" fill="#c0c0ed"/><path d="M344.19,150.78a2.91,2.91,0,0,1,1.32,2.28c0,.84-.6,1.17-1.33.75a2.91,2.91,0,0,1-1.32-2.28C342.87,150.69,343.46,150.35,344.19,150.78Z" transform="translate(-53.58 -70.2)" fill="#c0c0ed"/><path d="M344.14,169.56a2.91,2.91,0,0,1,1.31,2.29c0,.84-.59,1.17-1.32.75a2.88,2.88,0,0,1-1.32-2.28C342.81,169.48,343.4,169.14,344.14,169.56Z" transform="translate(-53.58 -70.2)" fill="#c0c0ed"/><path d="M344.15,164.25a13.07,13.07,0,0,1,5.94,10.27c0,3.79-2.69,5.31-6,3.42a13.07,13.07,0,0,1-5.93-10.3C338.19,163.87,340.86,162.35,344.15,164.25Zm0,11.37c2.18,1.26,4,.26,4-2.26a8.71,8.71,0,0,0-3.93-6.82c-2.19-1.26-4-.24-4,2.26a8.66,8.66,0,0,0,3.94,6.82" transform="translate(-53.58 -70.2)" fill="#c0c0ed"/><path d="M344.2,145.46a13.07,13.07,0,0,1,5.94,10.27c0,3.79-2.69,5.31-6,3.42a13.1,13.1,0,0,1-5.94-10.3C338.24,145.08,340.92,143.56,344.2,145.46Zm0,11.38c2.18,1.25,4,.24,4-2.26a8.72,8.72,0,0,0-3.94-6.83c-2.19-1.26-4-.24-4,2.26a8.73,8.73,0,0,0,3.94,6.83" transform="translate(-53.58 -70.2)" fill="#c0c0ed"/><path d="M344.26,126.67a13.08,13.08,0,0,1,5.94,10.27c0,3.79-2.69,5.32-6,3.42a13.1,13.1,0,0,1-5.94-10.29C338.29,126.3,341,124.77,344.26,126.67Zm0,11.38c2.17,1.25,3.95.25,4-2.26a8.71,8.71,0,0,0-3.94-6.83c-2.18-1.26-4-.24-4,2.26a8.66,8.66,0,0,0,3.94,6.83" transform="translate(-53.58 -70.2)" fill="#c0c0ed"/></g><path d="M348,130a4.18,4.18,0,0,1,1.91,3.31l-.16,57.58c0,1.22-.86,1.71-1.92,1.1l-15.36-8.87a4.18,4.18,0,0,1-1.91-3.31l.16-57.58c0-1.22.87-1.71,1.93-1.09Z" transform="translate(-53.58 -70.2)" fill="url(#bfbd0093-0e67-463b-8119-eae137fc4f24)"/><path d="M340.24,136a2.91,2.91,0,0,1,1.32,2.28c0,.84-.6,1.17-1.33.75a2.85,2.85,0,0,1-1.31-2.28C338.92,135.91,339.51,135.56,340.24,136Z" transform="translate(-53.58 -70.2)" fill="#c1c5f4"/><path d="M340.19,154.78a2.91,2.91,0,0,1,1.32,2.28c0,.84-.6,1.17-1.33.75a2.91,2.91,0,0,1-1.32-2.28C338.87,154.69,339.46,154.35,340.19,154.78Z" transform="translate(-53.58 -70.2)" fill="#c1c5f4"/><path d="M340.14,173.56a2.91,2.91,0,0,1,1.31,2.29c0,.84-.59,1.17-1.32.75a2.88,2.88,0,0,1-1.32-2.28C338.81,173.48,339.4,173.14,340.14,173.56Z" transform="translate(-53.58 -70.2)" fill="#c1c5f4"/><path d="M340.15,168.25a13.07,13.07,0,0,1,5.94,10.27c0,3.79-2.69,5.31-6,3.42a13.07,13.07,0,0,1-5.93-10.3C334.19,167.87,336.86,166.35,340.15,168.25Zm0,11.37c2.18,1.26,4,.26,4-2.26a8.71,8.71,0,0,0-3.93-6.82c-2.19-1.26-4-.24-4,2.26a8.66,8.66,0,0,0,3.94,6.82" transform="translate(-53.58 -70.2)" fill="url(#ff819399-f4f1-402b-ab25-dea7be80c54f)"/><path d="M340.2,149.46a13.07,13.07,0,0,1,5.94,10.27c0,3.79-2.69,5.31-6,3.42a13.1,13.1,0,0,1-5.94-10.3C334.24,149.08,336.92,147.56,340.2,149.46Zm0,11.38c2.18,1.25,4,.24,4-2.26a8.72,8.72,0,0,0-3.94-6.83c-2.19-1.26-4-.24-4,2.26a8.73,8.73,0,0,0,3.94,6.83" transform="translate(-53.58 -70.2)" fill="url(#f80080c9-2261-4565-b478-039251577242)"/><path d="M340.26,130.67a13.08,13.08,0,0,1,5.94,10.27c0,3.79-2.69,5.32-6,3.42a13.1,13.1,0,0,1-5.94-10.29C334.29,130.3,337,128.77,340.26,130.67Zm0,11.38c2.17,1.25,3.95.25,4-2.26a8.71,8.71,0,0,0-3.94-6.83c-2.18-1.26-4-.24-4,2.26a8.66,8.66,0,0,0,3.94,6.83" transform="translate(-53.58 -70.2)" fill="url(#bbd41ca6-695d-4d81-b012-2405d689358a)"/><g opacity="0.35" style="mix-blend-mode:multiply"><path d="M305.65,170.27a8.74,8.74,0,0,1,4,6.84l-.05,16c0,2.51-1.78,3.53-4,2.27l-49.88-28.8a8.71,8.71,0,0,1-3.94-6.84l0-16c0-2.51,1.79-3.52,4-2.26Z" transform="translate(-53.58 -70.2)" fill="#c0c0ed"/><path d="M267.93,156.3a3.65,3.65,0,0,1,.52,1.8l0,6.49a1.32,1.32,0,0,1-.53,1.19,1.14,1.14,0,0,1-1.27-.07L261,162.43a3.46,3.46,0,0,1-1.27-1.39,3.77,3.77,0,0,1-.52-1.8l0-6.49a1.28,1.28,0,0,1,.53-1.19,1.2,1.2,0,0,1,1.27.12l5.69,3.28A3.49,3.49,0,0,1,267.93,156.3Zm-7.06,2.19,5.1-1.93-4.63-2.68c-.24-.14-.38-.2-.41-.18s0,.17,0,.45l0,4.34m5.86,4.69v-4.35l-5.09,1.93,4.63,2.67c.24.14.37.21.41.19a1.27,1.27,0,0,0,0-.44" transform="translate(-53.58 -70.2)" fill="#c0c0ed"/><path d="M280.26,167a2.08,2.08,0,0,1-.07.5,1.18,1.18,0,0,1-.21.42,3,3,0,0,1,.27,1.24v2.34a1.09,1.09,0,0,1-1.8,1l-5.69-3.29a3.46,3.46,0,0,1-1.26-1.33,3.39,3.39,0,0,1-.52-1.76v-2.34a1.88,1.88,0,0,1,.28-.92,5.74,5.74,0,0,1-.19-.64,2.69,2.69,0,0,1-.08-.61v-2.12a1.09,1.09,0,0,1,1.8-1l5.69,3.28a3.47,3.47,0,0,1,1.16,1.16,4.07,4.07,0,0,1,.63,1.56Zm-1.72,3.1v-1.49a1.21,1.21,0,0,0-.05-.5,1.51,1.51,0,0,0-.4-.28l-5-2.86c-.24-.15-.38-.21-.41-.19a1.27,1.27,0,0,0,0,.44v1.49a2,2,0,0,0,0,.5,1.8,1.8,0,0,0,.41.29l5,2.86c.24.14.37.2.41.18s0-.16,0-.44m0-4.35v-1.43a1.59,1.59,0,0,0,0-.5,1.8,1.8,0,0,0-.41-.29l-5-2.86a1,1,0,0,0-.41-.18,1.27,1.27,0,0,0,0,.44v1.44a.6.6,0,0,0,.46.78l5,2.86c.24.14.38.2.41.18s0-.16.05-.44" transform="translate(-53.58 -70.2)" fill="#c0c0ed"/><polygon points="229.19 96.11 230.9 97.1 230.89 99.06 229.19 98.07 229.19 96.11" fill="#c0c0ed"/><polygon points="229.17 104.81 229.17 102.86 230.88 103.84 230.87 105.79 229.17 104.81" fill="#c0c0ed"/><polygon points="237.27 98.72 237.24 109.47 235.52 108.48 235.54 100.55 234.8 101.17 232.55 99.87 235.38 97.63 237.27 98.72" fill="#c0c0ed"/><path d="M302.2,175.47v1.95l-7.11-4.1a1,1,0,0,0-.4-.18s-.05.17-.05.45v1.28a1.32,1.32,0,0,0,0,.5,1.73,1.73,0,0,0,.41.28l5.32,3.07a3.56,3.56,0,0,1,1.26,1.34,3.48,3.48,0,0,1,.52,1.76v2.34a1.21,1.21,0,0,1-.53,1.16,1.23,1.23,0,0,1-1.26-.13l-5.68-3.28a3.94,3.94,0,0,1-1.79-3.1v-.7l1.7,1v.28a1.18,1.18,0,0,0,.05.49,1.22,1.22,0,0,0,.4.3l5,2.86c.24.14.38.19.41.17a1.18,1.18,0,0,0,0-.44v-1.49a1.43,1.43,0,0,0-.05-.5,1.51,1.51,0,0,0-.4-.28l-7.12-4.11,0-6.26Z" transform="translate(-53.58 -70.2)" fill="#c0c0ed"/></g><path d="M302.65,173.27a8.74,8.74,0,0,1,4,6.84l-.05,16c0,2.51-1.78,3.53-4,2.27l-49.88-28.8a8.71,8.71,0,0,1-3.94-6.84l0-16c0-2.51,1.79-3.52,4-2.26Z" transform="translate(-53.58 -70.2)" fill="url(#fb80a472-618e-41f9-b0b3-d71ba4ede9f5)"/><path d="M264.93,159.3a3.65,3.65,0,0,1,.52,1.8l0,6.49a1.32,1.32,0,0,1-.53,1.19,1.14,1.14,0,0,1-1.27-.07L258,165.43a3.46,3.46,0,0,1-1.27-1.39,3.77,3.77,0,0,1-.52-1.8l0-6.49a1.28,1.28,0,0,1,.53-1.19,1.2,1.2,0,0,1,1.27.12l5.69,3.28A3.49,3.49,0,0,1,264.93,159.3Zm-7.06,2.19,5.1-1.93-4.63-2.68c-.24-.14-.38-.2-.41-.18s0,.17,0,.45l0,4.34m5.86,4.69v-4.35l-5.09,1.93,4.63,2.67c.24.14.37.21.41.19a1.27,1.27,0,0,0,0-.44" transform="translate(-53.58 -70.2)" fill="#c1c5f4"/><path d="M277.26,170a2.08,2.08,0,0,1-.07.5,1.18,1.18,0,0,1-.21.42,3,3,0,0,1,.27,1.24v2.34a1.09,1.09,0,0,1-1.8,1l-5.69-3.29a3.46,3.46,0,0,1-1.26-1.33,3.39,3.39,0,0,1-.52-1.76v-2.34a1.88,1.88,0,0,1,.28-.92,5.74,5.74,0,0,1-.19-.64,2.69,2.69,0,0,1-.08-.61v-2.12a1.09,1.09,0,0,1,1.8-1l5.69,3.28a3.47,3.47,0,0,1,1.16,1.16,4.07,4.07,0,0,1,.63,1.56Zm-1.72,3.1v-1.49a1.21,1.21,0,0,0-.05-.5,1.51,1.51,0,0,0-.4-.28l-5-2.86c-.24-.15-.38-.21-.41-.19a1.27,1.27,0,0,0,0,.44v1.49a2,2,0,0,0,0,.5,1.8,1.8,0,0,0,.41.29l5,2.86c.24.14.37.2.41.18s0-.16,0-.44m0-4.35v-1.43a1.59,1.59,0,0,0,0-.5,1.8,1.8,0,0,0-.41-.29l-5-2.86a1,1,0,0,0-.41-.18,1.27,1.27,0,0,0,0,.44v1.44a.6.6,0,0,0,.46.78l5,2.86c.24.14.38.2.41.18s0-.16.05-.44" transform="translate(-53.58 -70.2)" fill="#c1c5f4"/><polygon points="226.19 99.11 227.9 100.1 227.89 102.06 226.19 101.07 226.19 99.11" fill="#c1c5f4"/><polygon points="226.17 107.81 226.17 105.86 227.88 106.84 227.87 108.79 226.17 107.81" fill="#c1c5f4"/><polygon points="234.27 101.72 234.24 112.47 232.52 111.48 232.54 103.55 231.8 104.17 229.55 102.87 232.38 100.63 234.27 101.72" fill="#c1c5f4"/><path d="M299.2,178.47v1.95l-7.11-4.1a1,1,0,0,0-.4-.18s-.05.17-.05.45v1.28a1.32,1.32,0,0,0,0,.5,1.73,1.73,0,0,0,.41.28l5.32,3.07a3.56,3.56,0,0,1,1.26,1.34,3.48,3.48,0,0,1,.52,1.76v2.34a1.21,1.21,0,0,1-.53,1.16,1.23,1.23,0,0,1-1.26-.13l-5.68-3.28a3.94,3.94,0,0,1-1.79-3.1v-.7l1.7,1v.28a1.18,1.18,0,0,0,.05.49,1.22,1.22,0,0,0,.4.3l5,2.86c.24.14.38.19.41.17a1.18,1.18,0,0,0,0-.44v-1.49a1.43,1.43,0,0,0-.05-.5,1.51,1.51,0,0,0-.4-.28l-7.12-4.11,0-6.26Z" transform="translate(-53.58 -70.2)" fill="#c1c5f4"/><g opacity="0.35" style="mix-blend-mode:multiply"><path d="M350.84,200.88a6.47,6.47,0,0,1,3,5.11l0,13.22c0,1.88-1.34,2.63-3,1.69l-32.13-18.55a6.54,6.54,0,0,1-2.95-5.11l0-13.22c0-1.88,1.33-2.64,3-1.7Z" transform="translate(-53.58 -70.2)" fill="#58e0ab"/><path d="M328.47,193.92a3.12,3.12,0,0,1,1.41,2.44v.69l-1.44-.83v-.3a1.77,1.77,0,0,0,0-.37,1.52,1.52,0,0,0-.32-.21l-3.57-2.06a1.09,1.09,0,0,0-.31-.16s0,.12,0,.35v.86a1.85,1.85,0,0,0,0,.37,1.49,1.49,0,0,0,.31.21l3.93,2.26a2.9,2.9,0,0,1,1,1.05,2.73,2.73,0,0,1,.41,1.39v1.64a.93.93,0,0,1-.43.91,1,1,0,0,1-1-.1l-4.26-2.46a3.09,3.09,0,0,1-1.41-2.44v-.7l1.41.82v.3a2,2,0,0,0,0,.38,1.73,1.73,0,0,0,.31.2l3.58,2.07a1.06,1.06,0,0,0,.32.16,2.22,2.22,0,0,0,0-.36v-.86a1.63,1.63,0,0,0,0-.36s-.11-.09-.32-.21l-3.9-2.26a3.09,3.09,0,0,1-1.41-2.43v-1.64a.85.85,0,0,1,1.41-.81Z" transform="translate(-53.58 -70.2)" fill="#58e0ab"/><polygon points="284.68 129.37 284.67 131 279.56 128.05 279.56 129.68 283.67 132.05 283.67 133.68 279.55 131.3 279.55 132.93 284.66 135.88 284.65 137.51 278.11 133.74 278.14 125.59 284.68 129.37" fill="#58e0ab"/><polygon points="293.13 134.25 293.12 135.88 290.29 134.24 290.27 140.75 288.85 139.94 288.87 133.42 286.04 131.78 286.04 130.16 293.13 134.25" fill="#58e0ab"/></g><path d="M347.84,203.88a6.47,6.47,0,0,1,3,5.11l0,13.22c0,1.88-1.34,2.63-3,1.69l-32.13-18.55a6.54,6.54,0,0,1-2.95-5.11l0-13.22c0-1.88,1.33-2.64,3-1.7Z" transform="translate(-53.58 -70.2)" fill="url(#f7c776aa-15b2-44a2-a900-be235ce808b1)"/><path d="M325.47,196.92a3.12,3.12,0,0,1,1.41,2.44v.69l-1.44-.83v-.3a1.77,1.77,0,0,0,0-.37,1.52,1.52,0,0,0-.32-.21l-3.57-2.06a1.09,1.09,0,0,0-.31-.16s0,.12,0,.35v.86a1.85,1.85,0,0,0,0,.37,1.49,1.49,0,0,0,.31.21l3.93,2.26a2.9,2.9,0,0,1,1,1.05,2.73,2.73,0,0,1,.41,1.39v1.64a.93.93,0,0,1-.43.91,1,1,0,0,1-1-.1l-4.26-2.46a3.09,3.09,0,0,1-1.41-2.44v-.7l1.41.82v.3a2,2,0,0,0,0,.38,1.73,1.73,0,0,0,.31.2l3.58,2.07a1.06,1.06,0,0,0,.32.16,2.22,2.22,0,0,0,0-.36v-.86a1.63,1.63,0,0,0,0-.36s-.11-.09-.32-.21l-3.9-2.26a3.09,3.09,0,0,1-1.41-2.43v-1.64a.85.85,0,0,1,1.41-.81Z" transform="translate(-53.58 -70.2)" fill="#fff"/><polygon points="281.68 132.37 281.67 134 276.56 131.05 276.56 132.68 280.67 135.05 280.67 136.68 276.55 134.3 276.55 135.93 281.66 138.88 281.65 140.51 275.11 136.74 275.14 128.59 281.68 132.37" fill="#fff"/><polygon points="290.13 137.25 290.12 138.88 287.29 137.24 287.27 143.75 285.85 142.94 285.87 136.42 283.04 134.78 283.04 133.16 290.13 137.25" fill="#fff"/><g opacity="0.35" style="mix-blend-mode:multiply"><path d="M198.2,89.09c2.6-1.49,4.71-.29,4.72,2.69l.12,40.39a10.34,10.34,0,0,1-4.69,8.12l-65.19,37.64c-2.6,1.49-4.71.3-4.72-2.69l-.12-40.39a10.36,10.36,0,0,1,4.69-8.12Z" transform="translate(-53.58 -70.2)" fill="#c0c0ed"/><polygon points="89.67 73.78 89.73 93.61 82.3 97.9 82.24 78.08 89.67 73.78" fill="#c0c0ed"/><polygon points="101.18 58.12 101.26 86.95 93.83 91.24 93.74 62.41 101.18 58.12" fill="#c0c0ed"/><polygon points="114.32 45.86 114.42 79.36 106.98 83.65 106.88 50.16 114.32 45.86" fill="#c0c0ed"/><polygon points="128.6 73.8 128.61 75.57 95.45 94.71 95.44 92.95 128.6 73.8" fill="#c0c0ed"/><polygon points="127.43 42.96 127.51 71.8 120.07 76.09 119.99 47.26 127.43 42.96" fill="#c0c0ed"/><polygon points="141.64 27.71 141.74 63.58 134.3 67.88 134.2 32.01 141.64 27.71" fill="#c0c0ed"/><polygon points="89.63 58.52 89.64 60.12 81.56 64.78 81.56 63.18 89.63 58.52" fill="#c0c0ed"/><polygon points="96.05 50.81 96.05 52.42 81.55 60.79 81.55 59.19 96.05 50.81" fill="#c0c0ed"/></g><path d="M201.2,93.09c2.6-1.49,4.71-.29,4.72,2.69l.12,40.39a10.34,10.34,0,0,1-4.69,8.12l-65.19,37.64c-2.6,1.49-4.71.3-4.72-2.69l-.12-40.39a10.36,10.36,0,0,1,4.69-8.12Z" transform="translate(-53.58 -70.2)" fill="url(#e0549889-c71b-4be9-a1bc-cde562d4353f)"/><polygon points="92.67 77.78 92.73 97.61 85.3 101.9 85.24 82.08 92.67 77.78" fill="url(#a3069420-c8b6-49e9-990f-3416a42c34ec)"/><polygon points="104.18 62.12 104.26 90.95 96.83 95.24 96.74 66.41 104.18 62.12" fill="url(#ec1700e4-bc63-4da2-9a84-71557e5d90a8)"/><polygon points="117.32 49.86 117.42 83.36 109.98 87.65 109.88 54.16 117.32 49.86" fill="url(#f4049899-9e5c-4640-a0ec-97a83b6bac9c)"/><g style="isolation:isolate"><polygon points="131.6 77.8 131.61 79.57 98.45 98.71 98.44 96.95 131.6 77.8" fill="#c1c5f4"/><polygon points="130.43 46.96 130.51 75.8 123.07 80.09 122.99 51.26 130.43 46.96" fill="url(#a803bce8-f897-409a-8477-fcf0761add15)"/></g><polygon points="144.64 31.71 144.74 67.58 137.3 71.88 137.2 36.01 144.64 31.71" fill="url(#ee248de2-e131-42a9-a13d-09230ea52512)"/><polygon points="92.63 62.52 92.64 64.11 84.56 68.78 84.56 67.18 92.63 62.52" fill="#c1c5f4"/><polygon points="99.05 54.81 99.05 56.42 84.55 64.79 84.55 63.19 99.05 54.81" fill="#c1c5f4"/><g opacity="0.35" style="mix-blend-mode:multiply"><path d="M164.92,171.85c2.13-1.23,3.86-.24,3.86,2.2l.16,54.2a8.47,8.47,0,0,1-3.84,6.65l-32.76,18.91c-2.13,1.23-3.86.25-3.86-2.2l-.16-54.2a8.51,8.51,0,0,1,3.84-6.65Z" transform="translate(-53.58 -70.2)" fill="#c0c0ed"/><path d="M134.48,199.77c.85-.49,1.54-.09,1.55.88a3.39,3.39,0,0,1-1.54,2.66c-.85.49-1.54.1-1.54-.88A3.4,3.4,0,0,1,134.48,199.77Z" transform="translate(-53.58 -70.2)" fill="#c0c0ed"/><polygon points="102.95 117.38 102.95 119.26 84.65 129.83 84.65 127.94 102.95 117.38" fill="#c0c0ed"/><path d="M166.88,176.73l.4.65a17.22,17.22,0,0,0-2.11,3.35c-.2.4-.39.8-.55,1.18a29.61,29.61,0,0,0-1.17,3.1l-.2.67-2.08-.37.47-1.1,1.23.21a29.85,29.85,0,0,1,1.14-2.91c.15-.33.3-.66.47-1A19.17,19.17,0,0,1,166.88,176.73Z" transform="translate(-53.58 -70.2)" fill="#c0c0ed"/><path d="M164.33,192.38a.66.66,0,0,1,.19-.09c-.17.34-.33.68-.48,1l-3.25,1.88a.7.7,0,0,0-.31.55v4.06c0,.2.14.28.32.18l3.53-2a.68.68,0,0,0,.32-.55v-3.68c.17-.38.35-.77.55-1.18a.91.91,0,0,1,.09.43l0,4.06a2.14,2.14,0,0,1-1,1.66l-3.54,2c-.54.31-1,.07-1-.54l0-4.07a2.16,2.16,0,0,1,1-1.67Z" transform="translate(-53.58 -70.2)" fill="#c0c0ed"/><path d="M166.92,188.51l.39.66a17.15,17.15,0,0,0-2.11,3.34c-.2.41-.38.8-.55,1.18a30.21,30.21,0,0,0-1.17,3.11l-.2.67-2.08-.38.48-1.1,1.22.22c.22-.65.6-1.72,1.14-2.92.15-.32.31-.66.48-1A18.84,18.84,0,0,1,166.92,188.51Z" transform="translate(-53.58 -70.2)" fill="#c0c0ed"/><path d="M164.29,180.59l.19-.08c-.17.34-.32.67-.47,1l-3.25,1.87a.71.71,0,0,0-.32.54l0,4.08c0,.19.14.28.31.18l3.54-2a.73.73,0,0,0,.32-.55v-3.68c.16-.38.35-.78.55-1.18a.86.86,0,0,1,.09.41v4.07a2.15,2.15,0,0,1-1,1.67l-3.53,2c-.54.31-1,.06-1-.55V184.3a2.13,2.13,0,0,1,1-1.67Z" transform="translate(-53.58 -70.2)" fill="#c0c0ed"/><path d="M134.52,211.56c.84-.49,1.54-.1,1.54.88a3.39,3.39,0,0,1-1.53,2.65c-.86.49-1.54.1-1.55-.88A3.36,3.36,0,0,1,134.52,211.56Z" transform="translate(-53.58 -70.2)" fill="#c0c0ed"/><polygon points="102.98 129.16 102.99 131.04 84.69 141.61 84.68 139.73 102.98 129.16" fill="#c0c0ed"/><path d="M134.55,222.81c.84-.49,1.54-.1,1.54.88a3.41,3.41,0,0,1-1.53,2.66c-.86.49-1.54.09-1.55-.88A3.38,3.38,0,0,1,134.55,222.81Z" transform="translate(-53.58 -70.2)" fill="#c0c0ed"/><path d="M158.36,229.64c1.22-.71,2.21-.14,2.22,1.26a4.85,4.85,0,0,1-2.2,3.8L142,244.18c-1.22.71-2.21.14-2.21-1.25a4.85,4.85,0,0,1,2.2-3.81Z" transform="translate(-53.58 -70.2)" fill="#c0c0ed"/><polygon points="103.05 151.67 103.05 153.55 84.75 164.12 84.74 162.23 103.05 151.67" fill="#c0c0ed"/><polygon points="103.02 140.41 103.02 142.29 84.72 152.86 84.71 150.98 103.02 140.41" fill="#c0c0ed"/><path d="M164.36,203.63l.19-.08c-.17.33-.33.67-.47,1l-3.25,1.88a.69.69,0,0,0-.32.55V211c0,.2.14.28.32.18l3.54-2a.71.71,0,0,0,.31-.55V205c.17-.39.35-.78.55-1.18a.86.86,0,0,1,.1.41v4.07a2.15,2.15,0,0,1-1,1.67l-3.54,2c-.53.31-1,.06-1-.56v-4.06a2.13,2.13,0,0,1,1-1.67Z" transform="translate(-53.58 -70.2)" fill="#c0c0ed"/><path d="M167,199.77l.4.65a16.52,16.52,0,0,0-2.12,3.35c-.2.4-.38.79-.55,1.18a28.12,28.12,0,0,0-1.16,3.1l-.2.67-2.08-.37.47-1.1,1.22.21c.22-.65.61-1.72,1.15-2.92.14-.32.3-.66.47-1A18.3,18.3,0,0,1,167,199.77Z" transform="translate(-53.58 -70.2)" fill="#c0c0ed"/><path d="M134.58,234.06c.85-.49,1.54-.09,1.54.88a3.36,3.36,0,0,1-1.53,2.66c-.86.49-1.54.1-1.54-.88A3.33,3.33,0,0,1,134.58,234.06Z" transform="translate(-53.58 -70.2)" fill="#c0c0ed"/><path d="M164.39,214.88c.53-.3,1,0,1,.55v4.07a2.15,2.15,0,0,1-1,1.67l-3.54,2c-.53.31-1,.06-1-.55v-4.07a2.13,2.13,0,0,1,1-1.67Zm.33,5V215.8c0-.19-.14-.27-.32-.17l-3.53,2a.71.71,0,0,0-.32.54v4.07c0,.2.14.29.32.19l3.54-2a.69.69,0,0,0,.31-.55" transform="translate(-53.58 -70.2)" fill="#c0c0ed"/></g><path d="M167.92,175.85c2.13-1.23,3.86-.24,3.86,2.2l.16,54.2a8.47,8.47,0,0,1-3.84,6.65l-32.76,18.91c-2.13,1.23-3.86.25-3.86-2.2l-.16-54.2a8.51,8.51,0,0,1,3.84-6.65Z" transform="translate(-53.58 -70.2)" fill="url(#a9078ce7-c123-4bc2-aa2e-9781e4fada99)"/><path d="M137.48,203.77c.85-.49,1.54-.09,1.55.88a3.39,3.39,0,0,1-1.54,2.66c-.85.49-1.54.1-1.54-.88A3.4,3.4,0,0,1,137.48,203.77Z" transform="translate(-53.58 -70.2)" fill="#c1c5f4"/><polygon points="105.95 121.38 105.95 123.26 87.65 133.83 87.65 131.94 105.95 121.38" fill="#c1c5f4"/><path d="M169.88,180.73l.4.65a17.22,17.22,0,0,0-2.11,3.35c-.2.4-.39.8-.55,1.18a29.61,29.61,0,0,0-1.17,3.1l-.2.67-2.08-.37.47-1.1,1.23.21a29.85,29.85,0,0,1,1.14-2.91c.15-.33.3-.66.47-1A19.17,19.17,0,0,1,169.88,180.73Z" transform="translate(-53.58 -70.2)" fill="url(#a8f4df69-0abb-4944-adfe-251d8f94803f)"/><path d="M167.33,196.38a.66.66,0,0,1,.19-.09c-.17.34-.33.68-.48,1l-3.25,1.88a.7.7,0,0,0-.31.55v4.06c0,.2.14.28.32.18l3.53-2a.68.68,0,0,0,.32-.55v-3.68c.17-.38.35-.77.55-1.18a.91.91,0,0,1,.09.43l0,4.06a2.14,2.14,0,0,1-1,1.66l-3.54,2c-.54.31-1,.07-1-.54l0-4.07a2.16,2.16,0,0,1,1-1.67Z" transform="translate(-53.58 -70.2)" fill="#c1c5f4"/><path d="M169.92,192.51l.39.66a17.15,17.15,0,0,0-2.11,3.34c-.2.41-.38.8-.55,1.18a30.21,30.21,0,0,0-1.17,3.11l-.2.67-2.08-.38.48-1.1,1.22.22c.22-.65.6-1.72,1.14-2.92.15-.32.31-.66.48-1A18.84,18.84,0,0,1,169.92,192.51Z" transform="translate(-53.58 -70.2)" fill="url(#a8df3814-6db5-4090-8db2-d037130bbb61)"/><path d="M167.29,184.59l.19-.08c-.17.34-.32.67-.47,1l-3.25,1.87a.71.71,0,0,0-.32.54l0,4.08c0,.19.14.28.31.18l3.54-2a.73.73,0,0,0,.32-.55v-3.68c.16-.38.35-.78.55-1.18a.86.86,0,0,1,.09.41v4.07a2.15,2.15,0,0,1-1,1.67l-3.53,2c-.54.31-1,.06-1-.55V188.3a2.13,2.13,0,0,1,1-1.67Z" transform="translate(-53.58 -70.2)" fill="#c1c5f4"/><path d="M137.52,215.56c.84-.49,1.54-.1,1.54.88a3.39,3.39,0,0,1-1.53,2.65c-.86.49-1.54.1-1.55-.88A3.36,3.36,0,0,1,137.52,215.56Z" transform="translate(-53.58 -70.2)" fill="#c1c5f4"/><polygon points="105.98 133.16 105.99 135.04 87.69 145.61 87.68 143.73 105.98 133.16" fill="#c1c5f4"/><path d="M137.55,226.81c.84-.49,1.54-.1,1.54.88a3.41,3.41,0,0,1-1.53,2.66c-.86.49-1.54.09-1.55-.88A3.38,3.38,0,0,1,137.55,226.81Z" transform="translate(-53.58 -70.2)" fill="#c1c5f4"/><path d="M161.36,233.64c1.22-.71,2.21-.14,2.22,1.26a4.85,4.85,0,0,1-2.2,3.8L145,248.18c-1.22.71-2.21.14-2.21-1.25a4.85,4.85,0,0,1,2.2-3.81Z" transform="translate(-53.58 -70.2)" fill="url(#b934cfc5-2332-440b-a77b-9664260a9d9c)"/><polygon points="106.05 155.67 106.05 157.55 87.75 168.12 87.74 166.23 106.05 155.67" fill="#c1c5f4"/><polygon points="106.02 144.41 106.02 146.29 87.72 156.86 87.71 154.98 106.02 144.41" fill="#c1c5f4"/><path d="M167.36,207.63l.19-.08c-.17.33-.33.67-.47,1l-3.25,1.88a.69.69,0,0,0-.32.55V215c0,.2.14.28.32.18l3.54-2a.71.71,0,0,0,.31-.55V209c.17-.39.35-.78.55-1.18a.86.86,0,0,1,.1.41v4.07a2.15,2.15,0,0,1-1,1.67l-3.54,2c-.53.31-1,.06-1-.56v-4.06a2.13,2.13,0,0,1,1-1.67Z" transform="translate(-53.58 -70.2)" fill="#c1c5f4"/><path d="M170,203.77l.4.65a16.52,16.52,0,0,0-2.12,3.35c-.2.4-.38.79-.55,1.18a28.12,28.12,0,0,0-1.16,3.1l-.2.67-2.08-.37.47-1.1,1.22.21c.22-.65.61-1.72,1.15-2.92.14-.32.3-.66.47-1A18.3,18.3,0,0,1,170,203.77Z" transform="translate(-53.58 -70.2)" fill="url(#be086ee5-8297-4367-9080-56a458991f70)"/><path d="M137.58,238.06c.85-.49,1.54-.09,1.54.88a3.36,3.36,0,0,1-1.53,2.66c-.86.49-1.54.1-1.54-.88A3.33,3.33,0,0,1,137.58,238.06Z" transform="translate(-53.58 -70.2)" fill="#c1c5f4"/><path d="M167.39,218.88c.53-.3,1,0,1,.55v4.07a2.15,2.15,0,0,1-1,1.67l-3.54,2c-.53.31-1,.06-1-.55v-4.07a2.13,2.13,0,0,1,1-1.67Zm.33,5V219.8c0-.19-.14-.27-.32-.17l-3.53,2a.71.71,0,0,0-.32.54v4.07c0,.2.14.29.32.19l3.54-2a.69.69,0,0,0,.31-.55" transform="translate(-53.58 -70.2)" fill="#c1c5f4"/><g opacity="0.35" style="mix-blend-mode:multiply"><path d="M181.45,168.92c1-.55,1.72-.11,1.73,1a3.78,3.78,0,0,1-1.72,3c-.94.55-1.72.11-1.72-1A3.79,3.79,0,0,1,181.45,168.92Z" transform="translate(-53.58 -70.2)" fill="#c0c0ed"/><path d="M188,165.16c.95-.54,1.72-.1,1.72,1a3.73,3.73,0,0,1-1.71,3c-.95.55-1.71.11-1.72-1A3.79,3.79,0,0,1,188,165.16Z" transform="translate(-53.58 -70.2)" fill="#c0c0ed"/><path d="M194.32,161.49c1-.55,1.71-.1,1.72,1a3.77,3.77,0,0,1-1.71,3c-1,.55-1.72.11-1.72-1A3.76,3.76,0,0,1,194.32,161.49Z" transform="translate(-53.58 -70.2)" fill="#c0c0ed"/><path d="M200.83,157.73c.95-.54,1.72-.1,1.72,1a3.75,3.75,0,0,1-1.71,2.95c-1,.55-1.72.11-1.72-1A3.76,3.76,0,0,1,200.83,157.73Z" transform="translate(-53.58 -70.2)" fill="#c0c0ed"/><path d="M205.62,148.34c.95-.55,1.73-.1,1.73,1l0,13.18a3.82,3.82,0,0,1-1.72,3l-28.18,16.27c-1,.55-1.73.11-1.74-1l0-13.19a3.78,3.78,0,0,1,1.72-3Zm-24.16,24.52a3.78,3.78,0,0,0,1.72-3c0-1.09-.78-1.53-1.73-1a3.79,3.79,0,0,0-1.71,3c0,1.09.78,1.53,1.72,1m19.38-11.19a3.75,3.75,0,0,0,1.71-2.95c0-1.09-.77-1.53-1.72-1a3.76,3.76,0,0,0-1.71,3c0,1.08.77,1.52,1.72,1M188,169.1a3.73,3.73,0,0,0,1.71-3c0-1.08-.77-1.52-1.72-1a3.79,3.79,0,0,0-1.71,3c0,1.09.77,1.53,1.72,1m6.36-3.67a3.77,3.77,0,0,0,1.71-3c0-1.09-.77-1.54-1.72-1a3.76,3.76,0,0,0-1.71,3c0,1.08.77,1.52,1.72,1" transform="translate(-53.58 -70.2)" fill="#c0c0ed"/></g><path d="M184.45,172.92c1-.55,1.72-.11,1.73,1a3.78,3.78,0,0,1-1.72,3c-.94.55-1.72.11-1.72-1A3.79,3.79,0,0,1,184.45,172.92Z" transform="translate(-53.58 -70.2)" fill="#c1c5f4"/><path d="M191,169.16c.95-.54,1.72-.1,1.72,1a3.73,3.73,0,0,1-1.71,3c-.95.55-1.71.11-1.72-1A3.79,3.79,0,0,1,191,169.16Z" transform="translate(-53.58 -70.2)" fill="#c1c5f4"/><path d="M197.32,165.49c1-.55,1.71-.1,1.72,1a3.77,3.77,0,0,1-1.71,3c-1,.55-1.72.11-1.72-1A3.76,3.76,0,0,1,197.32,165.49Z" transform="translate(-53.58 -70.2)" fill="#c1c5f4"/><path d="M203.83,161.73c.95-.54,1.72-.1,1.72,1a3.75,3.75,0,0,1-1.71,2.95c-1,.55-1.72.11-1.72-1A3.76,3.76,0,0,1,203.83,161.73Z" transform="translate(-53.58 -70.2)" fill="#c1c5f4"/><path d="M208.62,152.34c.95-.55,1.73-.1,1.73,1l0,13.18a3.82,3.82,0,0,1-1.72,3l-28.18,16.27c-1,.55-1.73.11-1.74-1l0-13.19a3.78,3.78,0,0,1,1.72-3Zm-24.16,24.52a3.78,3.78,0,0,0,1.72-3c0-1.09-.78-1.53-1.73-1a3.79,3.79,0,0,0-1.71,3c0,1.09.78,1.53,1.72,1m19.38-11.19a3.75,3.75,0,0,0,1.71-2.95c0-1.09-.77-1.53-1.72-1a3.76,3.76,0,0,0-1.71,3c0,1.08.77,1.52,1.72,1M191,173.1a3.73,3.73,0,0,0,1.71-3c0-1.08-.77-1.52-1.72-1a3.79,3.79,0,0,0-1.71,3c0,1.09.77,1.53,1.72,1m6.36-3.67a3.77,3.77,0,0,0,1.71-3c0-1.09-.77-1.54-1.72-1a3.76,3.76,0,0,0-1.71,3c0,1.08.77,1.52,1.72,1" transform="translate(-53.58 -70.2)" fill="#edf3ff"/><polygon points="326.44 151.38 326.44 189.34 343.14 209.48 360.67 190.06 360.67 149.47 326.44 151.38" fill="url(#a430ce49-689e-4345-b9e4-1fa4100efdff)"/><g style="isolation:isolate"><polygon points="343.5 143.71 364.65 131.43 364.58 155.88 343.43 168.16 343.5 143.71" fill="url(#b985b784-813c-4203-b57e-b04d59586bad)"/><polygon points="322.22 131.42 343.36 119.14 364.65 131.43 343.5 143.71 322.22 131.42" fill="url(#bf85845b-9e94-4025-88e3-c9721d8d70b3)"/><polygon points="343.5 143.71 343.43 168.16 322.15 155.88 322.22 131.42 343.5 143.71" fill="url(#a875f0f9-5568-430d-ba14-cc647e2f3112)"/></g><polygon points="355.11 293.2 355.11 331.16 371.81 351.3 389.35 331.88 389.35 291.29 355.11 293.2" fill="url(#a813e220-06fa-49cc-95ef-bd368c86e2f8)"/><g style="isolation:isolate"><polygon points="372.33 286.8 393.48 274.51 393.41 298.97 372.26 311.25 372.33 286.8" fill="url(#e4fa52fb-3554-416f-b63a-3d7eed31e23d)"/><polygon points="351.05 274.51 372.19 262.23 393.48 274.51 372.33 286.8 351.05 274.51" fill="url(#e6a396ca-714f-42b9-b970-7b2c4c832cdb)"/><polygon points="372.33 286.8 372.26 311.25 350.98 298.96 351.05 274.51 372.33 286.8" fill="url(#bb6eff62-6927-431c-8bb5-3c775ddebd77)"/></g><polygon points="4.13 179.77 4.13 217.73 20.83 237.87 38.37 218.44 38.37 177.85 4.13 179.77" fill="url(#aee1057b-c6c7-4edb-8d06-5d0f7405210e)"/><g style="isolation:isolate"><polygon points="21.36 170.36 42.5 158.07 42.43 182.53 21.29 194.81 21.36 170.36" fill="url(#a89fa5f0-d299-4da4-aec5-bd9dc16ad5f0)"/><polygon points="0.07 158.07 21.21 145.78 42.5 158.07 21.36 170.36 0.07 158.07" fill="url(#b09c7c44-efc2-4fd5-afc6-826d76bc8f59)"/><polygon points="21.36 170.36 21.29 194.81 0 182.52 0.07 158.07 21.36 170.36" fill="url(#b0f1993f-cb8e-408c-94b8-ff5bcd8e23ed)"/></g></g></g></svg>