<svg id="fddaed76-d626-4ac7-939e-1264b9942e14" data-name="Layer 1"
    xmlns="http://www.w3.org/2000/svg" xmlns:xlink="http://www.w3.org/1999/xlink"
    viewBox="0 0 2798 2800.12">
    <defs>
        <linearGradient id="a4346dcd-ef2b-4cdb-ade3-59e38e822fd4" x1="3605.98" y1="-360.37"
            x2="1131.53" y2="2712.73" gradientTransform="matrix(1, 0, 0, -1, 0, 3710)"
            gradientUnits="userSpaceOnUse">
            <stop offset="0" stop-color="#dae3fe" />
            <stop offset="1" stop-color="#e9effd" />
        </linearGradient>
        <linearGradient id="ad633ac9-53c0-4a52-9d60-3f7c2a3371bd" x1="456" y1="1725.6" x2="3254"
            y2="1725.6" gradientTransform="matrix(1, 0, 0, -1, 0, 3710)"
            gradientUnits="userSpaceOnUse">
            <stop offset="0" stop-color="#09005d" />
            <stop offset="1" stop-color="#1a0f91" />
        </linearGradient>
        <linearGradient id="ba1a0aee-1f55-4330-ae99-4f7bd142e32f" x1="2857.52" y1="2940.62"
            x2="2660.34" y2="1532.69" gradientTransform="matrix(1, 0, 0, -1, 0, 3710)"
            gradientUnits="userSpaceOnUse">
            <stop offset="0" stop-color="#4f52ff" />
            <stop offset="1" stop-color="#4042e2" />
        </linearGradient>
        <linearGradient id="a675b4d9-9011-4c2d-8ed4-10a62a523028" x1="2715.7" y1="2199.2"
            x2="3044.2" y2="2199.2" xlink:href="#a4346dcd-ef2b-4cdb-ade3-59e38e822fd4" />
        <linearGradient id="a98e389a-e0a6-4c29-81a7-7f1347e6d579" x1="2715.7" y1="2119.5"
            x2="3044.2" y2="2119.5" xlink:href="#a4346dcd-ef2b-4cdb-ade3-59e38e822fd4" />
        <linearGradient id="e930512f-2ab7-41ae-a3d5-9c6f776946a6" x1="2715.7" y1="2043.1"
            x2="3044.2" y2="2043.1" xlink:href="#a4346dcd-ef2b-4cdb-ade3-59e38e822fd4" />
        <linearGradient id="fb701df0-93c8-4c06-8ed6-ee00763a02c4" x1="2443.9" y1="2213.65"
            x2="2582.3" y2="2213.65" xlink:href="#a4346dcd-ef2b-4cdb-ade3-59e38e822fd4" />
        <linearGradient id="abf8f10f-8cec-40d6-a8a7-d172c69f7d62" x1="2670.59" y1="2497.98"
            x2="2325.52" y2="1909.02" gradientTransform="matrix(1, 0, 0, -1, 0, 3710)"
            gradientUnits="userSpaceOnUse">
            <stop offset="0" stop-color="#e1473d" />
            <stop offset="1" stop-color="#e9605a" />
        </linearGradient>
        <linearGradient id="af3e9e13-8b6b-42b1-aee1-92e9b1839682" x1="1963.54" y1="3068.92"
            x2="1766.36" y2="1660.99" xlink:href="#ba1a0aee-1f55-4330-ae99-4f7bd142e32f" />
        <linearGradient id="f6a67ef0-21d0-4acf-91af-5ae794e541f8" x1="1805" y1="2208.3" x2="2133.5"
            y2="2208.3" xlink:href="#a4346dcd-ef2b-4cdb-ade3-59e38e822fd4" />
        <linearGradient id="bec9fdf2-fcbf-419a-b609-3059da027ac0" x1="1805" y1="2128.5" x2="2133.5"
            y2="2128.5" xlink:href="#a4346dcd-ef2b-4cdb-ade3-59e38e822fd4" />
        <linearGradient id="a3fdbb20-9032-4e84-b08a-b90beec165a4" x1="1805" y1="2052.1" x2="2133.5"
            y2="2052.1" xlink:href="#a4346dcd-ef2b-4cdb-ade3-59e38e822fd4" />
        <linearGradient id="b4b22d39-fcfb-493b-9448-f21a5e61ebe5" x1="1533.2" y1="2222.75"
            x2="1671.6" y2="2222.75" xlink:href="#a4346dcd-ef2b-4cdb-ade3-59e38e822fd4" />
        <linearGradient id="b99e6d43-0b8b-4c56-8156-02dc5da87c29" x1="1910.6" y1="1994.98"
            x2="1590.53" y2="605.87" xlink:href="#ba1a0aee-1f55-4330-ae99-4f7bd142e32f" />
        <linearGradient id="b9164ad1-3db6-416d-bcd4-bdc320222301" x1="1807.1" y1="1739.5"
            x2="2135.6" y2="1739.5" xlink:href="#a4346dcd-ef2b-4cdb-ade3-59e38e822fd4" />
        <linearGradient id="b9638f79-9600-41ad-87d6-445ffde77bd6" x1="1807.1" y1="1659.8"
            x2="2135.6" y2="1659.8" xlink:href="#a4346dcd-ef2b-4cdb-ade3-59e38e822fd4" />
        <linearGradient id="e77a067d-3de3-40cb-a353-af00d2604176" x1="1807.1" y1="1583.4"
            x2="2135.6" y2="1583.4" xlink:href="#a4346dcd-ef2b-4cdb-ade3-59e38e822fd4" />
        <linearGradient id="ed89c03f-172f-46fe-9d50-74820864150c" x1="1066.55" y1="3197.26"
            x2="869.37" y2="1789.33" xlink:href="#ba1a0aee-1f55-4330-ae99-4f7bd142e32f" />
        <linearGradient id="baab4a01-8f84-45e5-a9ac-c08473bdcdc3" x1="893.4" y1="2232.2" x2="1221.9"
            y2="2232.2" xlink:href="#a4346dcd-ef2b-4cdb-ade3-59e38e822fd4" />
        <linearGradient id="ad624ab3-17bd-4fbc-bf32-7b0952af509f" x1="893.4" y1="2152.5" x2="1221.9"
            y2="2152.5" xlink:href="#a4346dcd-ef2b-4cdb-ade3-59e38e822fd4" />
        <linearGradient id="f8817a9c-f206-4a18-852e-9fe7d9ab4645" x1="893.4" y1="2076" x2="1221.9"
            y2="2076" xlink:href="#a4346dcd-ef2b-4cdb-ade3-59e38e822fd4" />
        <linearGradient id="a95750ed-25de-41a0-9700-c5b05cf532fb" x1="621.6" y1="2246.65" x2="760"
            y2="2246.65" xlink:href="#a4346dcd-ef2b-4cdb-ade3-59e38e822fd4" />
        <linearGradient id="f5c74814-50f9-4e59-9874-bbae317b8696" x1="2805.53" y1="1856.7"
            x2="2608.57" y2="1213.06" xlink:href="#ba1a0aee-1f55-4330-ae99-4f7bd142e32f" />
        <linearGradient id="ab5132c8-cdcf-496d-8eaf-d53665635e86" x1="2715.7" y1="1727.1"
            x2="3044.2" y2="1727.1" xlink:href="#a4346dcd-ef2b-4cdb-ade3-59e38e822fd4" />
        <linearGradient id="f5ae8ada-4e6c-41b7-b0b0-cd72b0ca968c" x1="2715.7" y1="1647.4"
            x2="3044.2" y2="1647.4" xlink:href="#a4346dcd-ef2b-4cdb-ade3-59e38e822fd4" />
        <linearGradient id="ea8ae435-8343-4fe9-b5fc-25e5d5417ced" x1="2715.7" y1="1571" x2="3044.2"
            y2="1571" xlink:href="#a4346dcd-ef2b-4cdb-ade3-59e38e822fd4" />
        <linearGradient id="bfafbbfa-160b-441c-8269-c4b9b4d7eddb" x1="2443.9" y1="1741.55"
            x2="2582.3" y2="1741.55" xlink:href="#a4346dcd-ef2b-4cdb-ade3-59e38e822fd4" />
        <linearGradient id="a7d4a637-d8b4-4237-bb26-96b29873ad16" x1="2836.38" y1="1964.31"
            x2="2953.78" y2="1020.03" xlink:href="#abf8f10f-8cec-40d6-a8a7-d172c69f7d62" />
        <linearGradient id="ad08d644-1ee5-4b6d-8dd6-0bebacc90fc5" x1="-699" y1="1685.84"
            x2="-571.85" y2="1685.84" gradientTransform="translate(2181.54 3879.52) rotate(176.97)"
            gradientUnits="userSpaceOnUse">
            <stop offset="0" stop-color="#febbba" />
            <stop offset="1" stop-color="#ff928e" />
        </linearGradient>
        <linearGradient id="b144c275-3277-48ed-b622-dfec3885fd4c" x1="-769.9" y1="745.2"
            x2="-685.11" y2="745.2" gradientTransform="translate(2245.67 3866.69) rotate(-173.57)"
            xlink:href="#ad633ac9-53c0-4a52-9d60-3f7c2a3371bd" />
        <linearGradient id="ad4ca24b-57c6-40dd-9197-663fe50670e5" x1="-761.36" y1="784.49"
            x2="-726.96" y2="784.49" gradientTransform="translate(2245.67 3866.69) rotate(-173.57)"
            xlink:href="#ad08d644-1ee5-4b6d-8dd6-0bebacc90fc5" />
        <linearGradient id="bbc94a3c-0533-4d32-abef-61e48f928f50" x1="-614" y1="968.08" x2="-480.95"
            y2="968.08" gradientTransform="matrix(-1, -0.03, 0.03, -1, 2280.28, 4144.57)"
            xlink:href="#ad633ac9-53c0-4a52-9d60-3f7c2a3371bd" />
        <linearGradient id="a43c8724-b1f8-46d7-83b6-41831a17c3e7" x1="-590.74" y1="979" x2="-556.55"
            y2="979" gradientTransform="translate(2282.77 4096.41) rotate(-177.58)"
            xlink:href="#ad08d644-1ee5-4b6d-8dd6-0bebacc90fc5" />
        <linearGradient id="a695501a-70f1-4305-8690-701ef9dde451" x1="3239.19" y1="1352.02"
            x2="2932.89" y2="545.44" xlink:href="#ba1a0aee-1f55-4330-ae99-4f7bd142e32f" />
        <linearGradient id="afda0f37-7b73-4dd8-80ef-fd2696afb5c1" x1="3436.84" y1="1915.02"
            x2="3200.87" y2="1608.25" gradientTransform="matrix(1, 0, 0, -1, 0, 3710)"
            gradientUnits="userSpaceOnUse">
            <stop offset="0" stop-color="#ff928e" />
            <stop offset="1" stop-color="#fe7062" />
        </linearGradient>
        <linearGradient id="b5f0487c-1839-4e3d-889c-d8102098d005" x1="-70.81" y1="1773.91"
            x2="-345.52" y2="1432.13" gradientTransform="translate(2245.67 3866.69) rotate(-173.57)"
            xlink:href="#ad08d644-1ee5-4b6d-8dd6-0bebacc90fc5" />
        <linearGradient id="b4a29e23-75bf-4f06-a250-e7dfdf05278c" x1="-18.72" y1="1732.05"
            x2="-293.45" y2="1390.27" gradientTransform="translate(2245.67 3866.69) rotate(-173.57)"
            xlink:href="#ad08d644-1ee5-4b6d-8dd6-0bebacc90fc5" />
        <linearGradient id="e9bf0172-37ab-42e2-9af3-8bb9e8b017b5" x1="-379.83" y1="1980.42"
            x2="-645.89" y2="1491.55" gradientTransform="translate(2245.67 3866.69) rotate(-173.57)"
            xlink:href="#ad08d644-1ee5-4b6d-8dd6-0bebacc90fc5" />
        <linearGradient id="f3f4c052-fabb-4930-919b-efceb4cb7235" x1="8477.74" y1="1498.92"
            x2="8332.03" y2="1387.44" gradientTransform="translate(11045.7 4791.27) rotate(-171.51)"
            xlink:href="#ad08d644-1ee5-4b6d-8dd6-0bebacc90fc5" />
        <linearGradient id="a06ca1ff-5f61-4714-8254-1ed5ced1cc79" x1="8375.24" y1="1587.25"
            x2="8510.95" y2="1412.52" gradientTransform="translate(11045.7 4791.27) rotate(-171.51)"
            xlink:href="#ad633ac9-53c0-4a52-9d60-3f7c2a3371bd" />
        <linearGradient id="ba37005b-fc8f-4fd0-8f73-9449a2d0fe6d" x1="8459.66" y1="1522.55"
            x2="8313.95" y2="1411.06" gradientTransform="translate(11045.7 4791.27) rotate(-171.51)"
            xlink:href="#ad08d644-1ee5-4b6d-8dd6-0bebacc90fc5" />
        <linearGradient id="f66bc49a-220a-42f6-a266-4cfd8257dec0" x1="2655.98" y1="1847.31"
            x2="2268.01" y2="836.53" xlink:href="#abf8f10f-8cec-40d6-a8a7-d172c69f7d62" />
        <linearGradient id="b45e478b-bf40-4fca-9415-8bfee1014acf" x1="2236.34" y1="206.02"
            x2="2844.69" y2="977.2"
            gradientTransform="matrix(0.99, -0.13, -0.13, -0.99, -75.42, 3586.53)"
            xlink:href="#ba1a0aee-1f55-4330-ae99-4f7bd142e32f" />
        <linearGradient id="f02401a8-0faf-415f-85af-7c5e1a406bf3" x1="1909.45" y1="2792.45"
            x2="1839.76" y2="2520.64" xlink:href="#afda0f37-7b73-4dd8-80ef-fd2696afb5c1" />
        <linearGradient id="b911ccb5-98f7-41fd-83d0-87f8c23bc3da" x1="1660.29" y1="2229.53"
            x2="1680.58" y2="708.12" xlink:href="#afda0f37-7b73-4dd8-80ef-fd2696afb5c1" />
        <linearGradient id="a75339d1-40f5-40bc-9e9d-9969fd65f6c4" x1="2137.83" y1="1831.2"
            x2="2371.45" y2="1303.71" gradientTransform="translate(3408.93 3710) rotate(180)"
            xlink:href="#ad08d644-1ee5-4b6d-8dd6-0bebacc90fc5" />
        <linearGradient id="b96b4d77-ee2b-48c4-96a0-efed923a3a6a" x1="2323.4" y1="1772.45"
            x2="2475.15" y2="1510.88" gradientTransform="translate(3408.93 3710) rotate(180)"
            xlink:href="#ad633ac9-53c0-4a52-9d60-3f7c2a3371bd" />
        <linearGradient id="a231e39f-4df8-43c2-87c1-25b9997bb857" x1="2111.36" y1="1811.03"
            x2="2280.38" y2="1429.4" gradientTransform="translate(3408.93 3710) rotate(180)"
            xlink:href="#ad08d644-1ee5-4b6d-8dd6-0bebacc90fc5" />
        <linearGradient id="eec20d5f-28f6-4218-a716-effb95a6eee1" x1="2628.35" y1="504.59"
            x2="2699.68" y2="504.59" gradientTransform="translate(3408.93 3710) rotate(180)"
            xlink:href="#ad633ac9-53c0-4a52-9d60-3f7c2a3371bd" />
        <linearGradient id="e8b8fc0a-bd24-48f2-9ba2-f7fbf665d98f" x1="2327.8" y1="243.87"
            x2="2430.15" y2="1440.19" gradientTransform="translate(3408.93 3710) rotate(180)"
            xlink:href="#ad08d644-1ee5-4b6d-8dd6-0bebacc90fc5" />
        <linearGradient id="a8d0934a-9c23-4e6e-a2cd-ca8a10b35bf3" x1="2375.75" y1="537.3"
            x2="2490.92" y2="537.3" gradientTransform="translate(3408.93 3710) rotate(180)"
            xlink:href="#ad633ac9-53c0-4a52-9d60-3f7c2a3371bd" />
        <linearGradient id="ff16db8e-89a3-4918-8c94-be2cedc4bba7" x1="2533.67" y1="226.07"
            x2="2636.05" y2="1422.71" gradientTransform="translate(3408.93 3710) rotate(180)"
            xlink:href="#ad08d644-1ee5-4b6d-8dd6-0bebacc90fc5" />
        <linearGradient id="f3c95cba-0b57-4c67-bd60-7610d0ca657d" x1="1942.99" y1="2225.37"
            x2="1720.49" y2="2016.37" xlink:href="#afda0f37-7b73-4dd8-80ef-fd2696afb5c1" />
        <linearGradient id="ac3c414a-f268-4014-8d2f-30243253764d" x1="841.59" y1="2155.5" x2="921.8"
            y2="1631.42" xlink:href="#ba1a0aee-1f55-4330-ae99-4f7bd142e32f" />
        <linearGradient id="a78b003e-f2fe-4c92-a8f6-24dfe0e20784" x1="2316.61" y1="1423.08"
            x2="2335.84" y2="1563.75" gradientTransform="translate(3408.93 3710) rotate(180)"
            xlink:href="#ad08d644-1ee5-4b6d-8dd6-0bebacc90fc5" />
        <linearGradient id="ae8ae23e-7b0a-4157-8e9f-e8e8267f35ab" x1="2268" y1="1604.47"
            x2="2435.76" y2="1903.03" gradientTransform="translate(3408.93 3710) rotate(180)"
            xlink:href="#ad08d644-1ee5-4b6d-8dd6-0bebacc90fc5" />
        <linearGradient id="b5123a8d-2a2d-40a0-9415-1f703de8ca5c" x1="2335.2" y1="1779.3"
            x2="2486.95" y2="1517.72" gradientTransform="translate(3408.93 3710) rotate(180)"
            xlink:href="#ad633ac9-53c0-4a52-9d60-3f7c2a3371bd" />
        <linearGradient id="f8849dc3-5446-4051-b6f2-087535a34bd2" x1="2303.73" y1="1584.39"
            x2="2471.49" y2="1882.95" gradientTransform="translate(3408.93 3710) rotate(180)"
            xlink:href="#ad08d644-1ee5-4b6d-8dd6-0bebacc90fc5" />
        <linearGradient id="a82a7040-7ba1-4a3e-a1cc-7a054b0b6bf9" x1="940.47" y1="1345.6"
            x2="1518.03" y2="1741.05" gradientTransform="matrix(1, 0, 0, -1, 0, 3710)"
            xlink:href="#ad08d644-1ee5-4b6d-8dd6-0bebacc90fc5" />
        <linearGradient id="f2506f02-f170-48c1-b9b1-b9b70f4b84ab" x1="949.61" y1="1332.26"
            x2="1527.16" y2="1727.71" gradientTransform="matrix(1, 0, 0, -1, 0, 3710)"
            xlink:href="#ad08d644-1ee5-4b6d-8dd6-0bebacc90fc5" />
    </defs>
    <g id="b4ee0198-327b-46c4-aef6-0c725f8ae675" data-name="Illustration">
        <path
            d="M2925.2,2858.5c-56.8,59.8-110.6,98.4-153.1,128.9-499.5,358.4-1090.4,253.9-1216,228.4-185.5-37.7-544-110.5-803.2-415.3C360.7,2339.3,421.8,1612.8,726,1133.1c55.6-87.7,349.5-574.6,946.9-652.7,361.5-47.3,782.9,48.1,1088.1,303.7C3401.5,1320.8,3355.9,2405,2925.2,2858.5Z"
            transform="translate(-456 -454.9)" fill="url(#a4346dcd-ef2b-4cdb-ade3-59e38e822fd4)" />
        <g opacity="0.3">
            <path
                d="M1347.7,775.3a10.11,10.11,0,0,1-12.2-7.4c-2.6-10.5-5.7-21.1-9.2-31.5a10.2,10.2,0,0,1,6.1-12.8c.1,0,.1,0,.2-.1a10.05,10.05,0,0,1,12.8,6.3c3.7,10.9,6.9,22,9.7,33.1a10,10,0,0,1-6.4,11.9A1.91,1.91,0,0,1,1347.7,775.3Zm-41.9-88.1c-4.9-9.8-10.2-19.4-15.9-28.7a10.12,10.12,0,1,1,17.3-10.5c6,9.7,11.6,19.9,16.7,30.2a10.13,10.13,0,0,1-4.5,13.6c-.4.2-.7.3-1.1.5A10.13,10.13,0,0,1,1305.8,687.2Zm-46.8-72c-6.9-8.4-14.3-16.6-21.9-24.4a10.11,10.11,0,1,1,14.5-14.1c8,8.2,15.8,16.8,23,25.7a10.13,10.13,0,0,1-1.4,14.2,9,9,0,0,1-3,1.7A10.11,10.11,0,0,1,1259,615.2Zm-61.6-59.8c-8.6-6.7-17.6-13-26.8-18.9a10.12,10.12,0,1,1,11-17c9.6,6.2,19.1,12.9,28.2,19.9a10.16,10.16,0,0,1,1.8,14.2,9.41,9.41,0,0,1-4.6,3.3A9.84,9.84,0,0,1,1197.4,555.4Zm-73.5-44.5c-9.9-4.6-20.1-8.8-30.3-12.5a10.12,10.12,0,1,1,7-19c10.8,3.9,21.5,8.3,31.9,13.2a10.12,10.12,0,0,1-.9,18.7A10.82,10.82,0,0,1,1123.9,510.9Zm-81.4-27.2c-10.6-2.3-21.5-4.1-32.3-5.5a10.13,10.13,0,0,1,2.5-20.1c11.4,1.4,22.8,3.4,34,5.8a10.15,10.15,0,0,1,7.8,12,10,10,0,0,1-6.5,7.4A10.2,10.2,0,0,1,1042.5,483.7ZM680.3,583.9a10.11,10.11,0,0,1,.2-14.3c8.2-8,16.9-15.7,25.7-23A10.09,10.09,0,1,1,719,562.2c-8.4,6.9-16.7,14.3-24.4,21.8a11.59,11.59,0,0,1-3.6,2.3A10.22,10.22,0,0,1,680.3,583.9ZM957,475.2c-10.9.1-21.9.8-32.7,1.9a10.15,10.15,0,1,1-2-20.2c11.4-1.1,23-1.8,34.4-2a10.15,10.15,0,0,1,3.6,19.7A8.81,8.81,0,0,1,957,475.2ZM748.6,528.1a10.09,10.09,0,0,1,3.4-13.9c9.8-5.9,19.9-11.6,30.2-16.7a10.15,10.15,0,0,1,9,18.2c-9.8,4.9-19.4,10.2-28.7,15.8a15.11,15.11,0,0,1-1.8.9A10.36,10.36,0,0,1,748.6,528.1Zm123.3-42c-10.6,2.6-21.2,5.6-31.5,9.1a10.1,10.1,0,0,1-6.6-19.1c.1,0,.1,0,.2-.1,10.9-3.7,22-6.9,33.1-9.6a10.09,10.09,0,0,1,5.8,19.3A4.18,4.18,0,0,1,871.9,486.1Z"
                transform="translate(-456 -454.9)" fill="#91b3fa" />
            <path
                d="M644.8,640.3a9.67,9.67,0,0,0,4.8-3.7c3-4.3,6.2-8.5,9.4-12.7a10.12,10.12,0,1,0-16-12.4c-3.4,4.4-6.7,8.8-9.9,13.3a10.09,10.09,0,0,0,2.4,14.1A9.83,9.83,0,0,0,644.8,640.3Z"
                transform="translate(-456 -454.9)" fill="#91b3fa" />
        </g>
        <g opacity="0.3">
            <path
                d="M578.6,941.6a10.15,10.15,0,0,0,6.5-11.4c-1-5.1-1.8-10.4-2.6-15.5a10.11,10.11,0,0,0-20,3c.8,5.5,1.7,11,2.7,16.4a10.12,10.12,0,0,0,11.8,8.1C577.6,942,578.1,941.8,578.6,941.6Z"
                transform="translate(-456 -454.9)" fill="#91b3fa" />
            <path
                d="M1080.2,1245.9a10.09,10.09,0,1,1-5.9-19.3c10.2-3.1,20.4-6.7,30.4-10.7a10.1,10.1,0,0,1,7.4,18.8c-4.4,1.7-8.7,3.4-13.1,5C1092.9,1241.8,1086.5,1243.9,1080.2,1245.9Zm68-39a10.14,10.14,0,0,1,3.8-13.8c9.3-5.3,18.5-11,27.4-17.1a10.15,10.15,0,1,1,11.4,16.8c-9.3,6.4-19,12.4-28.8,18a7.74,7.74,0,0,1-1.6.7A10.07,10.07,0,0,1,1148.2,1206.9Zm-121.7,51.4c-11.1,1.8-22.5,3.1-33.7,4a10.24,10.24,0,0,1-10.9-9.3,10.08,10.08,0,0,1,9.3-10.8c10.7-.8,21.5-2.1,32-3.8a10.13,10.13,0,0,1,5.1,19.5A8,8,0,0,1,1026.5,1258.3Zm193.3-100.4a10.13,10.13,0,0,1,.7-14.3c7.9-7.2,15.7-14.8,23-22.7a10.12,10.12,0,1,1,14.8,13.8c-7.7,8.3-15.8,16.3-24.2,23.9a10.24,10.24,0,0,1-14.3-.7ZM937.7,1262.7c-11.2-.7-22.6-1.9-33.8-3.5a10.11,10.11,0,0,1,3-20c10.6,1.6,21.4,2.7,32.1,3.4a10.1,10.1,0,0,1,2.8,19.6A14,14,0,0,1,937.7,1262.7Zm-87.6-15.3c-10.8-3.1-21.7-6.8-32.2-10.8a10.13,10.13,0,1,1,7.3-18.9c10,3.8,20.3,7.3,30.6,10.3a10.07,10.07,0,0,1,6.9,12.5,10.28,10.28,0,0,1-6.3,6.7A10.41,10.41,0,0,1,850.1,1247.4Zm-82.2-34c-9.9-5.4-19.7-11.3-29.1-17.6A10.1,10.1,0,1,1,750,1179c8.9,5.9,18.2,11.5,27.6,16.7a10.06,10.06,0,0,1,4,13.7,10.29,10.29,0,0,1-5.4,4.7A10.12,10.12,0,0,1,767.9,1213.4Zm-72.8-51.1c-8.5-7.5-16.7-15.4-24.5-23.5a10.11,10.11,0,0,1,14.6-14c7.4,7.7,15.2,15.2,23.3,22.3a10.13,10.13,0,0,1,.9,14.3,9.73,9.73,0,0,1-4.2,2.8A9.88,9.88,0,0,1,695.1,1162.3Zm-59.9-65.9c-6.6-9.1-12.9-18.6-18.7-28.3a10.16,10.16,0,0,1,17.4-10.5c5.5,9.2,11.5,18.2,17.8,26.9a10,10,0,0,1-2.3,14.1,8.53,8.53,0,0,1-2.5,1.3A9.92,9.92,0,0,1,635.2,1096.4Zm-43.9-77.3c-3.3-7.6-6.4-15.4-9.2-23.2-1-2.8-2-5.6-2.9-8.5a10,10,0,0,1,6.4-12.8,10.11,10.11,0,0,1,12.8,6.4c.9,2.7,1.8,5.4,2.8,8.1,2.7,7.4,5.6,14.8,8.7,22.1a10.17,10.17,0,0,1-5.3,13.3,1.42,1.42,0,0,1-.6.2A10.26,10.26,0,0,1,591.3,1019.1Z"
                transform="translate(-456 -454.9)" fill="#91b3fa" />
            <path
                d="M1288.3,1095.4a9.67,9.67,0,0,0,4.8-3.7c3.1-4.5,6.3-9.1,9.3-13.8a10.12,10.12,0,1,0-17-11c-2.8,4.4-5.8,8.8-8.8,13.1a10.11,10.11,0,0,0,2.5,14.1A9.83,9.83,0,0,0,1288.3,1095.4Z"
                transform="translate(-456 -454.9)" fill="#91b3fa" />
        </g>
        <path
            d="M1258.6,924.5a4.7,4.7,0,0,0-1.5-5.3L1212,883.4a249.53,249.53,0,0,0-4.4-81.1l40.9-40.4a4.72,4.72,0,0,0,.9-5.4l-29.8-62.3a4.86,4.86,0,0,0-4.8-2.7l-57.1,6.6a247,247,0,0,0-60.5-54.2l.4-57.6a4.85,4.85,0,0,0-3.2-4.5l-65.1-22.9a4.7,4.7,0,0,0-5.3,1.5l-35.8,45.1a249.53,249.53,0,0,0-81.1,4.4L866.8,569a4.72,4.72,0,0,0-5.4-.9l-62.3,29.8a4.86,4.86,0,0,0-2.7,4.8l6.6,57.1a247,247,0,0,0-54.2,60.5l-57.6-.4a4.85,4.85,0,0,0-4.5,3.2l-22.9,65.1a4.7,4.7,0,0,0,1.5,5.3l45.1,35.8a249.53,249.53,0,0,0,4.4,81.1l-40.9,40.4a4.72,4.72,0,0,0-.9,5.4l29.8,62.3a4.86,4.86,0,0,0,4.8,2.7l57.1-6.6a247,247,0,0,0,60.5,54.2l-.4,57.6a4.85,4.85,0,0,0,3.2,4.5l65.1,22.9a4.7,4.7,0,0,0,5.3-1.5l35.8-45.1a249.53,249.53,0,0,0,81.1-4.4l40.4,40.9a4.72,4.72,0,0,0,5.4.9l62.3-29.8a4.86,4.86,0,0,0,2.7-4.8l-6.6-57.1a247,247,0,0,0,54.2-60.5l57.6.4a4.85,4.85,0,0,0,4.5-3.2Z"
            transform="translate(-456 -454.9)" fill="#91b3fa" />
        <path
            d="M975,924.4a69.53,69.53,0,0,1-81.8-54.3,69.3,69.3,0,0,1,54.3-81.7,69.4,69.4,0,0,1,37.3,133.3A83.64,83.64,0,0,1,975,924.4Zm-58.1-97.5a53.24,53.24,0,1,0,33.8-22.7,50.35,50.35,0,0,0-7.6,2.1A53.21,53.21,0,0,0,916.9,826.9Z"
            transform="translate(-456 -454.9)" fill="#bdd0fb" />
        <path
            d="M1017.4,1016.4a163.27,163.27,0,0,0,16.2-6.8h0c1.7-.8,3.3-1.6,5-2.5a173.34,173.34,0,0,0,23.2-14.5c.1-.1.2-.1.3-.2a5.55,5.55,0,0,0,.8-.6c.5-.4,1.1-.8,1.6-1.2a4.08,4.08,0,0,0,1.3-4.6,2.38,2.38,0,0,0-.6-1.1,4,4,0,0,0-5.7-.7,164.78,164.78,0,0,1-29.5,18.2,162.76,162.76,0,0,1-156.3-8.7,161.06,161.06,0,0,1-60.5-67.6c-2.4-5.1-4.6-10.2-6.5-15.4a162.52,162.52,0,0,1,82.8-201.4c80.9-38.7,178.1-4.5,216.8,76.4,2.4,5,4.5,10.1,6.4,15.2a161.82,161.82,0,0,1,8.9,70,3.21,3.21,0,0,0,.2,1.7,4.17,4.17,0,0,0,3.4,2.7,4,4,0,0,0,4.4-3.7,170.1,170.1,0,0,0-9.4-73.5c-2-5.4-4.2-10.8-6.7-16-40.7-84.9-142.8-120.8-227.6-80.2A170.64,170.64,0,0,0,799,913.3a163.27,163.27,0,0,0,6.8,16.2,170.78,170.78,0,0,0,211.6,86.9Z"
            transform="translate(-456 -454.9)" fill="#bdd0fb" />
        <g opacity="0.3">
            <path
                d="M1764,908.8a6.24,6.24,0,0,0,4.1-6.3c-.3-5.3-.8-10.7-1.4-15.9a6.29,6.29,0,1,0-12.5,1.5c.6,5,1.1,10.1,1.4,15.2a6.33,6.33,0,0,0,6.6,5.9A11.63,11.63,0,0,0,1764,908.8Z"
                transform="translate(-456 -454.9)" fill="#91b3fa" />
            <path
                d="M1756.1,861.4a6.35,6.35,0,0,1-7.6-4.6c-2.1-8.5-4.7-16.9-7.6-25.1-.6-1.7-1.3-3.5-1.9-5.2a6.36,6.36,0,0,1,3.6-8.1,6.59,6.59,0,0,1,8.1,3.6c.7,1.8,1.4,3.6,2,5.4a265.79,265.79,0,0,1,8,26.3,6.33,6.33,0,0,1-3.9,7.4A1.33,1.33,0,0,1,1756.1,861.4Zm-30.3-63.7a257.1,257.1,0,0,0-16.6-27,6.24,6.24,0,0,1,10.2-7.2,273,273,0,0,1,17.4,28.4,6.32,6.32,0,0,1-2.6,8.5c-.3.1-.5.3-.8.4A6.37,6.37,0,0,1,1725.8,797.7Zm-36.4-51.8a264.28,264.28,0,0,0-22.7-22.2,6.24,6.24,0,1,1,8.1-9.5,260.66,260.66,0,0,1,23.8,23.2,6.28,6.28,0,0,1-.4,8.8,4.45,4.45,0,0,1-2.1,1.2A5.86,5.86,0,0,1,1689.4,745.9Zm-48.1-41.3a258.45,258.45,0,0,0-27.5-15.9,6.26,6.26,0,0,1,5.6-11.2,266.19,266.19,0,0,1,28.8,16.7,6.18,6.18,0,0,1,1.7,8.7,6,6,0,0,1-3.1,2.4A6.43,6.43,0,0,1,1641.3,704.6Zm-56.6-28.4a266,266,0,0,0-30.5-8.8,6.26,6.26,0,1,1,2.8-12.2,277.63,277.63,0,0,1,32,9.2,6.2,6.2,0,0,1,3.8,8,6.48,6.48,0,0,1-3.8,3.8A6.35,6.35,0,0,1,1584.7,676.2Zm-61.8-13.7a258.37,258.37,0,0,0-31.7-1.1,6.25,6.25,0,0,1-.3-12.5,283.33,283.33,0,0,1,33.2,1.1,6.25,6.25,0,0,1,1.5,12.1A5.11,5.11,0,0,1,1522.9,662.5Zm-63.3,1.8a256,256,0,0,0-31,6.8,6.24,6.24,0,0,1-3.4-12,281.25,281.25,0,0,1,32.5-7.1,6.21,6.21,0,0,1,3,12C1460.4,664.1,1460,664.2,1459.6,664.3Zm-97.9,29.1a6.21,6.21,0,0,1,2.3-8.5,249.05,249.05,0,0,1,25.8-13c1.3-.6,2.7-1.2,4-1.7a6.25,6.25,0,0,1,4.9,11.5c-1.3.5-2.5,1.1-3.8,1.6a269.46,269.46,0,0,0-24.6,12.4c-.3.2-.7.3-1,.5A6.39,6.39,0,0,1,1361.7,693.4Z"
                transform="translate(-456 -454.9)" fill="#91b3fa" />
        </g>
        <g opacity="0.3">
            <path
                d="M1586.5,1174a267.78,267.78,0,0,1-31.5,8.8,6.2,6.2,0,0,1-7.4-4.8,6.28,6.28,0,0,1,4.8-7.4,269.34,269.34,0,0,0,30.1-8.4,6.18,6.18,0,0,1,7.9,3.9,6.26,6.26,0,0,1-3.9,7.9Zm21.9-15.4a6.35,6.35,0,0,1,2.9-8.4,259.35,259.35,0,0,0,27.2-15.3,6.23,6.23,0,1,1,6.7,10.5,274.55,274.55,0,0,1-28.5,16.1l-.6.3A6.33,6.33,0,0,1,1608.4,1158.6Zm-85.7,29.1a255.64,255.64,0,0,1-32.7.9,6.25,6.25,0,0,1,.4-12.5,271,271,0,0,0,31.2-.9,6.27,6.27,0,0,1,6.8,5.7,6.13,6.13,0,0,1-4.1,6.4A3.43,3.43,0,0,1,1522.7,1187.7Zm140.2-62.5a6.22,6.22,0,0,1,.8-8.8,270.69,270.69,0,0,0,22.7-21.4,6.23,6.23,0,1,1,9.1,8.5,266.89,266.89,0,0,1-23.8,22.5,7.24,7.24,0,0,1-1.9,1.1A6.12,6.12,0,0,1,1662.9,1125.2Zm-205.5,60.4a272.71,272.71,0,0,1-32-7,6.24,6.24,0,1,1,3.4-12,243.57,243.57,0,0,0,30.5,6.6,6.21,6.21,0,0,1,1.1,12A5,5,0,0,1,1457.4,1185.6Zm-62.9-17.7a285.62,285.62,0,0,1-29.4-14.4,6.13,6.13,0,0,1-2.3-8.5,6.25,6.25,0,0,1,8.5-2.4,259,259,0,0,0,28,13.7,6.29,6.29,0,0,1,3.4,8.2,6.31,6.31,0,0,1-8.2,3.4Zm-56.8-32.3a266.81,266.81,0,0,1-25.1-21.1,6.22,6.22,0,1,1,8.6-9,270.29,270.29,0,0,0,23.9,20.1,6.15,6.15,0,0,1,1.3,8.7,6.82,6.82,0,0,1-2.9,2.2A6.37,6.37,0,0,1,1337.7,1135.6Z"
                transform="translate(-456 -454.9)" fill="#91b3fa" />
            <path
                d="M1713.6,1080.3a5.67,5.67,0,0,0,2.9-2.2c3.2-4.3,6.2-8.8,9-13.2a6.23,6.23,0,1,0-10.5-6.7c-2.7,4.2-5.6,8.4-8.6,12.6a6.23,6.23,0,0,0,1.4,8.7A6.38,6.38,0,0,0,1713.6,1080.3Z"
                transform="translate(-456 -454.9)" fill="#91b3fa" />
        </g>
        <path
            d="M1696.7,962.5a3.25,3.25,0,0,0-1-3.5l-30.2-23.9a168.69,168.69,0,0,0-2.9-54.3l27.4-27a3,3,0,0,0,.6-3.6l-20-41.7a3.32,3.32,0,0,0-3.2-1.8l-38.2,4.4a168.14,168.14,0,0,0-40.5-36.3l.3-38.5a3,3,0,0,0-2.1-3L1543.3,718a3.25,3.25,0,0,0-3.5,1l-23.9,30.2a168.69,168.69,0,0,0-54.3,2.9l-27-27.4a3,3,0,0,0-3.6-.6l-41.7,20a3.32,3.32,0,0,0-1.8,3.2l4.4,38.2a168.14,168.14,0,0,0-36.3,40.5l-38.5-.3a3.12,3.12,0,0,0-3,2.1l-15.3,43.6a3.25,3.25,0,0,0,1,3.5l30.2,23.9a168.69,168.69,0,0,0,2.9,54.3l-27.4,27a3,3,0,0,0-.6,3.6l20,41.7a3.32,3.32,0,0,0,3.2,1.8l38.2-4.4a168.14,168.14,0,0,0,40.5,36.3l-.3,38.5a3.12,3.12,0,0,0,2.1,3l43.6,15.3a3.25,3.25,0,0,0,3.5-1l23.9-30.2a168.69,168.69,0,0,0,54.3-2.9l27,27.4a3,3,0,0,0,3.6.6l41.7-20a3.32,3.32,0,0,0,1.8-3.2l-4.4-38.2a168.14,168.14,0,0,0,36.3-40.5l38.5.3a3.12,3.12,0,0,0,3-2.1Z"
            transform="translate(-456 -454.9)" fill="#91b3fa" />
        <path
            d="M1507.1,963.3a47,47,0,1,1,30.1-20.1,46.66,46.66,0,0,1-23.3,18.3C1511.7,962.2,1509.4,962.8,1507.1,963.3Zm-43.5-39.5a34.44,34.44,0,0,0,14.9,22.1,34.8,34.8,0,0,0,26.1,5.1h0a34.79,34.79,0,0,0-13.8-68.2,27.46,27.46,0,0,0-4.9,1.4A35,35,0,0,0,1463.6,923.8Z"
            transform="translate(-456 -454.9)" fill="#bdd0fb" />
        <path
            d="M1536.6,1027.3a116.33,116.33,0,0,0,11-4.6,126.18,126.18,0,0,0,20.5-12.5,5.5,5.5,0,0,0,.9-.7,6.47,6.47,0,0,0,2.1-7.1,5.56,5.56,0,0,0-.9-1.7,6.31,6.31,0,0,0-8.8-1.1,106.7,106.7,0,0,1-19.1,11.8h0a5.36,5.36,0,0,1-1.1.5,105,105,0,0,1-50.6,9.7,107.09,107.09,0,0,1-27.8-5.5c-.1,0-.1-.1-.2-.1a1.85,1.85,0,0,0-.7-.2A104.09,104.09,0,0,1,1402,962a96.3,96.3,0,0,1-4.2-10,105.19,105.19,0,0,1,193.9-80.9c1.5,3.2,2.9,6.5,4.1,9.9a105.82,105.82,0,0,1,5.8,45.3,6.1,6.1,0,0,0,.3,2.7,6.2,6.2,0,0,0,5.3,4.1,6.26,6.26,0,0,0,6.8-5.6,117.79,117.79,0,1,0-228.2,28.9,120.74,120.74,0,0,0,4.7,11.2C1417,1022.3,1480.6,1047.5,1536.6,1027.3Z"
            transform="translate(-456 -454.9)" fill="#bdd0fb" />
        <path
            d="M3223.5,3020H486.5a30.49,30.49,0,0,1-30.5-30.5V979.3a30.49,30.49,0,0,1,30.5-30.5h2737a30.49,30.49,0,0,1,30.5,30.5V2989.5A30.56,30.56,0,0,1,3223.5,3020Z"
            transform="translate(-456 -454.9)" fill="url(#ad633ac9-53c0-4a52-9d60-3f7c2a3371bd)" />
        <path
            d="M3065.6,2939.2H620.7a102.94,102.94,0,0,1-102.9-102.9V1116a102.94,102.94,0,0,1,102.9-102.9H3065.6A102.94,102.94,0,0,1,3168.5,1116V2836.3A102.94,102.94,0,0,1,3065.6,2939.2Z"
            transform="translate(-456 -454.9)" fill="#7d97f4" />
        <path
            d="M3038,2913.6H648.3a102.94,102.94,0,0,1-102.9-102.9v-1646a102.94,102.94,0,0,1,102.9-102.9H3038a102.94,102.94,0,0,1,102.9,102.9v1646A102.94,102.94,0,0,1,3038,2913.6Z"
            transform="translate(-456 -454.9)" fill="#bdd0fb" />
        <path
            d="M1375.5,2751.6H1345a6.38,6.38,0,0,1-6.4-6.4V1121a6.38,6.38,0,0,1,6.4-6.4h30.5a6.38,6.38,0,0,1,6.4,6.4V2745.2A6.26,6.26,0,0,1,1375.5,2751.6Z"
            transform="translate(-456 -454.9)" fill="#fff" opacity="0.59"
            style="isolation:isolate" />
        <path
            d="M2295.9,2742.8h-30.5a6.38,6.38,0,0,1-6.4-6.4V1112.2a6.38,6.38,0,0,1,6.4-6.4h30.5a6.38,6.38,0,0,1,6.4,6.4V2736.4A6.44,6.44,0,0,1,2295.9,2742.8Z"
            transform="translate(-456 -454.9)" fill="#fff" opacity="0.59"
            style="isolation:isolate" />
        <path
            d="M3081.6,1788.2H2405.2a20.78,20.78,0,0,1-20.8-20.8V1401.2a20.78,20.78,0,0,1,20.8-20.8h676.4a20.78,20.78,0,0,1,20.8,20.8v366.2A20.91,20.91,0,0,1,3081.6,1788.2Z"
            transform="translate(-456 -454.9)" fill="url(#ba1a0aee-1f55-4330-ae99-4f7bd142e32f)" />
        <path
            d="M3007.2,1770.9H2469.9a70,70,0,0,1-70-70V1467.8a70,70,0,0,1,70-70h537.3a70,70,0,0,1,70,70v233.1A70,70,0,0,1,3007.2,1770.9Z"
            transform="translate(-456 -454.9)" fill="#7d97f4" />
        <path
            d="M3038.7,1529.4H2721.2a5.55,5.55,0,0,1-5.5-5.5v-26.2a5.55,5.55,0,0,1,5.5-5.5h317.5a5.55,5.55,0,0,1,5.5,5.5v26.2A5.55,5.55,0,0,1,3038.7,1529.4Z"
            transform="translate(-456 -454.9)" fill="url(#a675b4d9-9011-4c2d-8ed4-10a62a523028)" />
        <path
            d="M3038.7,1609.1H2721.2a5.55,5.55,0,0,1-5.5-5.5v-26.2a5.55,5.55,0,0,1,5.5-5.5h317.5a5.55,5.55,0,0,1,5.5,5.5v26.2A5.55,5.55,0,0,1,3038.7,1609.1Z"
            transform="translate(-456 -454.9)" fill="url(#a98e389a-e0a6-4c29-81a7-7f1347e6d579)" />
        <path
            d="M3038.7,1685.5H2721.2a5.55,5.55,0,0,1-5.5-5.5v-26.2a5.55,5.55,0,0,1,5.5-5.5h317.5a5.55,5.55,0,0,1,5.5,5.5V1680A5.48,5.48,0,0,1,3038.7,1685.5Z"
            transform="translate(-456 -454.9)" fill="url(#e930512f-2ab7-41ae-a3d5-9c6f776946a6)" />
        <path
            d="M2575,1554.2H2451.2a7.28,7.28,0,0,1-7.3-7.3V1445.8a7.28,7.28,0,0,1,7.3-7.3H2575a7.28,7.28,0,0,1,7.3,7.3v101.1A7.34,7.34,0,0,1,2575,1554.2Z"
            transform="translate(-456 -454.9)" fill="url(#fb701df0-93c8-4c06-8ed6-ee00763a02c4)" />
        <path
            d="M2472.2,1492.2h0a10.38,10.38,0,0,1,14.3,3.9l13.3,23.9a3.29,3.29,0,0,0,5.9-.3l33.1-73.6c1.6-3.7,7.1-2.4,7.1,1.6-.3,22.5-6.3,65.3-42.3,101.1,0,0-19.8-7.7-35.8-42.8A10.8,10.8,0,0,1,2472.2,1492.2Z"
            transform="translate(-456 -454.9)" fill="url(#abf8f10f-8cec-40d6-a8a7-d172c69f7d62)" />
        <path
            d="M2170.9,1779.2H1494.5a20.78,20.78,0,0,1-20.8-20.8V1392.2a20.78,20.78,0,0,1,20.8-20.8h676.4a20.78,20.78,0,0,1,20.8,20.8v366.2A20.78,20.78,0,0,1,2170.9,1779.2Z"
            transform="translate(-456 -454.9)" fill="url(#af3e9e13-8b6b-42b1-aee1-92e9b1839682)" />
        <path
            d="M2096.6,1761.8H1559.3a70,70,0,0,1-70-70V1458.7a70,70,0,0,1,70-70h537.3a70,70,0,0,1,70,70v233.1A70,70,0,0,1,2096.6,1761.8Z"
            transform="translate(-456 -454.9)" fill="#7d97f4" />
        <path
            d="M2128,1520.3H1810.5a5.55,5.55,0,0,1-5.5-5.5v-26.2a5.55,5.55,0,0,1,5.5-5.5H2128a5.55,5.55,0,0,1,5.5,5.5v26.2A5.42,5.42,0,0,1,2128,1520.3Z"
            transform="translate(-456 -454.9)" fill="url(#f6a67ef0-21d0-4acf-91af-5ae794e541f8)" />
        <path
            d="M2128,1600.1H1810.5a5.55,5.55,0,0,1-5.5-5.5v-26.2a5.55,5.55,0,0,1,5.5-5.5H2128a5.55,5.55,0,0,1,5.5,5.5v26.2A5.48,5.48,0,0,1,2128,1600.1Z"
            transform="translate(-456 -454.9)" fill="url(#bec9fdf2-fcbf-419a-b609-3059da027ac0)" />
        <path
            d="M2128,1676.5H1810.5a5.55,5.55,0,0,1-5.5-5.5v-26.2a5.55,5.55,0,0,1,5.5-5.5H2128a5.55,5.55,0,0,1,5.5,5.5V1671A5.42,5.42,0,0,1,2128,1676.5Z"
            transform="translate(-456 -454.9)" fill="url(#a3fdbb20-9032-4e84-b08a-b90beec165a4)" />
        <path
            d="M1664.3,1545.1H1540.5a7.28,7.28,0,0,1-7.3-7.3V1436.7a7.28,7.28,0,0,1,7.3-7.3h123.8a7.28,7.28,0,0,1,7.3,7.3v101.1A7.21,7.21,0,0,1,1664.3,1545.1Z"
            transform="translate(-456 -454.9)" fill="url(#b4b22d39-fcfb-493b-9448-f21a5e61ebe5)" />
        <path
            d="M2173,2247.9H1496.6a20.78,20.78,0,0,1-20.8-20.8V1860.9a20.78,20.78,0,0,1,20.8-20.8H2173a20.78,20.78,0,0,1,20.8,20.8v366.2A20.78,20.78,0,0,1,2173,2247.9Z"
            transform="translate(-456 -454.9)" fill="url(#b99e6d43-0b8b-4c56-8156-02dc5da87c29)" />
        <path
            d="M2098.6,2230.6H1561.3a70,70,0,0,1-70-70V1927.5a70,70,0,0,1,70-70h537.3a70,70,0,0,1,70,70v233.1A70,70,0,0,1,2098.6,2230.6Z"
            transform="translate(-456 -454.9)" fill="#7d97f4" />
        <path
            d="M2130.1,1989.1H1812.6a5.55,5.55,0,0,1-5.5-5.5v-26.2a5.55,5.55,0,0,1,5.5-5.5h317.5a5.55,5.55,0,0,1,5.5,5.5v26.2A5.55,5.55,0,0,1,2130.1,1989.1Z"
            transform="translate(-456 -454.9)" fill="url(#b9164ad1-3db6-416d-bcd4-bdc320222301)" />
        <path
            d="M2130.1,2068.8H1812.6a5.55,5.55,0,0,1-5.5-5.5v-26.2a5.55,5.55,0,0,1,5.5-5.5h317.5a5.55,5.55,0,0,1,5.5,5.5v26.2A5.55,5.55,0,0,1,2130.1,2068.8Z"
            transform="translate(-456 -454.9)" fill="url(#b9638f79-9600-41ad-87d6-445ffde77bd6)" />
        <path
            d="M2130.1,2145.2H1812.6a5.55,5.55,0,0,1-5.5-5.5v-26.2a5.55,5.55,0,0,1,5.5-5.5h317.5a5.55,5.55,0,0,1,5.5,5.5v26.2A5.48,5.48,0,0,1,2130.1,2145.2Z"
            transform="translate(-456 -454.9)" fill="url(#e77a067d-3de3-40cb-a353-af00d2604176)" />
        <path
            d="M1666.4,2013.9H1542.6a7.28,7.28,0,0,1-7.3-7.3V1905.5a7.28,7.28,0,0,1,7.3-7.3h123.8a7.28,7.28,0,0,1,7.3,7.3v101.1A7.28,7.28,0,0,1,1666.4,2013.9Z"
            transform="translate(-456 -454.9)" fill="#fff" />
        <path
            d="M1259.3,1755.2H582.9a20.78,20.78,0,0,1-20.8-20.8V1368.2a20.78,20.78,0,0,1,20.8-20.8h676.4a20.78,20.78,0,0,1,20.8,20.8v366.2A20.78,20.78,0,0,1,1259.3,1755.2Z"
            transform="translate(-456 -454.9)" fill="url(#ed89c03f-172f-46fe-9d50-74820864150c)" />
        <path
            d="M1185,1737.9H647.6a70,70,0,0,1-70-70V1434.8a70,70,0,0,1,70-70H1185a70,70,0,0,1,70,70v233.1A70,70,0,0,1,1185,1737.9Z"
            transform="translate(-456 -454.9)" fill="#7d97f4" />
        <path
            d="M1216.4,1496.4H898.9a5.55,5.55,0,0,1-5.5-5.5v-26.2a5.55,5.55,0,0,1,5.5-5.5h317.5a5.55,5.55,0,0,1,5.5,5.5v26.2A5.48,5.48,0,0,1,1216.4,1496.4Z"
            transform="translate(-456 -454.9)" fill="url(#baab4a01-8f84-45e5-a9ac-c08473bdcdc3)" />
        <path
            d="M1216.4,1576.1H898.9a5.55,5.55,0,0,1-5.5-5.5v-26.2a5.55,5.55,0,0,1,5.5-5.5h317.5a5.55,5.55,0,0,1,5.5,5.5v26.2A5.42,5.42,0,0,1,1216.4,1576.1Z"
            transform="translate(-456 -454.9)" fill="url(#ad624ab3-17bd-4fbc-bf32-7b0952af509f)" />
        <path
            d="M1216.4,1652.6H898.9a5.55,5.55,0,0,1-5.5-5.5v-26.2a5.55,5.55,0,0,1,5.5-5.5h317.5a5.55,5.55,0,0,1,5.5,5.5v26.2A5.48,5.48,0,0,1,1216.4,1652.6Z"
            transform="translate(-456 -454.9)" fill="url(#f8817a9c-f206-4a18-852e-9fe7d9ab4645)" />
        <path
            d="M752.7,1521.2H628.9a7.28,7.28,0,0,1-7.3-7.3V1412.8a7.28,7.28,0,0,1,7.3-7.3H752.7a7.28,7.28,0,0,1,7.3,7.3v101.1A7.21,7.21,0,0,1,752.7,1521.2Z"
            transform="translate(-456 -454.9)" fill="url(#a95750ed-25de-41a0-9700-c5b05cf532fb)" />
        <path
            d="M3081.6,2260.3H2405.2a20.78,20.78,0,0,1-20.8-20.8V1873.3a20.78,20.78,0,0,1,20.8-20.8h676.4a20.78,20.78,0,0,1,20.8,20.8v366.2A20.91,20.91,0,0,1,3081.6,2260.3Z"
            transform="translate(-456 -454.9)" fill="url(#f5c74814-50f9-4e59-9874-bbae317b8696)" />
        <path
            d="M3007.2,2242.9H2469.9a70,70,0,0,1-70-70V1939.8a70,70,0,0,1,70-70h537.3a70,70,0,0,1,70,70v233.1A70,70,0,0,1,3007.2,2242.9Z"
            transform="translate(-456 -454.9)" fill="#7d97f4" />
        <path
            d="M3038.7,2001.5H2721.2a5.55,5.55,0,0,1-5.5-5.5v-26.2a5.55,5.55,0,0,1,5.5-5.5h317.5a5.55,5.55,0,0,1,5.5,5.5V1996A5.55,5.55,0,0,1,3038.7,2001.5Z"
            transform="translate(-456 -454.9)" fill="url(#ab5132c8-cdcf-496d-8eaf-d53665635e86)" />
        <path
            d="M3038.7,2081.2H2721.2a5.55,5.55,0,0,1-5.5-5.5v-26.2a5.55,5.55,0,0,1,5.5-5.5h317.5a5.55,5.55,0,0,1,5.5,5.5v26.2A5.55,5.55,0,0,1,3038.7,2081.2Z"
            transform="translate(-456 -454.9)" fill="url(#f5ae8ada-4e6c-41b7-b0b0-cd72b0ca968c)" />
        <path
            d="M3038.7,2157.6H2721.2a5.55,5.55,0,0,1-5.5-5.5v-26.2a5.55,5.55,0,0,1,5.5-5.5h317.5a5.55,5.55,0,0,1,5.5,5.5v26.2A5.48,5.48,0,0,1,3038.7,2157.6Z"
            transform="translate(-456 -454.9)" fill="url(#ea8ae435-8343-4fe9-b5fc-25e5d5417ced)" />
        <path
            d="M2575,2026.3H2451.2a7.28,7.28,0,0,1-7.3-7.3V1917.9a7.28,7.28,0,0,1,7.3-7.3H2575a7.28,7.28,0,0,1,7.3,7.3V2019A7.34,7.34,0,0,1,2575,2026.3Z"
            transform="translate(-456 -454.9)" fill="url(#bfafbbfa-160b-441c-8269-c4b9b4d7eddb)" />
        <path
            d="M2875.6,2231.4c129.4-17.7,164.8,7.4,164.8,7.4l-57.3,101.9s-127.9,4.2-223.1-61.5c16.2-19.4,27-40.4,33.8-56.6A172.09,172.09,0,0,0,2875.6,2231.4Z"
            transform="translate(-456 -454.9)" fill="url(#a7d4a637-d8b4-4237-bb26-96b29873ad16)" />
        <path
            d="M2662,2051.3a4,4,0,0,1,7.5-1.9l18.5,34.5a36.74,36.74,0,0,1,4.1,21.8l-4.7,20.9a35.91,35.91,0,0,0,8.7,27.9c16.2,18.2,50.5,51.3,97.8,68.1-6.8,16.3-17.6,37.3-33.8,56.6-34.9-24.1-65.5-57.6-83.7-104.2a17.3,17.3,0,0,1-13.2-16.6Z"
            transform="translate(-456 -454.9)" fill="url(#ad08d644-1ee5-4b6d-8dd6-0bebacc90fc5)" />
        <path
            d="M3085.8,3181.4s7.7,15.8,5.4,57.4a6.78,6.78,0,0,1-7.5,6.4l-73.2-8.3a4.39,4.39,0,0,1-3.5-6.1c5.7-12.2,22.2-41.7,53.1-56.2Z"
            transform="translate(-456 -454.9)" fill="url(#b144c275-3277-48ed-b622-dfec3885fd4c)" />
        <path
            d="M3092.2,3153.8l-8.1,34.3a6.53,6.53,0,0,1-6.4,5.1,57.72,57.72,0,0,1-15.5-1.9,10.74,10.74,0,0,1-7.6-11.6l3.8-33.5Z"
            transform="translate(-456 -454.9)" fill="url(#ad4ca24b-57c6-40dd-9197-663fe50670e5)" />
        <path
            d="M2905.3,3159.4a102.58,102.58,0,0,1,12.5,52.4,12.94,12.94,0,0,1-13.4,12.4l-114.4-2.9a5.44,5.44,0,0,1-2.9-10c22-14.7,65.3-42,96.4-52.4Z"
            transform="translate(-456 -454.9)" fill="url(#bbc94a3c-0533-4d32-abef-61e48f928f50)" />
        <path
            d="M2915.1,3126.4l-10.7,42.8a9,9,0,0,1-10.8,6.6,34.3,34.3,0,0,1-9.9-4.6,10.18,10.18,0,0,1-4.1-10.6l11.4-51.9Z"
            transform="translate(-456 -454.9)" fill="url(#a43c8724-b1f8-46d7-83b6-41831a17c3e7)" />
        <path
            d="M3144.7,2542.1s27.7,30.6,29.8,63.8-79.8,560.5-79.8,560.5-31.3,1.6-46.1-9.7c0,0,20-345.9,14.7-426.9,0,0-115,347.7-143,409.7,0,0-30,.3-38.9-6.4,0,0,71.7-459.4,105.6-538.7Z"
            transform="translate(-456 -454.9)" fill="url(#a695501a-70f1-4305-8690-701ef9dde451)" />
        <path
            d="M3065.8,2718.2a3.55,3.55,0,0,1-1-.2,3,3,0,0,1-1.7-3.8l18.7-48.6a3.64,3.64,0,0,1,1.4-1.6l30.2-14.9a2.91,2.91,0,0,1,2.6,5.2l-29.2,14.4-18.3,47.5A2.88,2.88,0,0,1,3065.8,2718.2Z"
            transform="translate(-456 -454.9)" fill="#7d97f4" />
        <path
            d="M2827,2253.9c51.1-43.9,140.3-56.3,191.5-59.8a46.42,46.42,0,0,1,48.2,35c15.7,63.3,59.4,228.3,68.2,256.8,7.3,23.4,15,46.3,20,60.6a16.36,16.36,0,0,1-10.1,20.9c-44.5,15.6-123.2,30.1-155,35.6a10.64,10.64,0,0,1-12.4-11.7,32.93,32.93,0,0,0-2.8-17.5l-94.8-207.7c-81.8,72.5-146.4,72.7-193.3,49.5a366.94,366.94,0,0,0,24.8-74.6C2785.1,2336.8,2827,2253.9,2827,2253.9Z"
            transform="translate(-456 -454.9)" fill="url(#afda0f37-7b73-4dd8-80ef-fd2696afb5c1)" />
        <path
            d="M2593.4,2314l15-15.9c39,33.8,73.5,44.6,103,42.9a373.19,373.19,0,0,1-24.8,74.6C2624.7,2385.1,2593.4,2314,2593.4,2314Z"
            transform="translate(-456 -454.9)" fill="url(#b5f0487c-1839-4e3d-889c-d8102098d005)" />
        <path
            d="M2602.5,2315.3l-73.8-5.4-63.4-45.4c10.4-5,63.9,13.6,63.9,13.6s58.4-2.2,74-.5c12.9,1.4,9,19.8,7.3,26a13,13,0,0,1-.6,2Z"
            transform="translate(-456 -454.9)" fill="url(#b4a29e23-75bf-4f06-a250-e7dfdf05278c)" />
        <path d="M2959.6,2096.2l28.1,99s-48,25.8-83.6,18.8l-9.8-87.3Z"
            transform="translate(-456 -454.9)" fill="url(#e9bf0172-37ab-42e2-9af3-8bb9e8b017b5)" />
        <path
            d="M2895.4,2007.3s-33.9,54.1-40.1,84.3-15.7,48.9,18.5,60.3,66.4-1.7,87-29.6c0,0,32.1-42.9,29.3-62.8S2895.4,2007.3,2895.4,2007.3Z"
            transform="translate(-456 -454.9)" fill="url(#f3f4c052-fabb-4930-919b-efceb4cb7235)" />
        <path
            d="M2952,2098.7l-1.9-1.2a4.93,4.93,0,0,1-1.4-7c6.4-8.8,19.3-29.3,7.6-36.3-15.1-9-76.9-31.5-87.2-56.2-10-23.7,5.9-50,24.7-55.3a2.39,2.39,0,0,1,3,1.5l1.1,3a2.44,2.44,0,0,0,4.5.2h0a2.41,2.41,0,0,1,4.4,0c3.2,7.4,13,20.1,42.7,30.2,42.2,14.5,68.2,36.3,64.4,66.4a2.4,2.4,0,0,0,3.4,2.5c3.5-1.5,8.8-1.6,14.7,5.2,10.4,11.8,1.7,37-27.6,54.5a2.37,2.37,0,0,0-.5,3.8c4.3,3.8,10.2,12.2-9.5,19.2-20.4,7.3-34.4,4.3-39.7,2.6a2.45,2.45,0,0,1-1.5-3.2l9.7-25.5a2.48,2.48,0,0,0-1.9-3.3Z"
            transform="translate(-456 -454.9)" fill="url(#a06ca1ff-5f61-4714-8254-1ed5ced1cc79)" />
        <path d="M2950.1,2104.1s15.1-35.6,30.2-22.7-14.8,40.2-28.3,39.6Z"
            transform="translate(-456 -454.9)" fill="url(#ba37005b-fc8f-4fd0-8f73-9449a2d0fe6d)" />
        <path
            d="M2460.9,2105.3h0a33,33,0,0,1,45.6,12.4l42.5,76.2a10.68,10.68,0,0,0,19-.8l105.4-234.7c5.3-11.7,22.7-7.7,22.5,5.1-1.1,71.8-20.1,208.2-134.8,322.4,0,0-63.2-24.6-114.1-136.3A34.61,34.61,0,0,1,2460.9,2105.3Z"
            transform="translate(-456 -454.9)" fill="url(#f66bc49a-220a-42f6-a266-4cfd8257dec0)" />
        <path
            d="M1266.8,1247.1H575.4a13.29,13.29,0,0,1-13.3-13.3V1096.9a13.29,13.29,0,0,1,13.3-13.3h691.4a13.29,13.29,0,0,1,13.3,13.3v136.9A13.29,13.29,0,0,1,1266.8,1247.1Z"
            transform="translate(-456 -454.9)" fill="#fff" opacity="0.59"
            style="isolation:isolate" />
        <path
            d="M2169.5,1250.5H1478.1a13.29,13.29,0,0,1-13.3-13.3V1100.3a13.29,13.29,0,0,1,13.3-13.3h691.4a13.29,13.29,0,0,1,13.3,13.3v136.9A13.23,13.23,0,0,1,2169.5,1250.5Z"
            transform="translate(-456 -454.9)" fill="#fff" opacity="0.59"
            style="isolation:isolate" />
        <path
            d="M3077.5,1250.5H2386.1a13.29,13.29,0,0,1-13.3-13.3V1100.3a13.29,13.29,0,0,1,13.3-13.3h691.4a13.29,13.29,0,0,1,13.3,13.3v136.9A13.29,13.29,0,0,1,3077.5,1250.5Z"
            transform="translate(-456 -454.9)" fill="#fff" opacity="0.59"
            style="isolation:isolate" />
        <path
            d="M676.1,3015.4s-148.2-342.3-36-702.8c.7-2.4,4.9-1.9,5.2.6C672.4,2531.2,680.4,2767.4,676.1,3015.4Z"
            transform="translate(-456 -454.9)" fill="#7d97f4" />
        <path
            d="M675.5,3008.2a1.81,1.81,0,0,1-1.8-1.4c-26.3-93.4-36.3-252.1-40-368.7-4.1-126.3-1.9-232-1.9-233.1a1.84,1.84,0,0,1,1.9-1.9,2,2,0,0,1,1.9,1.9c0,1.1-2.2,106.6,1.9,232.9,3.8,116.5,13.7,274.8,39.9,367.8a1.81,1.81,0,0,1-1.3,2.3A.73.73,0,0,1,675.5,3008.2Z"
            transform="translate(-456 -454.9)" fill="#fff" opacity="0.59"
            style="isolation:isolate" />
        <path
            d="M710,2959.6s-91.5-419.9,81.4-844.9a2.63,2.63,0,0,1,5.1,1C787.3,2378.9,755.9,2662.6,710,2959.6Z"
            transform="translate(-456 -454.9)" fill="#7d97f4" />
        <path
            d="M711,2950.6a1.86,1.86,0,0,1-1.9-1.7c-20.6-217.3,57.8-718.9,58.6-723.9a1.93,1.93,0,0,1,2.2-1.6,2,2,0,0,1,1.6,2.2c-.8,5-79.1,506.2-58.5,723a2,2,0,0,1-1.7,2.1A.77.77,0,0,0,711,2950.6Z"
            transform="translate(-456 -454.9)" fill="#fff" opacity="0.59"
            style="isolation:isolate" />
        <path
            d="M724.6,3073.5s-43.8-366.3,174-696c1.4-2.2,5.4-.8,5,1.7C865.1,2598.4,802.7,2831.5,724.6,3073.5Z"
            transform="translate(-456 -454.9)" fill="#7d97f4" />
        <path
            d="M726.7,3066.3h0a1.9,1.9,0,0,1-1.9-1.9c2-97,39.4-254.5,70.4-369.6,33.6-124.6,67.2-227.7,67.6-228.7a1.9,1.9,0,1,1,3.6,1.2c-.3,1-33.9,104-67.5,228.5-31,114.9-68.4,272-70.3,368.6A1.9,1.9,0,0,1,726.7,3066.3Z"
            transform="translate(-456 -454.9)" fill="#fff" opacity="0.59"
            style="isolation:isolate" />
        <path
            d="M613.4,2870.7H814.8c15.1,0,26.3,14.2,23.5,29-12,63.6-36.4,119.9-61.7,166.9a32.58,32.58,0,0,1-28.5,17.2H682.4a33.32,33.32,0,0,1-29.1-17.2c-31.6-57.5-47-114.5-59.9-170.4C590.4,2883.4,600.2,2870.7,613.4,2870.7Z"
            transform="translate(-456 -454.9)" fill="#7d97f4" />
        <path
            d="M2291,2974.1s-142.8,157.4-262,90.9c-95.8-53.5,40.3-39.5,155.8-64.8,9.1-2,6.7-15.5-2.5-14.3-90.4,12-228.2,21.8-252.2-25.3-36.2-71.1-1.1-48.1,108.9-37.8s131.2-16.9,59.4-33.8-186.1,20.5-212.7-14.3-41.2-103.9-51.8-133.6,137-74.3,176.9-35.3,72.3,126.1,119.6,142-3.6-61.1-35-100.9-43.9-69.3,18.9-59.8,95.9,86.1,102.5,143.2,28.7,89.1,27.7,60.8-11.3-115-31.3-141.1S2336.4,2755.8,2291,2974.1Z"
            transform="translate(-456 -454.9)" fill="#7d97f4" />
        <path
            d="M2279.4,2975.6a2.14,2.14,0,0,1-1.9-.3c-122.6-107.2-328.1-185.1-330.2-185.9a1.87,1.87,0,1,1,1.3-3.5c2.1.8,208.2,78.9,331.3,186.6a1.79,1.79,0,0,1,.2,2.6A3,3,0,0,1,2279.4,2975.6Z"
            transform="translate(-456 -454.9)" fill="#fff" opacity="0.53"
            style="isolation:isolate" />
        <path
            d="M2377.2,3074.7s-260.8,8.6-304-153.4c-34.7-130.2,69.3,1.8,190.2,82,9.5,6.3,19.4-7.4,10.5-14.4-87.8-69.4-214.2-182.6-193.1-244,31.8-92.6,41.4-42,126.4,63.8s127,101.3,80.6,23.5-177-146.5-169.1-199.7,56.4-125,73.6-159.8,182.5,57.3,182.2,125.8-49.4,171.4-22.9,226.8,50.8-55.4,59-117,23.6-97.9,68.9-34.4,6.1,158.1-38.7,212.7-54,101.5-30,76.4,91.8-108.2,97.6-148.1C2514.2,2774.8,2608.4,2928.2,2377.2,3074.7Z"
            transform="translate(-456 -454.9)" fill="url(#b45e478b-bf40-4fca-9415-8bfee1014acf)" />
        <path
            d="M2365.9,3065.7a2.24,2.24,0,0,1-1.3-2c-10.2-199.6-117.1-447.4-118.2-449.9a2.28,2.28,0,0,1,4.2-1.8c1.1,2.5,108.3,251,118.5,451.5a2.21,2.21,0,0,1-2.2,2.4A2,2,0,0,1,2365.9,3065.7Z"
            transform="translate(-456 -454.9)" fill="#fff" opacity="0.53"
            style="isolation:isolate" />
        <path
            d="M2065.5,2084.7H1275.9a20.78,20.78,0,0,1-20.8-20.8V1633.4a20.78,20.78,0,0,1,20.8-20.8h789.6a20.78,20.78,0,0,1,20.8,20.8V2064A20.76,20.76,0,0,1,2065.5,2084.7Z"
            transform="translate(-456 -454.9)" fill="url(#f02401a8-0faf-415f-85af-7c5e1a406bf3)" />
        <path
            d="M2036.5,2064.7H1293.9a20.78,20.78,0,0,1-20.8-20.8V1653.5a20.78,20.78,0,0,1,20.8-20.8h742.6a20.78,20.78,0,0,1,20.8,20.8v390.4A20.78,20.78,0,0,1,2036.5,2064.7Z"
            transform="translate(-456 -454.9)" fill="url(#b911ccb5-98f7-41fd-83d0-87f8c23bc3da)" />
        <path
            d="M2013.5,1785.1H1644.2a5.55,5.55,0,0,1-5.5-5.5v-32a5.55,5.55,0,0,1,5.5-5.5h369.3a5.55,5.55,0,0,1,5.5,5.5v32A5.48,5.48,0,0,1,2013.5,1785.1Z"
            transform="translate(-456 -454.9)" fill="#fff" />
        <path
            d="M2013.5,1877.4H1644.2a5.55,5.55,0,0,1-5.5-5.5v-32a5.55,5.55,0,0,1,5.5-5.5h369.3a5.55,5.55,0,0,1,5.5,5.5v32A5.55,5.55,0,0,1,2013.5,1877.4Z"
            transform="translate(-456 -454.9)" fill="#fff" />
        <path
            d="M2013.5,1965.9H1644.2a5.55,5.55,0,0,1-5.5-5.5v-32a5.55,5.55,0,0,1,5.5-5.5h369.3a5.55,5.55,0,0,1,5.5,5.5v32A5.55,5.55,0,0,1,2013.5,1965.9Z"
            transform="translate(-456 -454.9)" fill="#fff" />
        <path
            d="M1477,1813.8H1331.4a7.28,7.28,0,0,1-7.3-7.3V1687.2a7.28,7.28,0,0,1,7.3-7.3H1477a7.34,7.34,0,0,1,7.3,7.3v119.3A7.34,7.34,0,0,1,1477,1813.8Z"
            transform="translate(-456 -454.9)" fill="#fff" />
        <path
            d="M1256.4,1973.9l.8-25.3-26.4-52.5a34.31,34.31,0,0,1-.1-30.6l30-60.5s17.3,131.3,21.9,142.2-12.3,30.5-12.3,30.5Z"
            transform="translate(-456 -454.9)" fill="url(#a75339d1-40f5-40bc-9e9d-9969fd65f6c4)" />
        <path
            d="M1037.5,1951.7s-28.3,13.8-33.5,29.6c-4.2,12.7-35.4,14.3-38.5,39.2-1.6,12.9-11.1,23.2-23.9,25.1-31.9,4.9-81.2,21.5-89,76.9-6,42.3,15.6,58.4,38.2,63.9,16.6,4.1,27.7,20.3,24.3,37-3.2,16.1,1.6,34.7,29.5,49.4,62.5,33,125-78.2,125-78.2l12.8-194.1Z"
            transform="translate(-456 -454.9)" fill="url(#b96b4d77-ee2b-48c4-96a0-efed923a3a6a)" />
        <path
            d="M1256.4,1973.9s5.7,168.3-142.2,163.3c0,0,45.6,74.4,69.4,79,0,0,151.3-52.5,98.8-269Z"
            transform="translate(-456 -454.9)" fill="url(#a231e39f-4df8-43c2-87c1-25b9997bb857)" />
        <path
            d="M780.5,3168.6l-4,33.3c-4.2,15.8-24.6,55.6-50.7,53-16.1-1.6-18-48.5-15.8-55.6,4.1-12.8,11.5-32.1,22.3-43.5h36.9A11.39,11.39,0,0,1,780.5,3168.6Z"
            transform="translate(-456 -454.9)" fill="url(#eec20d5f-28f6-4218-a716-effb95a6eee1)" />
        <path
            d="M1069.5,2779l6.2,36.6s-20.9,211.2-24.6,295.7a65.71,65.71,0,0,0,9.8,37.6l36.3,58.9-92.2-54.4-1.8-11.2,15.1-20.7-19.8-236.6a72.21,72.21,0,0,1,8.3-40.2l19.1-35.8Z"
            transform="translate(-456 -454.9)" fill="url(#e8b8fc0a-bd24-48f2-9ba2-f7fbf665d98f)" />
        <path
            d="M1103.3,3216.4h-29.4a17.76,17.76,0,0,1-14.1-6.9c-9.2-11.9-28.2-35.2-37.2-35.8-12.2-.8-10.7,42.7-10.7,42.7H1005l-8.7-54a31.89,31.89,0,0,1,16.8-33.4h0s2.8,20.7,18,29.8,61.7,41.9,61.7,41.9a43.26,43.26,0,0,1,12,.3C1114,3202.6,1112.7,3216.4,1103.3,3216.4Z"
            transform="translate(-456 -454.9)" fill="url(#a8d0934a-9c23-4e6e-a2cd-ca8a10b35bf3)" />
        <path
            d="M943.3,2796.4s-122.2,231.7-141.6,284.7-26.2,97-26.5,101.2c-.4,6.5-8.5,12.8-30.9,12.8-11.6,0-17.2-4.6-20-9.1a12.86,12.86,0,0,1-.5-12.6c7.1-14.3,29.5-60,37.8-80.7,9.9-24.8,31.2-136.9,42.9-175.9s24.9-81.3,75.9-120.3C880.4,2796.4,915.4,2762.1,943.3,2796.4Z"
            transform="translate(-456 -454.9)" fill="url(#ff16db8e-89a3-4918-8c94-be2cedc4bba7)" />
        <path
            d="M1020.4,2416.6c17.9-75.8-.1-132.9-19-168.1a56.75,56.75,0,0,1,23.8-77.5c44.2-23,89-33.7,89-33.7s87.6,64,77.2,114.1c-6.1,29.4-61.6,175.9-61.6,175.9S1078.6,2451.6,1020.4,2416.6Z"
            transform="translate(-456 -454.9)" fill="url(#f3c95cba-0b57-4c67-bd60-7610d0ca657d)" />
        <path
            d="M950.6,2482.8c12.8-38.6,69.9-66.1,69.9-66.1,58.2,34.9,109.5,10.7,109.5,10.7s11.5,44,3.6,84.8-57.8,303.5-57.8,303.5c-78.5,15.9-199.2-16-199.2-16C926.5,2710.8,937.7,2521.4,950.6,2482.8Z"
            transform="translate(-456 -454.9)" fill="url(#ac3c414a-f268-4014-8d2f-30243253764d)" />
        <path
            d="M1057,2049l-25.6,115.1c-2.5,10.1,6.8,8.5,17,6.5,16.8-3.2,38.4-9.7,45.6-22.7a12.64,12.64,0,0,0,1.3-4.3l11-79.8a14.31,14.31,0,0,0-8.4-15.1l-21.2-9.4A14.25,14.25,0,0,0,1057,2049Z"
            transform="translate(-456 -454.9)" fill="url(#a78b003e-f2fe-4c92-a8f6-24dfe0e20784)" />
        <path
            d="M1087.1,1939.4s30.3,12.8,51,56.7,5.2,64.1-14.1,66.9-48.3,2.4-78.9-26S1047.6,1924.2,1087.1,1939.4Z"
            transform="translate(-456 -454.9)" fill="url(#ae8ae23e-7b0a-4157-8e9f-e8e8267f35ab)" />
        <path
            d="M1065.6,2013.6s-22.9-64.2,34-64.9l13.4,9.4s20.9-35.6-13.4-52.5-74.3-3-88.9,43.2-17.1,77,7.2,99.1,34.2-3,34.2-3-13.2-20.7-7.8-31.7,17.8,2.3,17.8,2.3Z"
            transform="translate(-456 -454.9)" fill="url(#b5123a8d-2a2d-40a0-9415-1f703de8ca5c)" />
        <path d="M1059.2,2020.7s-11.6-33-27-19.9,12.6,30.5,23.5,36.2Z"
            transform="translate(-456 -454.9)" fill="url(#f8849dc3-5446-4051-b6f2-087535a34bd2)" />
        <path
            d="M1363.1,2105s-77.5,174.1-325.2,80.2c-16.3-6.2-32.7,11.5-34,28.9l-.7,9.4a41.92,41.92,0,0,0,43.9,45.2c90.4-4.6,220.3,48.3,334.5-105Z"
            transform="translate(-456 -454.9)" fill="url(#a82a7040-7ba1-4a3e-a1cc-7a054b0b6bf9)" />
        <path
            d="M1381.5,2163.7s13-38.1,16.2-62-8.7-77.3-19-92.4-12,21.8-16.7,39.2,3.2,42.1,3.2,42.1l-4.7,32.4Z"
            transform="translate(-456 -454.9)" fill="url(#f2506f02-f170-48c1-b9b1-b9b70f4b84ab)" />
    </g>
</svg>