<?xml version="1.0"?>
<svg xmlns="http://www.w3.org/2000/svg" xmlns:xlink="http://www.w3.org/1999/xlink" xmlns:svgjs="http://svgjs.com/svgjs" version="1.1" width="512" height="512" x="0" y="0" viewBox="0 0 512 512" style="enable-background:new 0 0 512 512" xml:space="preserve" class=""><g><g xmlns="http://www.w3.org/2000/svg"><path d="m442.154 145c10.585 0 17.924-10.701 13.955-20.514-14.093-34.841-48.275-59.486-88.109-59.486h-18.414c-6.867-36.273-38.67-65-77.586-65h-32c-38.891 0-70.715 28.708-77.586 65h-18.414c-39.834 0-74.016 24.645-88.109 59.486-3.969 9.813 3.37 20.514 13.955 20.514zm-202.154-115h32c21.9 0 40.49 14.734 46.748 35h-125.496c6.258-20.266 24.848-35 46.748-35z" fill="#f97c7c" data-original="#000000" style="" class=""/><path d="m111.053 470.196c1.669 23.442 21.386 41.804 44.886 41.804h200.121c23.5 0 43.217-18.362 44.886-41.804l21.023-295.196h-331.938zm185.966-214.945c.414-8.274 7.469-14.655 15.73-14.232 8.274.414 14.646 7.457 14.232 15.73l-8 160c-.401 8.019-7.029 14.251-14.969 14.251-8.637 0-15.42-7.223-14.994-15.749zm-97.768-14.232c8.263-.415 15.317 5.959 15.73 14.232l8 160c.426 8.53-6.362 15.749-14.994 15.749-7.94 0-14.568-6.232-14.969-14.251l-8-160c-.413-8.273 5.959-15.316 14.233-15.73z" fill="#f97c7c" data-original="#000000" style="" class=""/></g></g></svg>
